<svg viewBox="-4 -4 8 8" width="64" height="64" xmlns="http://www.w3.org/2000/svg">
  <style>
    .knot-stroke { stroke: black; }
    .knot-halo   { stroke: white; }
    @media (prefers-color-scheme: dark) {
      .knot-stroke { stroke: white; }
      .knot-halo   { stroke: black; }
    }
  </style>
  <g>
    <path d="M -0.566 -2.849 L -0.417 -2.825 L -0.265 -2.790 L -0.110 -2.744 L 0.046 -2.687 L 0.202 -2.620 L 0.357 -2.542 L 0.509 -2.455 L 0.657 -2.359 L 0.799 -2.255 L 0.935 -2.144 L 1.063 -2.026 L 1.183 -1.904 L 1.293 -1.778 L 1.394 -1.650 L 1.484 -1.520 L 1.564 -1.389 L 1.633 -1.259 L 1.692 -1.131 L 1.739 -1.005 L 1.777 -0.883 L 1.804 -0.765 L 1.822 -0.653 L 1.831 -0.545 L 1.831 -0.444 L 1.824 -0.349 L 1.810 -0.261 L 1.789 -0.180 L 1.763 -0.105 L 1.732 -0.039 L 1.696 0.021 L 1.658 0.074 L 1.616 0.120 L 1.573 0.159 L 1.528 0.191 L 1.482 0.217 L 1.436 0.238 L 1.390 0.252 L 1.345 0.261 L 1.301 0.266 L 1.259 0.266 L 1.218 0.262 L 1.180 0.254 L 1.144 0.243 L 1.110 0.230 L 1.080 0.214 L 1.052 0.197 L 1.027 0.179 L 1.005 0.160 L 0.986 0.140 L 0.970 0.121 L 0.956 0.102 L 0.945 0.085 L 0.936 0.069 L 0.930 0.054 L 0.925 0.042 L 0.921 0.033 L 0.919 0.026 L 0.918 0.022 L 0.917 0.021 L 0.916 0.023 L 0.915 0.029 L 0.914 0.038 L 0.911 0.051 L 0.908 0.068 L 0.902 0.088 L 0.895 0.111 L 0.886 0.138 L 0.874 0.168 L 0.859 0.201 L 0.841 0.237 L 0.821 0.275 L 0.797 0.316 L 0.769 0.360 L 0.738 0.405 L 0.703 0.452 L 0.664 0.501 L 0.622 0.551 L 0.576 0.601 L 0.526 0.653 L 0.473 0.705 L 0.415 0.757 L 0.355 0.809 L 0.291 0.861 L 0.223 0.913 L 0.153 0.964 L 0.079 1.014 L 0.003 1.062 L -0.076 1.110 L -0.157 1.156 L -0.241 1.200 L -0.327 1.242 L -0.414 1.283 L -0.503 1.321 L -0.593 1.357 L -0.684 1.390 L -0.775 1.421 L -0.867 1.450 L -0.959 1.475 L -1.050 1.498 L -1.141 1.518 L -1.231 1.534 L -1.319 1.548 L -1.406 1.558 L -1.491 1.565 L -1.572 1.569 L -1.651 1.569 L -1.727 1.566 L -1.799 1.559 L -1.866 1.549 L -1.929 1.536 L -1.987 1.519 L -2.039 1.498 L -2.086 1.475 L -2.126 1.447 L -2.160 1.417 L -2.188 1.384 L -2.208 1.347 L -2.222 1.308 L -2.228 1.266 L -2.227 1.221 L -2.218 1.174 L -2.203 1.125 L -2.180 1.073 L -2.151 1.020 L -2.115 0.966 L -2.074 0.909 L -2.027 0.852 L -1.975 0.794 L -1.919 0.735 L -1.859 0.676 L -1.796 0.616 L -1.730 0.556 L -1.663 0.496 L -1.595 0.435 L -1.527 0.375 L -1.458 0.315 L -1.391 0.255 L -1.325 0.195 L -1.261 0.135 L -1.199 0.075 L -1.140 0.015 L -1.083 -0.045 L -1.030 -0.106 L -0.980 -0.166 L -0.932 -0.227 L -0.888 -0.289 L -0.848 -0.351 L -0.810 -0.414 L -0.775 -0.478 L -0.742 -0.543 L -0.711 -0.609 L -0.683 -0.676 L -0.656 -0.744 L -0.630 -0.813 L -0.605 -0.884 L -0.580 -0.955 L -0.555 -1.028 L -0.530 -1.101 L -0.503 -1.176 L -0.475 -1.251 L -0.446 -1.327 L -0.414 -1.403 L -0.379 -1.480 L -0.341 -1.557 L -0.299 -1.633 L -0.254 -1.709 L -0.204 -1.784 L -0.149 -1.857 L -0.090 -1.929 L -0.025 -1.999 L 0.045 -2.066 L 0.120 -2.130 L 0.201 -2.190 L 0.288 -2.246 L 0.380 -2.297 L 0.477 -2.342 L 0.580 -2.382 L 0.688 -2.416 L 0.801 -2.442 L 0.918 -2.462 L 1.039 -2.473 L 1.162 -2.475 L 1.289 -2.470 L 1.417 -2.455 L 1.547 -2.430 L 1.676 -2.397 L 1.806 -2.353 L 1.933 -2.301 L 2.059 -2.238 L 2.181 -2.167 L 2.299 -2.087 L 2.412 -1.998 L 2.519 -1.901 L 2.619 -1.797 L 2.713 -1.686 L 2.798 -1.568 L 2.875 -1.446 L 2.943 -1.318 L 3.002 -1.187 L 3.051 -1.052 L 3.090 -0.916 L 3.120 -0.778 L 3.139 -0.639 L 3.149 -0.501 L 3.149 -0.363 L 3.140 -0.228 L 3.121 -0.095 L 3.094 0.035 L 3.058 0.161 L 3.015 0.283 L 2.964 0.401 L 2.906 0.513 L 2.841 0.619 L 2.771 0.719 L 2.696 0.813 L 2.616 0.901 L 2.531 0.982 L 2.443 1.056 L 2.353 1.123 L 2.259 1.183 L 2.164 1.236 L 2.068 1.282 L 1.971 1.321 L 1.873 1.353 L 1.775 1.378 L 1.679 1.397 L 1.583 1.409 L 1.488 1.415 L 1.396 1.414 L 1.305 1.408 L 1.217 1.397 L 1.132 1.380 L 1.050 1.358 L 0.970 1.332 L 0.894 1.302 L 0.822 1.268 L 0.752 1.231 L 0.687 1.191 L 0.625 1.149 L 0.566 1.104 L 0.510 1.058 L 0.458 1.011 L 0.409 0.964 L 0.363 0.916 L 0.319 0.868 L 0.277 0.821 L 0.238 0.775 L 0.200 0.729 L 0.163 0.686 L 0.128 0.644 L 0.093 0.604 L 0.059 0.566 L 0.024 0.530 L -0.010 0.497 L -0.046 0.466 L -0.082 0.438 L -0.120 0.412 L -0.159 0.389 L -0.200 0.368 L -0.243 0.349 L -0.288 0.332 L -0.335 0.318 L -0.385 0.305 L -0.437 0.294 L -0.492 0.285 L -0.550 0.276 L -0.610 0.269 L -0.674 0.263 L -0.740 0.258 L -0.808 0.253 L -0.879 0.248 L -0.953 0.243 L -1.029 0.238 L -1.107 0.233 L -1.188 0.227 L -1.270 0.221 L -1.354 0.214 L -1.440 0.205 L -1.527 0.196 L -1.616 0.185 L -1.705 0.173 L -1.795 0.159 L -1.885 0.144 L -1.975 0.127 L -2.065 0.108 L -2.154 0.087 L -2.242 0.065 L -2.329 0.040 L -2.414 0.014 L -2.497 -0.015 L -2.577 -0.045 L -2.655 -0.077 L -2.728 -0.111 L -2.797 -0.147 L -2.862 -0.184 L -2.922 -0.222 L -2.976 -0.262 L -3.023 -0.303 L -3.064 -0.344 L -3.097 -0.386 L -3.122 -0.428 L -3.139 -0.471 L -3.147 -0.513 L -3.146 -0.554 L -3.135 -0.594 L -3.113 -0.632 L -3.082 -0.669 L -3.040 -0.703 L -2.988 -0.735 L -2.925 -0.764 L -2.852 -0.790 L -2.769 -0.812 L -2.678 -0.830 L -2.577 -0.845 L -2.468 -0.855 L -2.352 -0.861 L -2.230 -0.862 L -2.103 -0.860 L -1.972 -0.854 L -1.838 -0.844 L -1.702 -0.830 L -1.566 -0.814 L -1.430 -0.794 L -1.296 -0.773 L -1.165 -0.749 L -1.037 -0.725 L -0.913 -0.699 L -0.795 -0.674 L -0.682 -0.648 L -0.575 -0.624 L -0.474 -0.600 L -0.379 -0.579 L -0.291 -0.559 L -0.210 -0.542 L -0.135 -0.527 L -0.066 -0.515 L -0.002 -0.506 L 0.056 -0.501 L 0.109 -0.498 L 0.157 -0.499 L 0.202 -0.504 L 0.243 -0.512 L 0.281 -0.523 L 0.317 -0.537 L 0.351 -0.554 L 0.383 -0.574 L 0.415 -0.597 L 0.446 -0.622 L 0.477 -0.649 L 0.509 -0.677 L 0.542 -0.707 L 0.576 -0.738 L 0.611 -0.770 L 0.649 -0.802 L 0.688 -0.834 L 0.730 -0.865 L 0.774 -0.896 L 0.821 -0.925 L 0.870 -0.952 L 0.922 -0.977 L 0.976 -1.000 L 1.033 -1.019 L 1.092 -1.035 L 1.153 -1.047 L 1.216 -1.055 L 1.280 -1.058 L 1.346 -1.057 L 1.412 -1.050 L 1.479 -1.038 L 1.545 -1.021 L 1.611 -0.998 L 1.677 -0.970 L 1.740 -0.935 L 1.802 -0.895 L 1.862 -0.850 L 1.918 -0.799 L 1.972 -0.742 L 2.021 -0.680 L 2.067 -0.613 L 2.108 -0.542 L 2.144 -0.466 L 2.175 -0.386 L 2.201 -0.303 L 2.221 -0.216 L 2.235 -0.126 L 2.243 -0.034 L 2.246 0.060 L 2.242 0.156 L 2.232 0.253 L 2.216 0.351 L 2.194 0.449 L 2.166 0.547 L 2.132 0.644 L 2.092 0.741 L 2.048 0.836 L 1.998 0.930 L 1.943 1.021 L 1.883 1.111 L 1.819 1.198 L 1.750 1.282 L 1.678 1.362 L 1.602 1.440 L 1.523 1.514 L 1.441 1.584 L 1.357 1.650 L 1.270 1.711 L 1.182 1.769 L 1.092 1.821 L 1.001 1.869 L 0.909 1.912 L 0.817 1.951 L 0.725 1.984 L 0.633 2.012 L 0.542 2.034 L 0.451 2.052 L 0.363 2.064 L 0.276 2.070 L 0.191 2.072 L 0.109 2.067 L 0.029 2.058 L -0.048 2.043 L -0.121 2.024 L -0.191 1.999 L -0.258 1.969 L -0.320 1.934 L -0.378 1.895 L -0.432 1.851 L -0.482 1.803 L -0.528 1.751 L -0.569 1.696 L -0.606 1.637 L -0.639 1.575 L -0.668 1.511 L -0.693 1.444 L -0.715 1.375 L -0.734 1.304 L -0.749 1.232 L -0.763 1.159 L -0.774 1.085 L -0.783 1.011 L -0.791 0.937 L -0.798 0.863 L -0.804 0.790 L -0.810 0.717 L -0.817 0.645 L -0.824 0.573 L -0.832 0.503 L -0.842 0.434 L -0.852 0.366 L -0.865 0.298 L -0.880 0.232 L -0.897 0.167 L -0.916 0.103 L -0.938 0.040 L -0.963 -0.023 L -0.989 -0.085 L -1.019 -0.147 L -1.050 -0.208 L -1.084 -0.270 L -1.120 -0.331 L -1.158 -0.393 L -1.198 -0.455 L -1.240 -0.518 L -1.283 -0.582 L -1.327 -0.646 L -1.372 -0.712 L -1.417 -0.778 L -1.463 -0.846 L -1.508 -0.916 L -1.553 -0.987 L -1.597 -1.059 L -1.640 -1.133 L -1.681 -1.208 L -1.720 -1.285 L -1.756 -1.364 L -1.790 -1.443 L -1.819 -1.524 L -1.845 -1.607 L -1.866 -1.690 L -1.882 -1.773 L -1.892 -1.857 L -1.897 -1.942 L -1.895 -2.025 L -1.886 -2.109 L -1.869 -2.190 L -1.845 -2.271 L -1.812 -2.349 L -1.770 -2.424 L -1.719 -2.495 L -1.660 -2.563 L -1.590 -2.625 L -1.511 -2.682 L -1.423 -2.733 L -1.325 -2.776 L -1.219 -2.811 L -1.103 -2.838 L -0.979 -2.856 L -0.848 -2.864 L -0.710 -2.862 L -0.566 -2.849" class="knot-stroke" stroke-width="0.55" fill="none" stroke-linecap="round" stroke-linejoin="round" />
  </g>
</svg>
