<svg viewBox="-4 -4 8 8" width="64" height="64" xmlns="http://www.w3.org/2000/svg">
  <style>
    .knot-stroke { stroke: black; }
    .knot-halo   { stroke: white; }
    @media (prefers-color-scheme: dark) {
      .knot-stroke { stroke: white; }
      .knot-halo   { stroke: black; }
    }
  </style>
  <g>
    <path d="M -1.839 -2.446 L -1.729 -2.465 L -1.609 -2.476 L -1.482 -2.478 L -1.347 -2.470 L -1.206 -2.453 L -1.060 -2.426 L -0.909 -2.389 L -0.756 -2.343 L -0.601 -2.287 L -0.446 -2.222 L -0.293 -2.149 L -0.142 -2.068 L 0.005 -1.980 L 0.147 -1.887 L 0.283 -1.788 L 0.412 -1.685 L 0.533 -1.580 L 0.645 -1.472 L 0.748 -1.364 L 0.842 -1.256 L 0.926 -1.149 L 1.000 -1.044 L 1.064 -0.942 L 1.119 -0.844 L 1.165 -0.749 L 1.202 -0.660 L 1.230 -0.576 L 1.251 -0.497 L 1.265 -0.424 L 1.272 -0.358 L 1.274 -0.298 L 1.270 -0.244 L 1.262 -0.196 L 1.250 -0.155 L 1.235 -0.120 L 1.218 -0.091 L 1.199 -0.067 L 1.178 -0.049 L 1.157 -0.037 L 1.136 -0.029 L 1.115 -0.025 L 1.095 -0.026 L 1.076 -0.030 L 1.059 -0.038 L 1.043 -0.048 L 1.030 -0.060 L 1.019 -0.075 L 1.010 -0.091 L 1.004 -0.107 L 1.000 -0.125 L 0.999 -0.142 L 1.001 -0.159 L 1.005 -0.175 L 1.011 -0.189 L 1.020 -0.202 L 1.030 -0.213 L 1.043 -0.222 L 1.056 -0.227 L 1.071 -0.230 L 1.087 -0.230 L 1.104 -0.225 L 1.120 -0.218 L 1.136 -0.206 L 1.152 -0.191 L 1.167 -0.171 L 1.180 -0.148 L 1.192 -0.120 L 1.202 -0.089 L 1.209 -0.054 L 1.214 -0.015 L 1.215 0.027 L 1.214 0.073 L 1.209 0.121 L 1.200 0.173 L 1.188 0.227 L 1.171 0.284 L 1.151 0.343 L 1.126 0.403 L 1.097 0.466 L 1.064 0.529 L 1.027 0.593 L 0.985 0.658 L 0.939 0.724 L 0.889 0.790 L 0.835 0.855 L 0.778 0.920 L 0.716 0.985 L 0.651 1.048 L 0.582 1.110 L 0.511 1.171 L 0.436 1.231 L 0.359 1.288 L 0.279 1.344 L 0.196 1.398 L 0.112 1.449 L 0.026 1.497 L -0.062 1.543 L -0.151 1.586 L -0.240 1.627 L -0.331 1.664 L -0.421 1.698 L -0.512 1.728 L -0.602 1.755 L -0.691 1.779 L -0.780 1.799 L -0.867 1.815 L -0.952 1.827 L -1.035 1.836 L -1.115 1.840 L -1.192 1.841 L -1.266 1.837 L -1.336 1.830 L -1.402 1.818 L -1.464 1.802 L -1.521 1.783 L -1.573 1.759 L -1.619 1.731 L -1.660 1.699 L -1.695 1.664 L -1.724 1.624 L -1.747 1.582 L -1.763 1.535 L -1.773 1.486 L -1.778 1.434 L -1.775 1.378 L -1.768 1.321 L -1.754 1.261 L -1.735 1.198 L -1.711 1.134 L -1.682 1.069 L -1.650 1.002 L -1.614 0.934 L -1.574 0.865 L -1.533 0.795 L -1.489 0.725 L -1.444 0.655 L -1.399 0.584 L -1.353 0.514 L -1.308 0.444 L -1.263 0.373 L -1.220 0.303 L -1.179 0.234 L -1.139 0.164 L -1.102 0.095 L -1.067 0.025 L -1.035 -0.044 L -1.006 -0.113 L -0.980 -0.183 L -0.956 -0.252 L -0.935 -0.322 L -0.917 -0.393 L -0.901 -0.464 L -0.887 -0.536 L -0.875 -0.609 L -0.864 -0.682 L -0.855 -0.757 L -0.847 -0.832 L -0.839 -0.909 L -0.832 -0.986 L -0.824 -1.065 L -0.816 -1.145 L -0.806 -1.226 L -0.795 -1.308 L -0.782 -1.390 L -0.767 -1.474 L -0.748 -1.558 L -0.726 -1.642 L -0.701 -1.727 L -0.671 -1.812 L -0.636 -1.896 L -0.596 -1.979 L -0.551 -2.061 L -0.500 -2.142 L -0.443 -2.221 L -0.380 -2.297 L -0.310 -2.370 L -0.234 -2.439 L -0.150 -2.504 L -0.060 -2.565 L 0.037 -2.619 L 0.140 -2.668 L 0.250 -2.710 L 0.366 -2.745 L 0.487 -2.772 L 0.614 -2.790 L 0.745 -2.799 L 0.881 -2.799 L 1.019 -2.789 L 1.160 -2.769 L 1.302 -2.738 L 1.444 -2.697 L 1.586 -2.645 L 1.726 -2.583 L 1.864 -2.511 L 1.997 -2.428 L 2.126 -2.336 L 2.249 -2.235 L 2.366 -2.126 L 2.475 -2.009 L 2.575 -1.886 L 2.667 -1.756 L 2.749 -1.621 L 2.820 -1.483 L 2.882 -1.341 L 2.932 -1.197 L 2.972 -1.052 L 3.002 -0.907 L 3.020 -0.762 L 3.028 -0.619 L 3.026 -0.479 L 3.013 -0.342 L 2.992 -0.208 L 2.961 -0.080 L 2.922 0.044 L 2.876 0.162 L 2.821 0.274 L 2.761 0.379 L 2.694 0.478 L 2.622 0.570 L 2.546 0.654 L 2.465 0.731 L 2.381 0.801 L 2.294 0.863 L 2.206 0.918 L 2.115 0.966 L 2.024 1.006 L 1.933 1.039 L 1.841 1.065 L 1.750 1.084 L 1.660 1.097 L 1.572 1.104 L 1.485 1.105 L 1.401 1.100 L 1.319 1.090 L 1.240 1.076 L 1.164 1.057 L 1.091 1.034 L 1.021 1.008 L 0.955 0.978 L 0.892 0.946 L 0.833 0.912 L 0.777 0.876 L 0.725 0.839 L 0.675 0.801 L 0.629 0.762 L 0.586 0.724 L 0.545 0.686 L 0.506 0.649 L 0.470 0.613 L 0.435 0.579 L 0.402 0.547 L 0.370 0.516 L 0.339 0.488 L 0.309 0.462 L 0.278 0.439 L 0.247 0.419 L 0.216 0.401 L 0.183 0.386 L 0.150 0.374 L 0.115 0.364 L 0.078 0.357 L 0.039 0.353 L -0.002 0.351 L -0.045 0.352 L -0.091 0.354 L -0.139 0.359 L -0.190 0.365 L -0.244 0.373 L -0.301 0.382 L -0.361 0.392 L -0.424 0.403 L -0.489 0.415 L -0.558 0.427 L -0.629 0.440 L -0.703 0.452 L -0.779 0.465 L -0.858 0.477 L -0.940 0.488 L -1.023 0.499 L -1.109 0.509 L -1.196 0.518 L -1.285 0.525 L -1.375 0.532 L -1.467 0.537 L -1.559 0.540 L -1.652 0.541 L -1.745 0.541 L -1.839 0.539 L -1.932 0.535 L -2.024 0.529 L -2.115 0.521 L -2.205 0.510 L -2.294 0.498 L -2.380 0.483 L -2.463 0.467 L -2.544 0.448 L -2.620 0.427 L -2.693 0.404 L -2.761 0.379 L -2.824 0.352 L -2.882 0.324 L -2.933 0.294 L -2.978 0.262 L -3.015 0.229 L -3.045 0.195 L -3.067 0.161 L -3.080 0.125 L -3.084 0.090 L -3.079 0.054 L -3.064 0.018 L -3.039 -0.017 L -3.005 -0.052 L -2.961 -0.085 L -2.907 -0.118 L -2.844 -0.149 L -2.771 -0.178 L -2.690 -0.206 L -2.602 -0.231 L -2.505 -0.254 L -2.403 -0.275 L -2.294 -0.294 L -2.181 -0.311 L -2.064 -0.326 L -1.945 -0.338 L -1.824 -0.349 L -1.702 -0.358 L -1.581 -0.366 L -1.461 -0.373 L -1.343 -0.378 L -1.228 -0.384 L -1.116 -0.389 L -1.009 -0.394 L -0.906 -0.400 L -0.809 -0.406 L -0.716 -0.414 L -0.629 -0.423 L -0.547 -0.433 L -0.470 -0.446 L -0.398 -0.460 L -0.331 -0.476 L -0.269 -0.495 L -0.211 -0.516 L -0.157 -0.539 L -0.106 -0.565 L -0.058 -0.593 L -0.013 -0.624 L 0.030 -0.657 L 0.072 -0.692 L 0.112 -0.729 L 0.153 -0.767 L 0.192 -0.808 L 0.233 -0.849 L 0.274 -0.892 L 0.316 -0.936 L 0.360 -0.980 L 0.405 -1.024 L 0.453 -1.068 L 0.504 -1.112 L 0.557 -1.154 L 0.613 -1.195 L 0.671 -1.234 L 0.733 -1.271 L 0.798 -1.306 L 0.866 -1.337 L 0.937 -1.365 L 1.011 -1.388 L 1.088 -1.408 L 1.167 -1.422 L 1.248 -1.432 L 1.331 -1.436 L 1.415 -1.434 L 1.500 -1.426 L 1.586 -1.412 L 1.671 -1.391 L 1.756 -1.364 L 1.840 -1.330 L 1.923 -1.289 L 2.003 -1.242 L 2.081 -1.189 L 2.155 -1.129 L 2.225 -1.062 L 2.291 -0.990 L 2.352 -0.913 L 2.408 -0.830 L 2.459 -0.742 L 2.503 -0.650 L 2.541 -0.553 L 2.572 -0.454 L 2.597 -0.351 L 2.615 -0.246 L 2.626 -0.139 L 2.630 -0.030 L 2.626 0.080 L 2.616 0.190 L 2.599 0.300 L 2.575 0.409 L 2.545 0.518 L 2.508 0.625 L 2.465 0.730 L 2.416 0.833 L 2.361 0.933 L 2.301 1.031 L 2.236 1.124 L 2.167 1.215 L 2.093 1.301 L 2.016 1.383 L 1.934 1.460 L 1.850 1.533 L 1.763 1.601 L 1.674 1.664 L 1.583 1.721 L 1.490 1.774 L 1.397 1.820 L 1.302 1.861 L 1.207 1.897 L 1.112 1.926 L 1.018 1.950 L 0.924 1.968 L 0.832 1.980 L 0.741 1.987 L 0.652 1.987 L 0.565 1.982 L 0.480 1.972 L 0.399 1.956 L 0.320 1.934 L 0.244 1.907 L 0.172 1.876 L 0.104 1.839 L 0.039 1.799 L -0.022 1.753 L -0.079 1.704 L -0.133 1.652 L -0.182 1.596 L -0.228 1.537 L -0.270 1.475 L -0.309 1.412 L -0.345 1.346 L -0.377 1.279 L -0.407 1.211 L -0.434 1.142 L -0.459 1.073 L -0.483 1.004 L -0.505 0.935 L -0.526 0.867 L -0.547 0.799 L -0.567 0.732 L -0.588 0.667 L -0.609 0.602 L -0.630 0.540 L -0.653 0.478 L -0.677 0.418 L -0.703 0.360 L -0.731 0.303 L -0.761 0.248 L -0.793 0.193 L -0.828 0.140 L -0.864 0.089 L -0.904 0.038 L -0.946 -0.012 L -0.990 -0.062 L -1.037 -0.111 L -1.086 -0.160 L -1.138 -0.208 L -1.191 -0.257 L -1.247 -0.306 L -1.304 -0.356 L -1.363 -0.406 L -1.424 -0.457 L -1.485 -0.509 L -1.548 -0.563 L -1.611 -0.617 L -1.674 -0.673 L -1.737 -0.730 L -1.800 -0.789 L -1.862 -0.850 L -1.923 -0.912 L -1.982 -0.976 L -2.039 -1.041 L -2.094 -1.108 L -2.147 -1.177 L -2.195 -1.247 L -2.240 -1.319 L -2.281 -1.392 L -2.317 -1.465 L -2.347 -1.540 L -2.372 -1.615 L -2.390 -1.690 L -2.401 -1.764 L -2.405 -1.838 L -2.401 -1.911 L -2.388 -1.982 L -2.366 -2.051 L -2.335 -2.118 L -2.295 -2.180 L -2.244 -2.239 L -2.183 -2.292 L -2.112 -2.341 L -2.031 -2.383 L -1.940 -2.418 L -1.839 -2.446" class="knot-stroke" stroke-width="0.55" fill="none" stroke-linecap="round" stroke-linejoin="round" />
  </g>
</svg>
