<svg viewBox="-4 -4 8 8" width="64" height="64" xmlns="http://www.w3.org/2000/svg">
  <style>
    .knot-stroke { stroke: black; }
    .knot-halo   { stroke: white; }
    @media (prefers-color-scheme: dark) {
      .knot-stroke { stroke: white; }
      .knot-halo   { stroke: black; }
    }
  </style>
  <g>
    <path d="M -3.088 -0.882 L -3.087 -0.929 L -3.077 -0.975 L -3.056 -1.018 L -3.025 -1.059 L -2.984 -1.097 L -2.931 -1.131 L -2.869 -1.162 L -2.795 -1.189 L -2.712 -1.211 L -2.619 -1.228 L -2.516 -1.240 L -2.405 -1.247 L -2.286 -1.248 L -2.160 -1.243 L -2.029 -1.233 L -1.893 -1.218 L -1.753 -1.197 L -1.611 -1.172 L -1.468 -1.142 L -1.326 -1.108 L -1.184 -1.071 L -1.045 -1.030 L -0.910 -0.988 L -0.779 -0.944 L -0.654 -0.899 L -0.534 -0.853 L -0.421 -0.808 L -0.314 -0.764 L -0.215 -0.721 L -0.123 -0.680 L -0.038 -0.642 L 0.039 -0.606 L 0.110 -0.573 L 0.174 -0.544 L 0.232 -0.519 L 0.284 -0.498 L 0.331 -0.480 L 0.372 -0.467 L 0.410 -0.457 L 0.443 -0.452 L 0.474 -0.451 L 0.501 -0.453 L 0.527 -0.459 L 0.551 -0.468 L 0.574 -0.481 L 0.596 -0.496 L 0.619 -0.515 L 0.641 -0.535 L 0.665 -0.557 L 0.689 -0.581 L 0.716 -0.606 L 0.743 -0.632 L 0.773 -0.658 L 0.805 -0.684 L 0.839 -0.709 L 0.876 -0.734 L 0.915 -0.757 L 0.956 -0.779 L 1.000 -0.798 L 1.046 -0.815 L 1.094 -0.828 L 1.144 -0.838 L 1.195 -0.845 L 1.248 -0.847 L 1.302 -0.845 L 1.357 -0.839 L 1.412 -0.828 L 1.467 -0.811 L 1.521 -0.790 L 1.575 -0.763 L 1.627 -0.732 L 1.677 -0.695 L 1.725 -0.652 L 1.770 -0.605 L 1.813 -0.553 L 1.851 -0.496 L 1.886 -0.434 L 1.917 -0.368 L 1.943 -0.298 L 1.965 -0.225 L 1.981 -0.148 L 1.993 -0.068 L 1.999 0.015 L 1.999 0.100 L 1.994 0.187 L 1.983 0.275 L 1.967 0.365 L 1.945 0.455 L 1.918 0.546 L 1.885 0.636 L 1.847 0.727 L 1.804 0.816 L 1.756 0.905 L 1.703 0.992 L 1.645 1.077 L 1.583 1.160 L 1.517 1.242 L 1.448 1.320 L 1.374 1.396 L 1.298 1.469 L 1.218 1.538 L 1.136 1.604 L 1.052 1.667 L 0.966 1.725 L 0.878 1.780 L 0.788 1.830 L 0.698 1.876 L 0.607 1.918 L 0.516 1.955 L 0.425 1.987 L 0.335 2.015 L 0.245 2.037 L 0.157 2.055 L 0.070 2.068 L -0.016 2.076 L -0.099 2.078 L -0.179 2.076 L -0.256 2.068 L -0.331 2.055 L -0.402 2.037 L -0.469 2.015 L -0.532 1.987 L -0.591 1.955 L -0.646 1.918 L -0.697 1.877 L -0.742 1.831 L -0.784 1.781 L -0.820 1.728 L -0.852 1.671 L -0.879 1.611 L -0.903 1.547 L -0.921 1.482 L -0.936 1.413 L -0.948 1.343 L -0.956 1.271 L -0.961 1.198 L -0.963 1.124 L -0.964 1.049 L -0.962 0.973 L -0.959 0.897 L -0.956 0.822 L -0.952 0.746 L -0.948 0.672 L -0.944 0.597 L -0.941 0.524 L -0.940 0.451 L -0.939 0.379 L -0.941 0.307 L -0.944 0.237 L -0.950 0.167 L -0.958 0.099 L -0.968 0.030 L -0.981 -0.037 L -0.997 -0.105 L -1.014 -0.172 L -1.035 -0.238 L -1.057 -0.305 L -1.082 -0.372 L -1.109 -0.440 L -1.137 -0.508 L -1.167 -0.576 L -1.199 -0.646 L -1.231 -0.716 L -1.265 -0.787 L -1.298 -0.860 L -1.332 -0.933 L -1.365 -1.008 L -1.398 -1.085 L -1.430 -1.163 L -1.460 -1.242 L -1.488 -1.323 L -1.514 -1.405 L -1.537 -1.488 L -1.556 -1.572 L -1.572 -1.658 L -1.583 -1.744 L -1.590 -1.831 L -1.591 -1.919 L -1.587 -2.006 L -1.576 -2.093 L -1.559 -2.179 L -1.534 -2.264 L -1.502 -2.347 L -1.462 -2.429 L -1.414 -2.507 L -1.357 -2.582 L -1.292 -2.652 L -1.218 -2.718 L -1.134 -2.778 L -1.042 -2.832 L -0.941 -2.879 L -0.831 -2.918 L -0.713 -2.948 L -0.587 -2.970 L -0.455 -2.981 L -0.316 -2.983 L -0.171 -2.973 L -0.022 -2.952 L 0.130 -2.921 L 0.285 -2.877 L 0.440 -2.823 L 0.595 -2.757 L 0.749 -2.680 L 0.900 -2.593 L 1.046 -2.497 L 1.187 -2.391 L 1.322 -2.278 L 1.449 -2.158 L 1.567 -2.031 L 1.676 -1.900 L 1.775 -1.765 L 1.864 -1.627 L 1.941 -1.488 L 2.008 -1.349 L 2.063 -1.210 L 2.107 -1.073 L 2.141 -0.939 L 2.164 -0.809 L 2.176 -0.683 L 2.180 -0.562 L 2.174 -0.447 L 2.160 -0.338 L 2.138 -0.235 L 2.109 -0.140 L 2.074 -0.052 L 2.033 0.029 L 1.987 0.103 L 1.938 0.169 L 1.885 0.227 L 1.829 0.279 L 1.772 0.323 L 1.713 0.360 L 1.653 0.390 L 1.593 0.414 L 1.533 0.432 L 1.474 0.445 L 1.417 0.452 L 1.361 0.454 L 1.307 0.451 L 1.255 0.444 L 1.206 0.434 L 1.160 0.421 L 1.116 0.404 L 1.076 0.386 L 1.039 0.366 L 1.004 0.345 L 0.973 0.323 L 0.945 0.300 L 0.920 0.278 L 0.897 0.256 L 0.878 0.236 L 0.860 0.216 L 0.844 0.199 L 0.831 0.183 L 0.818 0.170 L 0.807 0.159 L 0.797 0.152 L 0.787 0.147 L 0.777 0.145 L 0.767 0.147 L 0.756 0.152 L 0.745 0.160 L 0.732 0.172 L 0.717 0.186 L 0.701 0.205 L 0.682 0.226 L 0.661 0.250 L 0.638 0.277 L 0.611 0.306 L 0.582 0.339 L 0.549 0.373 L 0.513 0.409 L 0.473 0.447 L 0.430 0.487 L 0.384 0.528 L 0.334 0.570 L 0.281 0.613 L 0.224 0.656 L 0.164 0.700 L 0.100 0.744 L 0.033 0.787 L -0.037 0.831 L -0.110 0.873 L -0.185 0.915 L -0.264 0.956 L -0.344 0.996 L -0.428 1.035 L -0.513 1.072 L -0.600 1.107 L -0.689 1.141 L -0.779 1.173 L -0.870 1.202 L -0.962 1.230 L -1.054 1.255 L -1.147 1.277 L -1.240 1.297 L -1.332 1.315 L -1.424 1.330 L -1.514 1.342 L -1.603 1.351 L -1.690 1.357 L -1.774 1.360 L -1.856 1.360 L -1.935 1.357 L -2.010 1.351 L -2.082 1.342 L -2.148 1.330 L -2.210 1.315 L -2.267 1.297 L -2.318 1.276 L -2.362 1.252 L -2.400 1.225 L -2.432 1.195 L -2.456 1.163 L -2.472 1.128 L -2.481 1.091 L -2.483 1.051 L -2.476 1.010 L -2.461 0.966 L -2.439 0.921 L -2.409 0.874 L -2.371 0.826 L -2.327 0.777 L -2.276 0.727 L -2.219 0.677 L -2.156 0.625 L -2.088 0.574 L -2.016 0.522 L -1.941 0.470 L -1.863 0.418 L -1.782 0.366 L -1.701 0.315 L -1.619 0.263 L -1.537 0.212 L -1.456 0.161 L -1.377 0.110 L -1.299 0.059 L -1.224 0.008 L -1.152 -0.044 L -1.082 -0.095 L -1.017 -0.147 L -0.954 -0.199 L -0.895 -0.252 L -0.840 -0.306 L -0.788 -0.360 L -0.739 -0.415 L -0.694 -0.472 L -0.651 -0.529 L -0.611 -0.588 L -0.573 -0.648 L -0.537 -0.710 L -0.502 -0.772 L -0.469 -0.836 L -0.436 -0.901 L -0.403 -0.967 L -0.370 -1.035 L -0.337 -1.103 L -0.302 -1.172 L -0.265 -1.241 L -0.227 -1.312 L -0.186 -1.382 L -0.142 -1.452 L -0.095 -1.522 L -0.044 -1.591 L 0.010 -1.659 L 0.069 -1.726 L 0.132 -1.790 L 0.200 -1.853 L 0.273 -1.912 L 0.350 -1.969 L 0.433 -2.021 L 0.520 -2.069 L 0.612 -2.113 L 0.709 -2.151 L 0.810 -2.183 L 0.916 -2.209 L 1.025 -2.228 L 1.138 -2.240 L 1.253 -2.245 L 1.371 -2.241 L 1.490 -2.229 L 1.610 -2.208 L 1.731 -2.179 L 1.851 -2.141 L 1.970 -2.094 L 2.087 -2.039 L 2.201 -1.974 L 2.311 -1.902 L 2.417 -1.821 L 2.517 -1.732 L 2.612 -1.636 L 2.700 -1.534 L 2.780 -1.425 L 2.854 -1.311 L 2.918 -1.192 L 2.975 -1.068 L 3.022 -0.942 L 3.061 -0.812 L 3.090 -0.681 L 3.110 -0.548 L 3.121 -0.415 L 3.123 -0.283 L 3.116 -0.151 L 3.100 -0.021 L 3.075 0.106 L 3.043 0.231 L 3.002 0.353 L 2.954 0.470 L 2.900 0.583 L 2.839 0.692 L 2.772 0.795 L 2.699 0.892 L 2.621 0.984 L 2.540 1.069 L 2.454 1.149 L 2.365 1.222 L 2.273 1.288 L 2.178 1.348 L 2.082 1.401 L 1.985 1.447 L 1.887 1.486 L 1.788 1.518 L 1.689 1.544 L 1.591 1.564 L 1.494 1.576 L 1.399 1.583 L 1.305 1.583 L 1.213 1.578 L 1.123 1.566 L 1.036 1.550 L 0.952 1.528 L 0.870 1.502 L 0.793 1.471 L 0.718 1.436 L 0.647 1.397 L 0.579 1.355 L 0.515 1.310 L 0.455 1.263 L 0.397 1.213 L 0.343 1.162 L 0.293 1.110 L 0.245 1.057 L 0.200 1.003 L 0.157 0.950 L 0.117 0.897 L 0.078 0.845 L 0.041 0.793 L 0.005 0.743 L -0.030 0.695 L -0.064 0.648 L -0.098 0.604 L -0.133 0.561 L -0.168 0.520 L -0.203 0.482 L -0.240 0.446 L -0.278 0.413 L -0.318 0.381 L -0.359 0.352 L -0.403 0.325 L -0.449 0.300 L -0.497 0.276 L -0.548 0.255 L -0.601 0.234 L -0.657 0.216 L -0.715 0.198 L -0.776 0.181 L -0.840 0.165 L -0.906 0.149 L -0.975 0.133 L -1.046 0.118 L -1.120 0.103 L -1.196 0.087 L -1.274 0.071 L -1.353 0.054 L -1.435 0.036 L -1.518 0.017 L -1.602 -0.003 L -1.687 -0.024 L -1.773 -0.047 L -1.859 -0.071 L -1.946 -0.097 L -2.032 -0.124 L -2.118 -0.153 L -2.203 -0.184 L -2.287 -0.217 L -2.370 -0.252 L -2.450 -0.289 L -2.528 -0.327 L -2.603 -0.367 L -2.675 -0.409 L -2.742 -0.452 L -2.806 -0.497 L -2.864 -0.543 L -2.917 -0.591 L -2.964 -0.639 L -3.004 -0.687 L -3.037 -0.737 L -3.063 -0.786 L -3.080 -0.834 L -3.088 -0.882" class="knot-stroke" stroke-width="0.55" fill="none" stroke-linecap="round" stroke-linejoin="round" />
  </g>
</svg>
