<svg viewBox="-4 -4 8 8" width="64" height="64" xmlns="http://www.w3.org/2000/svg">
  <style>
    .knot-stroke { stroke: black; }
    .knot-halo   { stroke: white; }
    @media (prefers-color-scheme: dark) {
      .knot-stroke { stroke: white; }
      .knot-halo   { stroke: black; }
    }
  </style>
  <g>
    <path d="M -1.367 -2.655 L -1.238 -2.659 L -1.101 -2.653 L -0.959 -2.638 L -0.811 -2.611 L -0.660 -2.575 L -0.505 -2.528 L -0.350 -2.470 L -0.194 -2.404 L -0.040 -2.328 L 0.112 -2.243 L 0.260 -2.151 L 0.402 -2.052 L 0.539 -1.947 L 0.667 -1.837 L 0.788 -1.723 L 0.900 -1.607 L 1.002 -1.489 L 1.095 -1.371 L 1.177 -1.253 L 1.249 -1.137 L 1.311 -1.023 L 1.363 -0.913 L 1.405 -0.806 L 1.438 -0.705 L 1.462 -0.608 L 1.478 -0.517 L 1.486 -0.433 L 1.487 -0.354 L 1.482 -0.282 L 1.471 -0.217 L 1.456 -0.159 L 1.436 -0.107 L 1.413 -0.062 L 1.386 -0.023 L 1.358 0.009 L 1.328 0.036 L 1.298 0.056 L 1.266 0.071 L 1.235 0.081 L 1.205 0.087 L 1.175 0.088 L 1.147 0.085 L 1.121 0.078 L 1.096 0.069 L 1.074 0.057 L 1.055 0.043 L 1.038 0.027 L 1.023 0.010 L 1.011 -0.007 L 1.002 -0.025 L 0.996 -0.042 L 0.992 -0.059 L 0.991 -0.075 L 0.992 -0.089 L 0.995 -0.101 L 1.000 -0.111 L 1.007 -0.118 L 1.014 -0.123 L 1.023 -0.124 L 1.032 -0.122 L 1.041 -0.117 L 1.050 -0.108 L 1.059 -0.095 L 1.067 -0.079 L 1.073 -0.059 L 1.078 -0.035 L 1.081 -0.007 L 1.082 0.024 L 1.081 0.059 L 1.076 0.097 L 1.068 0.139 L 1.057 0.183 L 1.043 0.230 L 1.025 0.280 L 1.003 0.332 L 0.977 0.386 L 0.947 0.441 L 0.914 0.498 L 0.876 0.557 L 0.834 0.616 L 0.788 0.676 L 0.738 0.736 L 0.685 0.797 L 0.627 0.857 L 0.566 0.917 L 0.501 0.976 L 0.433 1.034 L 0.362 1.091 L 0.288 1.147 L 0.211 1.202 L 0.131 1.254 L 0.050 1.305 L -0.034 1.354 L -0.120 1.401 L -0.208 1.445 L -0.297 1.486 L -0.386 1.525 L -0.477 1.562 L -0.568 1.595 L -0.659 1.625 L -0.750 1.652 L -0.840 1.676 L -0.929 1.696 L -1.017 1.713 L -1.104 1.726 L -1.188 1.736 L -1.270 1.742 L -1.349 1.744 L -1.425 1.743 L -1.497 1.738 L -1.565 1.729 L -1.629 1.716 L -1.689 1.699 L -1.743 1.678 L -1.791 1.654 L -1.834 1.626 L -1.871 1.594 L -1.902 1.559 L -1.926 1.520 L -1.944 1.478 L -1.955 1.433 L -1.959 1.385 L -1.957 1.334 L -1.948 1.281 L -1.933 1.225 L -1.912 1.167 L -1.886 1.107 L -1.854 1.046 L -1.817 0.983 L -1.776 0.919 L -1.731 0.854 L -1.683 0.788 L -1.633 0.722 L -1.580 0.655 L -1.526 0.588 L -1.471 0.521 L -1.417 0.454 L -1.362 0.387 L -1.309 0.320 L -1.257 0.254 L -1.207 0.187 L -1.159 0.121 L -1.113 0.054 L -1.070 -0.012 L -1.030 -0.079 L -0.993 -0.145 L -0.958 -0.212 L -0.927 -0.280 L -0.898 -0.348 L -0.872 -0.416 L -0.849 -0.485 L -0.827 -0.555 L -0.808 -0.626 L -0.790 -0.698 L -0.774 -0.770 L -0.758 -0.844 L -0.743 -0.919 L -0.728 -0.995 L -0.713 -1.072 L -0.697 -1.151 L -0.680 -1.230 L -0.661 -1.310 L -0.640 -1.391 L -0.617 -1.472 L -0.591 -1.554 L -0.561 -1.636 L -0.527 -1.718 L -0.489 -1.799 L -0.447 -1.880 L -0.399 -1.959 L -0.346 -2.038 L -0.288 -2.114 L -0.224 -2.188 L -0.153 -2.258 L -0.077 -2.326 L 0.006 -2.389 L 0.096 -2.448 L 0.191 -2.502 L 0.293 -2.549 L 0.400 -2.591 L 0.514 -2.625 L 0.632 -2.652 L 0.755 -2.671 L 0.883 -2.681 L 1.014 -2.682 L 1.148 -2.674 L 1.284 -2.656 L 1.422 -2.628 L 1.559 -2.589 L 1.697 -2.541 L 1.832 -2.482 L 1.965 -2.414 L 2.095 -2.336 L 2.220 -2.248 L 2.339 -2.152 L 2.452 -2.048 L 2.558 -1.935 L 2.656 -1.816 L 2.745 -1.691 L 2.825 -1.561 L 2.896 -1.426 L 2.956 -1.288 L 3.006 -1.147 L 3.046 -1.005 L 3.075 -0.862 L 3.094 -0.719 L 3.103 -0.577 L 3.101 -0.437 L 3.090 -0.299 L 3.069 -0.165 L 3.040 -0.035 L 3.002 0.090 L 2.956 0.211 L 2.902 0.325 L 2.842 0.434 L 2.776 0.537 L 2.704 0.633 L 2.627 0.721 L 2.546 0.803 L 2.461 0.878 L 2.373 0.945 L 2.282 1.006 L 2.190 1.058 L 2.096 1.104 L 2.002 1.142 L 1.907 1.174 L 1.813 1.198 L 1.719 1.216 L 1.626 1.227 L 1.535 1.232 L 1.446 1.231 L 1.359 1.225 L 1.274 1.213 L 1.192 1.197 L 1.114 1.176 L 1.038 1.151 L 0.966 1.122 L 0.897 1.090 L 0.832 1.055 L 0.770 1.018 L 0.712 0.979 L 0.657 0.939 L 0.605 0.897 L 0.556 0.855 L 0.510 0.813 L 0.467 0.771 L 0.427 0.730 L 0.388 0.690 L 0.351 0.651 L 0.316 0.614 L 0.282 0.578 L 0.248 0.545 L 0.216 0.514 L 0.183 0.485 L 0.150 0.459 L 0.116 0.436 L 0.082 0.415 L 0.047 0.397 L 0.010 0.381 L -0.029 0.368 L -0.069 0.358 L -0.112 0.350 L -0.157 0.344 L -0.204 0.340 L -0.254 0.338 L -0.307 0.338 L -0.362 0.339 L -0.420 0.341 L -0.481 0.345 L -0.545 0.349 L -0.612 0.354 L -0.682 0.360 L -0.754 0.365 L -0.828 0.371 L -0.906 0.377 L -0.985 0.382 L -1.067 0.387 L -1.151 0.391 L -1.237 0.394 L -1.324 0.396 L -1.413 0.396 L -1.503 0.396 L -1.594 0.394 L -1.686 0.390 L -1.778 0.385 L -1.871 0.377 L -1.963 0.368 L -2.055 0.357 L -2.146 0.345 L -2.236 0.330 L -2.324 0.313 L -2.410 0.294 L -2.494 0.273 L -2.575 0.250 L -2.652 0.225 L -2.726 0.198 L -2.795 0.169 L -2.859 0.139 L -2.918 0.107 L -2.971 0.073 L -3.017 0.039 L -3.056 0.003 L -3.088 -0.033 L -3.111 -0.071 L -3.126 -0.108 L -3.132 -0.145 L -3.129 -0.183 L -3.116 -0.219 L -3.093 -0.255 L -3.060 -0.290 L -3.017 -0.323 L -2.964 -0.354 L -2.901 -0.384 L -2.828 -0.411 L -2.746 -0.435 L -2.656 -0.457 L -2.557 -0.476 L -2.452 -0.492 L -2.340 -0.505 L -2.223 -0.516 L -2.102 -0.523 L -1.977 -0.528 L -1.850 -0.530 L -1.722 -0.530 L -1.594 -0.527 L -1.467 -0.524 L -1.342 -0.519 L -1.220 -0.513 L -1.102 -0.506 L -0.987 -0.499 L -0.877 -0.493 L -0.773 -0.487 L -0.674 -0.482 L -0.581 -0.479 L -0.493 -0.477 L -0.411 -0.477 L -0.335 -0.480 L -0.264 -0.484 L -0.199 -0.491 L -0.138 -0.501 L -0.082 -0.514 L -0.029 -0.529 L 0.019 -0.547 L 0.065 -0.567 L 0.108 -0.591 L 0.149 -0.617 L 0.188 -0.645 L 0.226 -0.676 L 0.264 -0.708 L 0.301 -0.743 L 0.339 -0.779 L 0.377 -0.816 L 0.417 -0.854 L 0.458 -0.893 L 0.501 -0.932 L 0.546 -0.971 L 0.593 -1.010 L 0.643 -1.047 L 0.695 -1.084 L 0.750 -1.118 L 0.808 -1.150 L 0.869 -1.180 L 0.933 -1.207 L 0.999 -1.230 L 1.068 -1.249 L 1.139 -1.264 L 1.213 -1.275 L 1.288 -1.280 L 1.364 -1.280 L 1.442 -1.275 L 1.520 -1.264 L 1.598 -1.247 L 1.676 -1.224 L 1.753 -1.194 L 1.828 -1.158 L 1.902 -1.116 L 1.973 -1.068 L 2.042 -1.014 L 2.107 -0.954 L 2.168 -0.888 L 2.225 -0.817 L 2.276 -0.740 L 2.323 -0.659 L 2.364 -0.573 L 2.400 -0.483 L 2.429 -0.390 L 2.452 -0.294 L 2.469 -0.194 L 2.479 -0.093 L 2.482 0.010 L 2.479 0.114 L 2.469 0.219 L 2.452 0.324 L 2.430 0.430 L 2.400 0.534 L 2.365 0.638 L 2.323 0.740 L 2.276 0.840 L 2.224 0.938 L 2.166 1.033 L 2.103 1.126 L 2.036 1.215 L 1.965 1.300 L 1.889 1.382 L 1.811 1.460 L 1.729 1.534 L 1.644 1.603 L 1.557 1.668 L 1.467 1.727 L 1.377 1.782 L 1.284 1.832 L 1.191 1.876 L 1.098 1.915 L 1.004 1.948 L 0.910 1.976 L 0.817 1.998 L 0.725 2.015 L 0.635 2.026 L 0.546 2.031 L 0.459 2.031 L 0.374 2.025 L 0.292 2.014 L 0.213 1.997 L 0.137 1.976 L 0.064 1.948 L -0.005 1.916 L -0.070 1.880 L -0.132 1.838 L -0.190 1.793 L -0.243 1.743 L -0.293 1.690 L -0.339 1.633 L -0.380 1.573 L -0.418 1.511 L -0.453 1.446 L -0.484 1.379 L -0.512 1.311 L -0.537 1.241 L -0.560 1.171 L -0.580 1.099 L -0.599 1.028 L -0.616 0.956 L -0.632 0.885 L -0.648 0.815 L -0.663 0.745 L -0.678 0.676 L -0.694 0.608 L -0.710 0.542 L -0.728 0.477 L -0.747 0.413 L -0.768 0.350 L -0.791 0.289 L -0.816 0.229 L -0.843 0.170 L -0.872 0.113 L -0.904 0.056 L -0.938 0.000 L -0.975 -0.055 L -1.015 -0.110 L -1.056 -0.164 L -1.100 -0.219 L -1.147 -0.273 L -1.195 -0.328 L -1.245 -0.382 L -1.297 -0.438 L -1.350 -0.494 L -1.405 -0.551 L -1.460 -0.609 L -1.517 -0.669 L -1.573 -0.729 L -1.630 -0.791 L -1.686 -0.855 L -1.742 -0.920 L -1.796 -0.987 L -1.849 -1.055 L -1.900 -1.125 L -1.949 -1.197 L -1.995 -1.270 L -2.038 -1.344 L -2.078 -1.420 L -2.113 -1.497 L -2.143 -1.575 L -2.168 -1.654 L -2.187 -1.733 L -2.200 -1.812 L -2.206 -1.891 L -2.205 -1.969 L -2.196 -2.046 L -2.179 -2.121 L -2.153 -2.194 L -2.118 -2.265 L -2.073 -2.331 L -2.019 -2.394 L -1.955 -2.451 L -1.881 -2.503 L -1.797 -2.549 L -1.703 -2.588 L -1.600 -2.619 L -1.488 -2.641 L -1.367 -2.655" class="knot-stroke" stroke-width="0.55" fill="none" stroke-linecap="round" stroke-linejoin="round" />
  </g>
</svg>
