<svg viewBox="-4 -4 8 8" width="64" height="64" xmlns="http://www.w3.org/2000/svg">
  <style>
    .knot-stroke { stroke: black; }
    .knot-halo   { stroke: white; }
    @media (prefers-color-scheme: dark) {
      .knot-stroke { stroke: white; }
      .knot-halo   { stroke: black; }
    }
  </style>
  <g>
    <path d="M -2.995 -1.223 L -2.974 -1.270 L -2.943 -1.315 L -2.901 -1.356 L -2.848 -1.394 L -2.785 -1.427 L -2.711 -1.456 L -2.626 -1.479 L -2.532 -1.497 L -2.428 -1.509 L -2.316 -1.514 L -2.195 -1.514 L -2.067 -1.506 L -1.933 -1.493 L -1.795 -1.472 L -1.652 -1.446 L -1.507 -1.414 L -1.360 -1.376 L -1.214 -1.334 L -1.069 -1.287 L -0.926 -1.236 L -0.787 -1.182 L -0.653 -1.126 L -0.523 -1.068 L -0.400 -1.009 L -0.284 -0.950 L -0.175 -0.892 L -0.074 -0.835 L 0.020 -0.780 L 0.106 -0.727 L 0.184 -0.677 L 0.255 -0.630 L 0.319 -0.587 L 0.375 -0.548 L 0.426 -0.513 L 0.470 -0.482 L 0.509 -0.456 L 0.542 -0.435 L 0.572 -0.418 L 0.598 -0.405 L 0.620 -0.397 L 0.640 -0.393 L 0.658 -0.393 L 0.675 -0.396 L 0.690 -0.404 L 0.706 -0.414 L 0.721 -0.428 L 0.736 -0.444 L 0.753 -0.462 L 0.771 -0.482 L 0.790 -0.503 L 0.811 -0.525 L 0.834 -0.548 L 0.859 -0.571 L 0.886 -0.594 L 0.916 -0.615 L 0.948 -0.636 L 0.983 -0.655 L 1.020 -0.672 L 1.059 -0.687 L 1.100 -0.699 L 1.142 -0.707 L 1.186 -0.712 L 1.232 -0.713 L 1.278 -0.710 L 1.325 -0.703 L 1.372 -0.691 L 1.419 -0.675 L 1.466 -0.653 L 1.511 -0.627 L 1.555 -0.596 L 1.597 -0.559 L 1.637 -0.518 L 1.674 -0.472 L 1.708 -0.422 L 1.739 -0.367 L 1.766 -0.308 L 1.788 -0.245 L 1.807 -0.178 L 1.821 -0.108 L 1.830 -0.034 L 1.834 0.042 L 1.833 0.121 L 1.827 0.201 L 1.816 0.284 L 1.799 0.368 L 1.777 0.453 L 1.750 0.538 L 1.717 0.624 L 1.680 0.709 L 1.637 0.795 L 1.590 0.879 L 1.538 0.963 L 1.482 1.045 L 1.421 1.126 L 1.357 1.204 L 1.288 1.281 L 1.216 1.355 L 1.141 1.426 L 1.063 1.495 L 0.982 1.560 L 0.899 1.622 L 0.814 1.681 L 0.727 1.736 L 0.639 1.787 L 0.549 1.834 L 0.459 1.878 L 0.369 1.916 L 0.278 1.951 L 0.188 1.981 L 0.098 2.007 L 0.010 2.027 L -0.077 2.044 L -0.163 2.055 L -0.246 2.061 L -0.327 2.063 L -0.406 2.060 L -0.481 2.051 L -0.553 2.038 L -0.621 2.020 L -0.685 1.997 L -0.745 1.970 L -0.801 1.938 L -0.852 1.901 L -0.898 1.860 L -0.939 1.814 L -0.976 1.765 L -1.007 1.712 L -1.034 1.656 L -1.056 1.596 L -1.074 1.533 L -1.087 1.468 L -1.096 1.400 L -1.100 1.330 L -1.102 1.258 L -1.100 1.185 L -1.096 1.111 L -1.089 1.036 L -1.080 0.960 L -1.070 0.884 L -1.059 0.808 L -1.047 0.732 L -1.036 0.657 L -1.024 0.582 L -1.014 0.507 L -1.005 0.433 L -0.997 0.360 L -0.991 0.287 L -0.987 0.215 L -0.985 0.144 L -0.985 0.073 L -0.988 0.003 L -0.994 -0.067 L -1.002 -0.136 L -1.012 -0.206 L -1.025 -0.275 L -1.040 -0.345 L -1.058 -0.415 L -1.077 -0.485 L -1.098 -0.556 L -1.121 -0.627 L -1.144 -0.700 L -1.169 -0.773 L -1.194 -0.848 L -1.220 -0.923 L -1.245 -1.000 L -1.270 -1.078 L -1.294 -1.158 L -1.316 -1.239 L -1.337 -1.321 L -1.355 -1.404 L -1.371 -1.489 L -1.384 -1.575 L -1.393 -1.661 L -1.398 -1.749 L -1.398 -1.837 L -1.394 -1.925 L -1.383 -2.014 L -1.367 -2.102 L -1.345 -2.189 L -1.315 -2.275 L -1.278 -2.359 L -1.234 -2.441 L -1.182 -2.521 L -1.121 -2.597 L -1.052 -2.668 L -0.975 -2.735 L -0.889 -2.797 L -0.794 -2.852 L -0.691 -2.901 L -0.580 -2.941 L -0.461 -2.974 L -0.335 -2.997 L -0.202 -3.011 L -0.063 -3.014 L 0.081 -3.007 L 0.229 -2.988 L 0.380 -2.959 L 0.534 -2.918 L 0.688 -2.865 L 0.842 -2.802 L 0.994 -2.727 L 1.144 -2.642 L 1.289 -2.546 L 1.429 -2.442 L 1.562 -2.329 L 1.687 -2.208 L 1.804 -2.081 L 1.912 -1.948 L 2.010 -1.811 L 2.097 -1.671 L 2.173 -1.529 L 2.239 -1.386 L 2.292 -1.243 L 2.335 -1.101 L 2.367 -0.961 L 2.387 -0.824 L 2.398 -0.692 L 2.398 -0.564 L 2.389 -0.441 L 2.372 -0.324 L 2.346 -0.214 L 2.313 -0.110 L 2.273 -0.014 L 2.227 0.075 L 2.176 0.157 L 2.120 0.231 L 2.061 0.298 L 1.998 0.357 L 1.934 0.409 L 1.867 0.453 L 1.799 0.490 L 1.731 0.521 L 1.663 0.545 L 1.595 0.562 L 1.528 0.574 L 1.463 0.581 L 1.399 0.582 L 1.338 0.578 L 1.279 0.571 L 1.223 0.559 L 1.170 0.544 L 1.119 0.527 L 1.072 0.506 L 1.028 0.484 L 0.987 0.461 L 0.950 0.437 L 0.915 0.412 L 0.884 0.387 L 0.855 0.362 L 0.829 0.339 L 0.806 0.316 L 0.784 0.295 L 0.765 0.276 L 0.747 0.259 L 0.730 0.245 L 0.714 0.233 L 0.699 0.224 L 0.683 0.218 L 0.668 0.215 L 0.652 0.215 L 0.635 0.219 L 0.617 0.226 L 0.598 0.236 L 0.577 0.249 L 0.553 0.265 L 0.528 0.284 L 0.500 0.305 L 0.469 0.329 L 0.435 0.356 L 0.398 0.385 L 0.358 0.415 L 0.315 0.448 L 0.269 0.482 L 0.219 0.517 L 0.165 0.553 L 0.109 0.590 L 0.049 0.628 L -0.014 0.666 L -0.081 0.704 L -0.150 0.741 L -0.222 0.779 L -0.298 0.816 L -0.376 0.852 L -0.456 0.887 L -0.539 0.921 L -0.624 0.954 L -0.710 0.986 L -0.799 1.016 L -0.889 1.044 L -0.980 1.070 L -1.072 1.094 L -1.165 1.116 L -1.258 1.136 L -1.352 1.154 L -1.445 1.169 L -1.537 1.181 L -1.629 1.192 L -1.719 1.199 L -1.807 1.204 L -1.893 1.206 L -1.977 1.205 L -2.058 1.201 L -2.136 1.195 L -2.209 1.185 L -2.279 1.173 L -2.343 1.158 L -2.402 1.140 L -2.456 1.120 L -2.504 1.097 L -2.545 1.071 L -2.579 1.043 L -2.606 1.012 L -2.625 0.979 L -2.636 0.944 L -2.640 0.907 L -2.635 0.869 L -2.621 0.829 L -2.600 0.787 L -2.570 0.744 L -2.532 0.700 L -2.487 0.655 L -2.434 0.610 L -2.374 0.564 L -2.308 0.518 L -2.236 0.472 L -2.159 0.426 L -2.078 0.380 L -1.993 0.334 L -1.906 0.289 L -1.817 0.244 L -1.726 0.199 L -1.636 0.155 L -1.545 0.110 L -1.456 0.066 L -1.369 0.023 L -1.283 -0.021 L -1.201 -0.065 L -1.122 -0.109 L -1.046 -0.154 L -0.973 -0.199 L -0.905 -0.244 L -0.840 -0.291 L -0.779 -0.338 L -0.721 -0.386 L -0.668 -0.436 L -0.617 -0.486 L -0.570 -0.538 L -0.525 -0.592 L -0.483 -0.647 L -0.442 -0.703 L -0.404 -0.760 L -0.366 -0.819 L -0.329 -0.880 L -0.292 -0.941 L -0.256 -1.004 L -0.218 -1.067 L -0.179 -1.132 L -0.139 -1.197 L -0.097 -1.262 L -0.053 -1.328 L -0.005 -1.393 L 0.045 -1.458 L 0.099 -1.522 L 0.156 -1.584 L 0.218 -1.645 L 0.283 -1.704 L 0.353 -1.761 L 0.428 -1.815 L 0.506 -1.865 L 0.590 -1.911 L 0.678 -1.953 L 0.770 -1.989 L 0.866 -2.021 L 0.966 -2.046 L 1.069 -2.065 L 1.176 -2.078 L 1.285 -2.083 L 1.396 -2.081 L 1.509 -2.071 L 1.623 -2.053 L 1.737 -2.027 L 1.851 -1.992 L 1.963 -1.949 L 2.074 -1.898 L 2.182 -1.838 L 2.287 -1.771 L 2.387 -1.695 L 2.483 -1.612 L 2.573 -1.522 L 2.657 -1.426 L 2.734 -1.323 L 2.805 -1.215 L 2.867 -1.102 L 2.922 -0.984 L 2.968 -0.863 L 3.005 -0.739 L 3.034 -0.613 L 3.055 -0.485 L 3.066 -0.357 L 3.069 -0.228 L 3.063 -0.100 L 3.048 0.027 L 3.026 0.152 L 2.995 0.275 L 2.957 0.395 L 2.912 0.512 L 2.859 0.625 L 2.801 0.733 L 2.736 0.837 L 2.666 0.936 L 2.591 1.029 L 2.511 1.117 L 2.428 1.199 L 2.340 1.275 L 2.250 1.345 L 2.157 1.408 L 2.062 1.465 L 1.966 1.516 L 1.868 1.560 L 1.770 1.597 L 1.671 1.627 L 1.573 1.652 L 1.475 1.669 L 1.378 1.681 L 1.283 1.686 L 1.190 1.685 L 1.098 1.678 L 1.009 1.665 L 0.923 1.647 L 0.839 1.624 L 0.759 1.596 L 0.682 1.564 L 0.608 1.527 L 0.538 1.486 L 0.471 1.442 L 0.408 1.395 L 0.348 1.346 L 0.292 1.294 L 0.239 1.240 L 0.189 1.185 L 0.142 1.128 L 0.098 1.072 L 0.056 1.014 L 0.017 0.958 L -0.021 0.901 L -0.057 0.846 L -0.091 0.791 L -0.125 0.738 L -0.158 0.686 L -0.191 0.637 L -0.225 0.589 L -0.258 0.543 L -0.293 0.499 L -0.328 0.458 L -0.365 0.418 L -0.404 0.381 L -0.444 0.345 L -0.487 0.312 L -0.531 0.281 L -0.578 0.251 L -0.628 0.223 L -0.680 0.196 L -0.734 0.170 L -0.791 0.146 L -0.851 0.122 L -0.914 0.099 L -0.979 0.076 L -1.046 0.054 L -1.116 0.031 L -1.187 0.008 L -1.261 -0.015 L -1.337 -0.038 L -1.415 -0.062 L -1.494 -0.087 L -1.575 -0.114 L -1.656 -0.141 L -1.739 -0.170 L -1.822 -0.200 L -1.905 -0.232 L -1.988 -0.265 L -2.071 -0.300 L -2.153 -0.337 L -2.234 -0.376 L -2.314 -0.416 L -2.392 -0.458 L -2.467 -0.502 L -2.540 -0.548 L -2.609 -0.596 L -2.675 -0.645 L -2.736 -0.695 L -2.793 -0.747 L -2.844 -0.799 L -2.889 -0.853 L -2.928 -0.907 L -2.960 -0.961 L -2.984 -1.015 L -3.000 -1.069 L -3.008 -1.122 L -3.006 -1.173 L -2.995 -1.223" class="knot-stroke" stroke-width="0.55" fill="none" stroke-linecap="round" stroke-linejoin="round" />
  </g>
</svg>
