<svg viewBox="-4 -4 8 8" width="64" height="64" xmlns="http://www.w3.org/2000/svg">
  <style>
    .knot-stroke { stroke: black; }
    .knot-halo   { stroke: white; }
    @media (prefers-color-scheme: dark) {
      .knot-stroke { stroke: white; }
      .knot-halo   { stroke: black; }
    }
  </style>
  <g>
    <path d="M -2.420 -2.039 L -2.342 -2.076 L -2.254 -2.106 L -2.157 -2.129 L -2.049 -2.144 L -1.932 -2.152 L -1.808 -2.151 L -1.675 -2.142 L -1.537 -2.124 L -1.393 -2.097 L -1.245 -2.062 L -1.094 -2.018 L -0.941 -1.967 L -0.788 -1.908 L -0.637 -1.842 L -0.488 -1.769 L -0.342 -1.692 L -0.202 -1.609 L -0.067 -1.524 L 0.061 -1.435 L 0.181 -1.345 L 0.293 -1.254 L 0.397 -1.163 L 0.491 -1.073 L 0.577 -0.984 L 0.654 -0.899 L 0.721 -0.816 L 0.780 -0.738 L 0.831 -0.663 L 0.874 -0.594 L 0.909 -0.529 L 0.937 -0.470 L 0.959 -0.417 L 0.976 -0.369 L 0.987 -0.327 L 0.994 -0.290 L 0.997 -0.259 L 0.997 -0.234 L 0.995 -0.214 L 0.991 -0.199 L 0.985 -0.189 L 0.979 -0.183 L 0.972 -0.182 L 0.966 -0.184 L 0.960 -0.190 L 0.956 -0.199 L 0.953 -0.210 L 0.951 -0.224 L 0.952 -0.239 L 0.954 -0.256 L 0.959 -0.274 L 0.966 -0.292 L 0.976 -0.310 L 0.988 -0.328 L 1.003 -0.344 L 1.019 -0.359 L 1.039 -0.373 L 1.060 -0.384 L 1.083 -0.393 L 1.107 -0.398 L 1.133 -0.401 L 1.160 -0.400 L 1.187 -0.396 L 1.215 -0.387 L 1.242 -0.375 L 1.270 -0.358 L 1.296 -0.337 L 1.321 -0.312 L 1.345 -0.283 L 1.366 -0.249 L 1.385 -0.211 L 1.402 -0.169 L 1.415 -0.123 L 1.425 -0.074 L 1.432 -0.021 L 1.435 0.036 L 1.434 0.095 L 1.428 0.157 L 1.419 0.222 L 1.404 0.289 L 1.386 0.357 L 1.362 0.427 L 1.334 0.499 L 1.302 0.571 L 1.265 0.644 L 1.223 0.717 L 1.177 0.791 L 1.127 0.864 L 1.072 0.936 L 1.014 1.008 L 0.951 1.078 L 0.885 1.147 L 0.816 1.215 L 0.743 1.281 L 0.668 1.344 L 0.589 1.406 L 0.508 1.465 L 0.425 1.522 L 0.340 1.575 L 0.254 1.626 L 0.165 1.673 L 0.076 1.718 L -0.013 1.759 L -0.104 1.796 L -0.194 1.830 L -0.284 1.860 L -0.373 1.886 L -0.461 1.908 L -0.548 1.926 L -0.634 1.939 L -0.717 1.949 L -0.798 1.954 L -0.876 1.955 L -0.951 1.952 L -1.022 1.944 L -1.090 1.931 L -1.153 1.914 L -1.212 1.893 L -1.266 1.868 L -1.315 1.838 L -1.359 1.804 L -1.397 1.766 L -1.430 1.724 L -1.457 1.678 L -1.479 1.629 L -1.494 1.576 L -1.505 1.520 L -1.509 1.462 L -1.509 1.400 L -1.503 1.336 L -1.493 1.270 L -1.478 1.202 L -1.459 1.132 L -1.437 1.061 L -1.412 0.989 L -1.384 0.917 L -1.355 0.843 L -1.324 0.770 L -1.292 0.696 L -1.259 0.622 L -1.227 0.548 L -1.196 0.474 L -1.165 0.401 L -1.136 0.328 L -1.108 0.255 L -1.082 0.183 L -1.059 0.111 L -1.038 0.039 L -1.020 -0.032 L -1.004 -0.103 L -0.991 -0.175 L -0.981 -0.246 L -0.973 -0.318 L -0.968 -0.390 L -0.965 -0.463 L -0.963 -0.536 L -0.964 -0.610 L -0.966 -0.684 L -0.969 -0.760 L -0.973 -0.837 L -0.978 -0.914 L -0.982 -0.993 L -0.986 -1.073 L -0.990 -1.154 L -0.992 -1.237 L -0.993 -1.320 L -0.991 -1.405 L -0.987 -1.490 L -0.980 -1.576 L -0.970 -1.663 L -0.956 -1.750 L -0.937 -1.838 L -0.914 -1.925 L -0.885 -2.012 L -0.851 -2.098 L -0.810 -2.183 L -0.764 -2.267 L -0.710 -2.348 L -0.650 -2.426 L -0.582 -2.502 L -0.507 -2.573 L -0.425 -2.640 L -0.335 -2.702 L -0.238 -2.758 L -0.133 -2.807 L -0.021 -2.850 L 0.097 -2.885 L 0.222 -2.911 L 0.352 -2.928 L 0.488 -2.936 L 0.628 -2.933 L 0.771 -2.920 L 0.917 -2.897 L 1.065 -2.862 L 1.213 -2.816 L 1.361 -2.760 L 1.507 -2.692 L 1.650 -2.614 L 1.789 -2.526 L 1.923 -2.428 L 2.051 -2.321 L 2.172 -2.206 L 2.284 -2.083 L 2.388 -1.954 L 2.482 -1.819 L 2.566 -1.680 L 2.640 -1.537 L 2.702 -1.392 L 2.754 -1.246 L 2.794 -1.099 L 2.824 -0.953 L 2.842 -0.809 L 2.850 -0.667 L 2.847 -0.528 L 2.835 -0.393 L 2.813 -0.263 L 2.782 -0.139 L 2.743 -0.020 L 2.697 0.092 L 2.644 0.197 L 2.584 0.296 L 2.519 0.387 L 2.450 0.471 L 2.376 0.547 L 2.299 0.616 L 2.219 0.677 L 2.136 0.730 L 2.053 0.776 L 1.968 0.815 L 1.883 0.847 L 1.798 0.872 L 1.714 0.890 L 1.631 0.902 L 1.550 0.909 L 1.470 0.909 L 1.393 0.905 L 1.318 0.895 L 1.247 0.881 L 1.178 0.863 L 1.112 0.842 L 1.050 0.818 L 0.991 0.791 L 0.935 0.762 L 0.883 0.731 L 0.834 0.699 L 0.788 0.666 L 0.746 0.634 L 0.706 0.601 L 0.669 0.569 L 0.634 0.537 L 0.602 0.507 L 0.572 0.479 L 0.543 0.453 L 0.515 0.428 L 0.488 0.406 L 0.462 0.387 L 0.436 0.370 L 0.409 0.357 L 0.383 0.346 L 0.355 0.338 L 0.326 0.333 L 0.296 0.331 L 0.264 0.332 L 0.231 0.335 L 0.195 0.341 L 0.156 0.350 L 0.115 0.360 L 0.072 0.373 L 0.025 0.388 L -0.024 0.405 L -0.077 0.423 L -0.132 0.442 L -0.190 0.462 L -0.252 0.484 L -0.317 0.506 L -0.384 0.528 L -0.454 0.550 L -0.528 0.573 L -0.604 0.595 L -0.682 0.617 L -0.763 0.638 L -0.846 0.658 L -0.932 0.678 L -1.019 0.696 L -1.108 0.713 L -1.198 0.728 L -1.290 0.742 L -1.382 0.754 L -1.475 0.765 L -1.569 0.774 L -1.663 0.780 L -1.757 0.785 L -1.850 0.787 L -1.942 0.787 L -2.033 0.785 L -2.123 0.780 L -2.210 0.774 L -2.295 0.764 L -2.377 0.753 L -2.455 0.739 L -2.530 0.723 L -2.601 0.704 L -2.666 0.684 L -2.726 0.661 L -2.781 0.636 L -2.829 0.610 L -2.870 0.581 L -2.904 0.551 L -2.930 0.519 L -2.948 0.486 L -2.957 0.452 L -2.958 0.417 L -2.950 0.382 L -2.932 0.345 L -2.905 0.309 L -2.869 0.272 L -2.823 0.236 L -2.769 0.200 L -2.706 0.165 L -2.635 0.131 L -2.556 0.097 L -2.471 0.065 L -2.379 0.034 L -2.281 0.004 L -2.179 -0.024 L -2.074 -0.052 L -1.965 -0.078 L -1.855 -0.103 L -1.744 -0.127 L -1.633 -0.150 L -1.524 -0.172 L -1.415 -0.194 L -1.309 -0.215 L -1.207 -0.236 L -1.107 -0.258 L -1.012 -0.280 L -0.921 -0.302 L -0.835 -0.326 L -0.753 -0.350 L -0.676 -0.376 L -0.603 -0.403 L -0.535 -0.432 L -0.472 -0.462 L -0.412 -0.494 L -0.356 -0.529 L -0.303 -0.565 L -0.254 -0.603 L -0.207 -0.643 L -0.162 -0.684 L -0.119 -0.728 L -0.077 -0.774 L -0.035 -0.821 L 0.006 -0.869 L 0.048 -0.919 L 0.090 -0.970 L 0.133 -1.021 L 0.177 -1.073 L 0.224 -1.125 L 0.273 -1.178 L 0.324 -1.229 L 0.378 -1.280 L 0.436 -1.330 L 0.496 -1.378 L 0.560 -1.424 L 0.627 -1.468 L 0.698 -1.508 L 0.773 -1.545 L 0.851 -1.579 L 0.932 -1.608 L 1.016 -1.632 L 1.104 -1.652 L 1.194 -1.665 L 1.286 -1.673 L 1.380 -1.675 L 1.475 -1.670 L 1.572 -1.658 L 1.668 -1.639 L 1.765 -1.613 L 1.861 -1.580 L 1.955 -1.540 L 2.047 -1.492 L 2.137 -1.437 L 2.223 -1.376 L 2.306 -1.307 L 2.384 -1.232 L 2.457 -1.150 L 2.525 -1.063 L 2.587 -0.971 L 2.642 -0.873 L 2.691 -0.771 L 2.732 -0.666 L 2.766 -0.556 L 2.793 -0.445 L 2.813 -0.330 L 2.824 -0.215 L 2.828 -0.098 L 2.824 0.019 L 2.813 0.137 L 2.794 0.253 L 2.768 0.368 L 2.735 0.482 L 2.696 0.594 L 2.650 0.703 L 2.597 0.809 L 2.539 0.912 L 2.476 1.011 L 2.407 1.106 L 2.334 1.196 L 2.256 1.282 L 2.175 1.363 L 2.090 1.439 L 2.003 1.509 L 1.913 1.574 L 1.820 1.633 L 1.726 1.687 L 1.631 1.734 L 1.535 1.775 L 1.438 1.811 L 1.342 1.840 L 1.246 1.863 L 1.150 1.880 L 1.056 1.891 L 0.963 1.896 L 0.872 1.896 L 0.783 1.889 L 0.697 1.877 L 0.613 1.859 L 0.532 1.836 L 0.454 1.807 L 0.380 1.774 L 0.309 1.737 L 0.242 1.695 L 0.178 1.649 L 0.118 1.600 L 0.062 1.547 L 0.009 1.491 L -0.040 1.433 L -0.086 1.373 L -0.128 1.311 L -0.168 1.247 L -0.204 1.183 L -0.239 1.118 L -0.271 1.053 L -0.301 0.988 L -0.330 0.923 L -0.358 0.859 L -0.385 0.796 L -0.412 0.734 L -0.438 0.674 L -0.465 0.615 L -0.493 0.558 L -0.522 0.502 L -0.551 0.448 L -0.583 0.396 L -0.616 0.346 L -0.651 0.297 L -0.688 0.250 L -0.727 0.205 L -0.769 0.160 L -0.813 0.117 L -0.860 0.075 L -0.910 0.034 L -0.961 -0.006 L -1.016 -0.046 L -1.073 -0.085 L -1.132 -0.125 L -1.193 -0.164 L -1.256 -0.204 L -1.321 -0.245 L -1.388 -0.285 L -1.457 -0.327 L -1.526 -0.370 L -1.597 -0.413 L -1.669 -0.459 L -1.741 -0.505 L -1.813 -0.553 L -1.884 -0.602 L -1.956 -0.653 L -2.026 -0.706 L -2.096 -0.761 L -2.163 -0.817 L -2.229 -0.875 L -2.292 -0.935 L -2.352 -0.996 L -2.408 -1.059 L -2.461 -1.123 L -2.509 -1.188 L -2.552 -1.254 L -2.590 -1.321 L -2.621 -1.389 L -2.646 -1.457 L -2.664 -1.524 L -2.673 -1.591 L -2.675 -1.657 L -2.668 -1.721 L -2.652 -1.783 L -2.626 -1.842 L -2.590 -1.898 L -2.544 -1.950 L -2.487 -1.997 L -2.420 -2.039" class="knot-stroke" stroke-width="0.55" fill="none" stroke-linecap="round" stroke-linejoin="round" />
  </g>
</svg>
