<svg viewBox="-4 -4 8 8" width="64" height="64" xmlns="http://www.w3.org/2000/svg">
  <style>
    .knot-stroke { stroke: black; }
    .knot-halo   { stroke: white; }
    @media (prefers-color-scheme: dark) {
      .knot-stroke { stroke: white; }
      .knot-halo   { stroke: black; }
    }
  </style>
  <g>
    <path d="M -0.842 -2.802 L -0.699 -2.788 L -0.550 -2.763 L -0.398 -2.727 L -0.243 -2.681 L -0.087 -2.624 L 0.069 -2.556 L 0.224 -2.479 L 0.376 -2.392 L 0.524 -2.297 L 0.666 -2.194 L 0.802 -2.084 L 0.931 -1.969 L 1.051 -1.849 L 1.162 -1.726 L 1.263 -1.601 L 1.354 -1.474 L 1.435 -1.347 L 1.505 -1.221 L 1.564 -1.098 L 1.613 -0.977 L 1.652 -0.859 L 1.681 -0.747 L 1.701 -0.639 L 1.712 -0.537 L 1.715 -0.441 L 1.711 -0.351 L 1.699 -0.268 L 1.682 -0.192 L 1.659 -0.123 L 1.631 -0.061 L 1.600 -0.006 L 1.566 0.042 L 1.528 0.083 L 1.489 0.118 L 1.449 0.147 L 1.408 0.169 L 1.367 0.186 L 1.326 0.197 L 1.286 0.204 L 1.247 0.206 L 1.210 0.203 L 1.175 0.197 L 1.142 0.188 L 1.111 0.176 L 1.083 0.162 L 1.058 0.146 L 1.036 0.129 L 1.016 0.110 L 0.999 0.092 L 0.985 0.073 L 0.974 0.055 L 0.965 0.038 L 0.959 0.022 L 0.955 0.008 L 0.953 -0.004 L 0.952 -0.014 L 0.953 -0.021 L 0.954 -0.025 L 0.956 -0.026 L 0.959 -0.023 L 0.961 -0.017 L 0.963 -0.008 L 0.965 0.005 L 0.965 0.022 L 0.963 0.042 L 0.960 0.066 L 0.955 0.093 L 0.947 0.124 L 0.936 0.157 L 0.923 0.194 L 0.906 0.234 L 0.887 0.276 L 0.863 0.321 L 0.836 0.368 L 0.805 0.417 L 0.771 0.467 L 0.733 0.519 L 0.691 0.572 L 0.645 0.626 L 0.595 0.681 L 0.541 0.736 L 0.484 0.791 L 0.423 0.846 L 0.359 0.900 L 0.291 0.954 L 0.221 1.007 L 0.147 1.059 L 0.070 1.110 L -0.009 1.159 L -0.090 1.207 L -0.174 1.253 L -0.260 1.297 L -0.347 1.338 L -0.436 1.378 L -0.526 1.415 L -0.617 1.450 L -0.708 1.482 L -0.800 1.511 L -0.891 1.537 L -0.982 1.560 L -1.073 1.580 L -1.162 1.597 L -1.250 1.611 L -1.335 1.621 L -1.419 1.628 L -1.500 1.631 L -1.578 1.631 L -1.652 1.627 L -1.723 1.620 L -1.789 1.609 L -1.851 1.595 L -1.907 1.577 L -1.958 1.555 L -2.004 1.530 L -2.043 1.502 L -2.076 1.470 L -2.102 1.435 L -2.121 1.397 L -2.134 1.356 L -2.139 1.312 L -2.138 1.265 L -2.129 1.216 L -2.113 1.164 L -2.091 1.111 L -2.063 1.056 L -2.028 0.999 L -1.988 0.940 L -1.943 0.881 L -1.893 0.820 L -1.839 0.759 L -1.782 0.697 L -1.723 0.635 L -1.661 0.572 L -1.598 0.510 L -1.534 0.447 L -1.470 0.384 L -1.407 0.321 L -1.344 0.259 L -1.284 0.196 L -1.225 0.134 L -1.168 0.072 L -1.114 0.009 L -1.063 -0.053 L -1.015 -0.116 L -0.970 -0.179 L -0.928 -0.243 L -0.890 -0.307 L -0.854 -0.371 L -0.820 -0.437 L -0.790 -0.503 L -0.762 -0.570 L -0.735 -0.638 L -0.711 -0.707 L -0.687 -0.777 L -0.665 -0.849 L -0.643 -0.921 L -0.622 -0.995 L -0.600 -1.070 L -0.577 -1.145 L -0.553 -1.222 L -0.527 -1.299 L -0.500 -1.377 L -0.469 -1.455 L -0.436 -1.534 L -0.399 -1.612 L -0.359 -1.691 L -0.314 -1.768 L -0.265 -1.845 L -0.211 -1.920 L -0.151 -1.993 L -0.087 -2.064 L -0.016 -2.133 L 0.060 -2.198 L 0.141 -2.259 L 0.229 -2.316 L 0.323 -2.368 L 0.422 -2.415 L 0.526 -2.455 L 0.636 -2.489 L 0.751 -2.516 L 0.870 -2.535 L 0.993 -2.545 L 1.120 -2.548 L 1.249 -2.541 L 1.380 -2.525 L 1.512 -2.499 L 1.645 -2.464 L 1.777 -2.419 L 1.907 -2.365 L 2.035 -2.300 L 2.160 -2.227 L 2.280 -2.144 L 2.395 -2.053 L 2.505 -1.953 L 2.607 -1.846 L 2.702 -1.732 L 2.789 -1.612 L 2.867 -1.487 L 2.936 -1.357 L 2.995 -1.223 L 3.045 -1.086 L 3.084 -0.947 L 3.114 -0.807 L 3.133 -0.667 L 3.142 -0.527 L 3.142 -0.389 L 3.132 -0.253 L 3.112 -0.119 L 3.084 0.011 L 3.048 0.138 L 3.003 0.259 L 2.951 0.376 L 2.892 0.487 L 2.827 0.592 L 2.756 0.692 L 2.680 0.784 L 2.599 0.870 L 2.515 0.949 L 2.426 1.021 L 2.335 1.086 L 2.242 1.144 L 2.147 1.194 L 2.051 1.238 L 1.955 1.274 L 1.858 1.304 L 1.761 1.327 L 1.665 1.343 L 1.571 1.352 L 1.478 1.356 L 1.387 1.353 L 1.298 1.345 L 1.212 1.332 L 1.128 1.313 L 1.048 1.290 L 0.971 1.263 L 0.897 1.232 L 0.827 1.198 L 0.760 1.160 L 0.696 1.121 L 0.636 1.079 L 0.580 1.035 L 0.526 0.990 L 0.476 0.945 L 0.429 0.899 L 0.384 0.853 L 0.342 0.807 L 0.302 0.763 L 0.264 0.719 L 0.227 0.677 L 0.191 0.637 L 0.157 0.598 L 0.123 0.562 L 0.089 0.528 L 0.054 0.496 L 0.020 0.467 L -0.016 0.440 L -0.053 0.416 L -0.091 0.395 L -0.130 0.376 L -0.172 0.359 L -0.216 0.344 L -0.261 0.332 L -0.310 0.322 L -0.361 0.313 L -0.414 0.306 L -0.470 0.301 L -0.529 0.296 L -0.591 0.293 L -0.656 0.291 L -0.723 0.289 L -0.793 0.288 L -0.865 0.286 L -0.940 0.285 L -1.018 0.284 L -1.097 0.282 L -1.179 0.279 L -1.263 0.276 L -1.348 0.272 L -1.435 0.267 L -1.523 0.261 L -1.613 0.253 L -1.703 0.244 L -1.794 0.233 L -1.885 0.220 L -1.976 0.206 L -2.066 0.190 L -2.156 0.172 L -2.245 0.152 L -2.333 0.130 L -2.418 0.106 L -2.502 0.080 L -2.582 0.052 L -2.660 0.023 L -2.733 -0.009 L -2.803 -0.042 L -2.868 -0.077 L -2.927 -0.113 L -2.981 -0.150 L -3.028 -0.189 L -3.069 -0.228 L -3.102 -0.268 L -3.126 -0.308 L -3.143 -0.349 L -3.150 -0.389 L -3.148 -0.429 L -3.137 -0.467 L -3.115 -0.505 L -3.083 -0.541 L -3.041 -0.574 L -2.988 -0.606 L -2.926 -0.635 L -2.853 -0.660 L -2.770 -0.683 L -2.679 -0.702 L -2.579 -0.718 L -2.471 -0.730 L -2.356 -0.738 L -2.236 -0.742 L -2.111 -0.743 L -1.981 -0.740 L -1.850 -0.734 L -1.716 -0.725 L -1.583 -0.713 L -1.450 -0.699 L -1.318 -0.682 L -1.190 -0.665 L -1.065 -0.646 L -0.944 -0.627 L -0.828 -0.608 L -0.718 -0.589 L -0.613 -0.572 L -0.515 -0.555 L -0.422 -0.540 L -0.336 -0.527 L -0.256 -0.517 L -0.182 -0.508 L -0.114 -0.503 L -0.051 -0.501 L 0.006 -0.501 L 0.059 -0.505 L 0.108 -0.512 L 0.153 -0.522 L 0.195 -0.535 L 0.234 -0.552 L 0.271 -0.571 L 0.307 -0.593 L 0.341 -0.617 L 0.375 -0.644 L 0.409 -0.672 L 0.442 -0.703 L 0.477 -0.735 L 0.513 -0.768 L 0.550 -0.802 L 0.589 -0.836 L 0.629 -0.870 L 0.672 -0.904 L 0.718 -0.937 L 0.766 -0.969 L 0.817 -0.999 L 0.870 -1.027 L 0.926 -1.053 L 0.984 -1.075 L 1.045 -1.095 L 1.108 -1.110 L 1.173 -1.122 L 1.240 -1.129 L 1.309 -1.131 L 1.378 -1.129 L 1.449 -1.121 L 1.519 -1.107 L 1.590 -1.088 L 1.659 -1.063 L 1.728 -1.032 L 1.795 -0.995 L 1.860 -0.952 L 1.923 -0.903 L 1.982 -0.849 L 2.038 -0.790 L 2.090 -0.724 L 2.138 -0.654 L 2.181 -0.580 L 2.219 -0.501 L 2.251 -0.417 L 2.278 -0.331 L 2.299 -0.241 L 2.314 -0.148 L 2.323 -0.052 L 2.326 0.045 L 2.322 0.143 L 2.313 0.243 L 2.296 0.343 L 2.274 0.444 L 2.246 0.544 L 2.211 0.643 L 2.172 0.742 L 2.126 0.839 L 2.075 0.934 L 2.019 1.027 L 1.959 1.118 L 1.893 1.206 L 1.824 1.290 L 1.751 1.372 L 1.674 1.449 L 1.594 1.523 L 1.511 1.593 L 1.426 1.659 L 1.339 1.720 L 1.249 1.776 L 1.159 1.828 L 1.067 1.875 L 0.975 1.917 L 0.882 1.954 L 0.789 1.985 L 0.697 2.011 L 0.606 2.032 L 0.515 2.047 L 0.427 2.057 L 0.340 2.062 L 0.255 2.061 L 0.173 2.054 L 0.093 2.043 L 0.017 2.026 L -0.057 2.003 L -0.126 1.976 L -0.192 1.944 L -0.254 1.907 L -0.312 1.865 L -0.366 1.819 L -0.416 1.770 L -0.462 1.716 L -0.503 1.659 L -0.540 1.599 L -0.574 1.535 L -0.603 1.470 L -0.630 1.402 L -0.653 1.333 L -0.672 1.262 L -0.690 1.190 L -0.705 1.117 L -0.718 1.044 L -0.729 0.970 L -0.740 0.897 L -0.750 0.824 L -0.759 0.752 L -0.768 0.681 L -0.778 0.610 L -0.789 0.540 L -0.801 0.472 L -0.814 0.405 L -0.829 0.339 L -0.846 0.274 L -0.865 0.210 L -0.887 0.147 L -0.910 0.085 L -0.936 0.024 L -0.965 -0.036 L -0.996 -0.096 L -1.030 -0.156 L -1.066 -0.215 L -1.104 -0.274 L -1.144 -0.334 L -1.187 -0.393 L -1.231 -0.453 L -1.276 -0.514 L -1.323 -0.576 L -1.371 -0.638 L -1.420 -0.702 L -1.469 -0.767 L -1.519 -0.833 L -1.568 -0.901 L -1.617 -0.970 L -1.664 -1.040 L -1.711 -1.112 L -1.755 -1.186 L -1.797 -1.262 L -1.837 -1.338 L -1.874 -1.416 L -1.907 -1.496 L -1.935 -1.577 L -1.960 -1.658 L -1.979 -1.740 L -1.992 -1.823 L -2.000 -1.906 L -2.000 -1.988 L -1.994 -2.070 L -1.980 -2.150 L -1.958 -2.229 L -1.927 -2.306 L -1.888 -2.379 L -1.839 -2.449 L -1.781 -2.515 L -1.714 -2.576 L -1.637 -2.632 L -1.550 -2.681 L -1.453 -2.722 L -1.348 -2.756 L -1.233 -2.782 L -1.110 -2.798 L -0.980 -2.805 L -0.842 -2.802" class="knot-stroke" stroke-width="0.55" fill="none" stroke-linecap="round" stroke-linejoin="round" />
  </g>
</svg>
