<svg viewBox="-4 -4 8 8" width="64" height="64" xmlns="http://www.w3.org/2000/svg">
  <style>
    .knot-stroke { stroke: black; }
    .knot-halo   { stroke: white; }
    @media (prefers-color-scheme: dark) {
      .knot-stroke { stroke: white; }
      .knot-halo   { stroke: black; }
    }
  </style>
  <g>
    <path d="M -2.245 -2.185 L -2.156 -2.217 L -2.057 -2.241 L -1.949 -2.258 L -1.831 -2.266 L -1.706 -2.266 L -1.573 -2.258 L -1.433 -2.240 L -1.288 -2.213 L -1.139 -2.177 L -0.987 -2.132 L -0.834 -2.078 L -0.680 -2.017 L -0.528 -1.948 L -0.378 -1.873 L -0.232 -1.791 L -0.091 -1.705 L 0.044 -1.614 L 0.173 -1.521 L 0.293 -1.425 L 0.406 -1.328 L 0.509 -1.231 L 0.604 -1.134 L 0.689 -1.040 L 0.765 -0.947 L 0.831 -0.858 L 0.889 -0.772 L 0.938 -0.691 L 0.979 -0.615 L 1.012 -0.544 L 1.038 -0.478 L 1.057 -0.418 L 1.071 -0.364 L 1.079 -0.316 L 1.082 -0.274 L 1.082 -0.237 L 1.078 -0.206 L 1.071 -0.181 L 1.063 -0.162 L 1.053 -0.147 L 1.042 -0.138 L 1.030 -0.132 L 1.019 -0.131 L 1.009 -0.134 L 0.999 -0.140 L 0.990 -0.150 L 0.984 -0.161 L 0.979 -0.175 L 0.976 -0.191 L 0.976 -0.207 L 0.978 -0.225 L 0.982 -0.242 L 0.989 -0.260 L 0.999 -0.277 L 1.010 -0.292 L 1.025 -0.307 L 1.041 -0.319 L 1.059 -0.329 L 1.079 -0.337 L 1.100 -0.341 L 1.123 -0.343 L 1.146 -0.341 L 1.170 -0.335 L 1.194 -0.325 L 1.218 -0.311 L 1.241 -0.294 L 1.263 -0.272 L 1.283 -0.246 L 1.302 -0.215 L 1.319 -0.181 L 1.333 -0.142 L 1.345 -0.100 L 1.353 -0.054 L 1.358 -0.005 L 1.359 0.048 L 1.357 0.104 L 1.351 0.163 L 1.340 0.224 L 1.325 0.287 L 1.306 0.353 L 1.282 0.420 L 1.254 0.488 L 1.221 0.558 L 1.184 0.628 L 1.142 0.699 L 1.096 0.769 L 1.046 0.840 L 0.992 0.910 L 0.934 0.980 L 0.872 1.048 L 0.806 1.116 L 0.737 1.182 L 0.665 1.246 L 0.589 1.308 L 0.511 1.369 L 0.431 1.427 L 0.348 1.482 L 0.263 1.535 L 0.177 1.585 L 0.089 1.633 L 0.000 1.677 L -0.090 1.718 L -0.180 1.755 L -0.270 1.789 L -0.360 1.819 L -0.450 1.846 L -0.539 1.868 L -0.626 1.887 L -0.712 1.902 L -0.796 1.913 L -0.877 1.919 L -0.956 1.921 L -1.032 1.919 L -1.104 1.913 L -1.172 1.902 L -1.236 1.887 L -1.296 1.868 L -1.351 1.845 L -1.401 1.817 L -1.445 1.785 L -1.485 1.749 L -1.518 1.710 L -1.546 1.666 L -1.567 1.619 L -1.583 1.569 L -1.593 1.515 L -1.598 1.458 L -1.596 1.399 L -1.590 1.337 L -1.578 1.272 L -1.562 1.206 L -1.541 1.138 L -1.517 1.069 L -1.489 0.999 L -1.458 0.927 L -1.426 0.855 L -1.391 0.782 L -1.355 0.710 L -1.318 0.637 L -1.282 0.564 L -1.245 0.491 L -1.209 0.418 L -1.175 0.346 L -1.142 0.274 L -1.111 0.202 L -1.083 0.131 L -1.057 0.059 L -1.033 -0.012 L -1.012 -0.083 L -0.993 -0.154 L -0.978 -0.225 L -0.965 -0.296 L -0.954 -0.368 L -0.946 -0.440 L -0.940 -0.513 L -0.935 -0.586 L -0.933 -0.660 L -0.931 -0.735 L -0.931 -0.812 L -0.931 -0.889 L -0.932 -0.967 L -0.932 -1.047 L -0.932 -1.127 L -0.930 -1.209 L -0.928 -1.292 L -0.923 -1.375 L -0.916 -1.460 L -0.906 -1.546 L -0.893 -1.632 L -0.876 -1.718 L -0.855 -1.805 L -0.829 -1.892 L -0.798 -1.978 L -0.762 -2.063 L -0.720 -2.147 L -0.672 -2.230 L -0.617 -2.310 L -0.555 -2.388 L -0.487 -2.463 L -0.411 -2.534 L -0.328 -2.600 L -0.238 -2.662 L -0.141 -2.718 L -0.036 -2.767 L 0.075 -2.809 L 0.193 -2.844 L 0.317 -2.871 L 0.446 -2.888 L 0.580 -2.897 L 0.719 -2.895 L 0.861 -2.883 L 1.005 -2.861 L 1.151 -2.827 L 1.298 -2.783 L 1.444 -2.728 L 1.588 -2.662 L 1.729 -2.586 L 1.867 -2.499 L 1.999 -2.403 L 2.126 -2.298 L 2.245 -2.185 L 2.356 -2.064 L 2.459 -1.936 L 2.553 -1.803 L 2.636 -1.665 L 2.709 -1.524 L 2.771 -1.379 L 2.822 -1.233 L 2.863 -1.087 L 2.892 -0.941 L 2.910 -0.796 L 2.918 -0.653 L 2.915 -0.514 L 2.903 -0.378 L 2.881 -0.247 L 2.850 -0.120 L 2.811 0.000 L 2.764 0.115 L 2.710 0.223 L 2.650 0.324 L 2.584 0.418 L 2.513 0.504 L 2.438 0.583 L 2.360 0.655 L 2.278 0.719 L 2.194 0.776 L 2.108 0.825 L 2.021 0.867 L 1.934 0.901 L 1.847 0.929 L 1.760 0.950 L 1.674 0.964 L 1.589 0.973 L 1.506 0.975 L 1.426 0.972 L 1.347 0.964 L 1.272 0.952 L 1.199 0.935 L 1.130 0.914 L 1.064 0.890 L 1.001 0.863 L 0.942 0.834 L 0.886 0.802 L 0.833 0.769 L 0.784 0.735 L 0.738 0.701 L 0.695 0.666 L 0.655 0.632 L 0.617 0.598 L 0.582 0.565 L 0.549 0.534 L 0.517 0.504 L 0.487 0.476 L 0.458 0.451 L 0.430 0.428 L 0.402 0.407 L 0.374 0.390 L 0.346 0.375 L 0.317 0.362 L 0.288 0.353 L 0.257 0.347 L 0.224 0.343 L 0.190 0.342 L 0.154 0.344 L 0.115 0.348 L 0.074 0.355 L 0.031 0.364 L -0.016 0.375 L -0.065 0.387 L -0.117 0.401 L -0.172 0.417 L -0.230 0.434 L -0.291 0.451 L -0.355 0.470 L -0.422 0.489 L -0.492 0.508 L -0.565 0.527 L -0.640 0.546 L -0.718 0.565 L -0.798 0.583 L -0.881 0.600 L -0.966 0.617 L -1.052 0.633 L -1.141 0.647 L -1.231 0.660 L -1.322 0.671 L -1.414 0.681 L -1.507 0.690 L -1.601 0.696 L -1.695 0.700 L -1.788 0.703 L -1.882 0.703 L -1.974 0.701 L -2.065 0.697 L -2.155 0.691 L -2.243 0.682 L -2.328 0.672 L -2.411 0.659 L -2.490 0.643 L -2.566 0.626 L -2.637 0.606 L -2.704 0.584 L -2.765 0.560 L -2.820 0.534 L -2.870 0.507 L -2.912 0.477 L -2.947 0.447 L -2.975 0.415 L -2.994 0.381 L -3.005 0.347 L -3.007 0.312 L -2.999 0.276 L -2.983 0.241 L -2.956 0.205 L -2.921 0.169 L -2.876 0.134 L -2.821 0.100 L -2.758 0.066 L -2.687 0.034 L -2.607 0.002 L -2.520 -0.027 L -2.427 -0.056 L -2.327 -0.083 L -2.223 -0.108 L -2.115 -0.132 L -2.003 -0.154 L -1.890 -0.174 L -1.775 -0.194 L -1.661 -0.212 L -1.547 -0.230 L -1.434 -0.247 L -1.324 -0.263 L -1.217 -0.279 L -1.114 -0.296 L -1.014 -0.312 L -0.919 -0.329 L -0.829 -0.347 L -0.743 -0.366 L -0.663 -0.387 L -0.587 -0.409 L -0.516 -0.432 L -0.449 -0.457 L -0.387 -0.485 L -0.329 -0.514 L -0.274 -0.545 L -0.223 -0.579 L -0.175 -0.614 L -0.128 -0.652 L -0.084 -0.691 L -0.042 -0.732 L -0.000 -0.776 L 0.041 -0.820 L 0.082 -0.867 L 0.124 -0.914 L 0.166 -0.962 L 0.210 -1.012 L 0.255 -1.061 L 0.303 -1.111 L 0.352 -1.160 L 0.404 -1.209 L 0.460 -1.256 L 0.518 -1.303 L 0.579 -1.347 L 0.644 -1.389 L 0.712 -1.429 L 0.783 -1.465 L 0.858 -1.497 L 0.936 -1.526 L 1.017 -1.550 L 1.101 -1.570 L 1.187 -1.584 L 1.276 -1.592 L 1.366 -1.594 L 1.458 -1.590 L 1.550 -1.580 L 1.644 -1.563 L 1.736 -1.538 L 1.829 -1.507 L 1.920 -1.469 L 2.009 -1.424 L 2.095 -1.372 L 2.179 -1.312 L 2.258 -1.247 L 2.334 -1.175 L 2.405 -1.096 L 2.470 -1.012 L 2.530 -0.923 L 2.584 -0.829 L 2.631 -0.730 L 2.672 -0.627 L 2.705 -0.521 L 2.731 -0.412 L 2.750 -0.301 L 2.762 -0.188 L 2.766 -0.074 L 2.762 0.041 L 2.751 0.155 L 2.733 0.270 L 2.708 0.384 L 2.676 0.496 L 2.637 0.606 L 2.592 0.714 L 2.541 0.819 L 2.484 0.921 L 2.422 1.020 L 2.354 1.114 L 2.283 1.205 L 2.206 1.291 L 2.126 1.372 L 2.043 1.449 L 1.956 1.520 L 1.867 1.586 L 1.776 1.647 L 1.683 1.702 L 1.589 1.751 L 1.493 1.794 L 1.397 1.831 L 1.301 1.863 L 1.205 1.888 L 1.110 1.908 L 1.016 1.921 L 0.923 1.929 L 0.832 1.930 L 0.743 1.926 L 0.656 1.916 L 0.572 1.901 L 0.491 1.880 L 0.413 1.854 L 0.338 1.823 L 0.267 1.787 L 0.199 1.747 L 0.135 1.702 L 0.075 1.654 L 0.018 1.602 L -0.035 1.547 L -0.084 1.490 L -0.130 1.430 L -0.173 1.367 L -0.212 1.304 L -0.248 1.239 L -0.282 1.173 L -0.314 1.106 L -0.343 1.040 L -0.371 0.973 L -0.397 0.907 L -0.423 0.842 L -0.448 0.778 L -0.472 0.715 L -0.497 0.653 L -0.522 0.593 L -0.549 0.534 L -0.576 0.477 L -0.604 0.421 L -0.635 0.368 L -0.667 0.316 L -0.701 0.265 L -0.737 0.216 L -0.776 0.168 L -0.817 0.122 L -0.861 0.077 L -0.907 0.032 L -0.956 -0.012 L -1.007 -0.055 L -1.061 -0.098 L -1.117 -0.140 L -1.175 -0.183 L -1.235 -0.226 L -1.298 -0.269 L -1.361 -0.313 L -1.427 -0.358 L -1.494 -0.403 L -1.561 -0.450 L -1.630 -0.498 L -1.699 -0.547 L -1.768 -0.598 L -1.838 -0.650 L -1.906 -0.703 L -1.974 -0.759 L -2.041 -0.816 L -2.106 -0.875 L -2.169 -0.936 L -2.229 -0.998 L -2.287 -1.062 L -2.341 -1.127 L -2.391 -1.194 L -2.437 -1.262 L -2.478 -1.331 L -2.513 -1.400 L -2.543 -1.470 L -2.565 -1.541 L -2.581 -1.611 L -2.589 -1.680 L -2.589 -1.748 L -2.580 -1.815 L -2.562 -1.879 L -2.535 -1.940 L -2.497 -1.999 L -2.450 -2.053 L -2.392 -2.102 L -2.324 -2.147 L -2.245 -2.185" class="knot-stroke" stroke-width="0.55" fill="none" stroke-linecap="round" stroke-linejoin="round" />
  </g>
</svg>
