<svg viewBox="-4 -4 8 8" width="64" height="64" xmlns="http://www.w3.org/2000/svg">
  <style>
    .knot-stroke { stroke: black; }
    .knot-halo   { stroke: white; }
    @media (prefers-color-scheme: dark) {
      .knot-stroke { stroke: white; }
      .knot-halo   { stroke: black; }
    }
  </style>
  <g>
    <path d="M -1.110 -2.737 L -0.973 -2.732 L -0.830 -2.717 L -0.682 -2.692 L -0.530 -2.655 L -0.375 -2.608 L -0.219 -2.551 L -0.063 -2.484 L 0.091 -2.407 L 0.243 -2.321 L 0.391 -2.227 L 0.534 -2.126 L 0.670 -2.019 L 0.799 -1.906 L 0.919 -1.789 L 1.030 -1.669 L 1.132 -1.547 L 1.224 -1.424 L 1.305 -1.302 L 1.376 -1.181 L 1.437 -1.062 L 1.488 -0.946 L 1.528 -0.834 L 1.559 -0.726 L 1.581 -0.624 L 1.594 -0.527 L 1.600 -0.437 L 1.598 -0.353 L 1.590 -0.275 L 1.576 -0.205 L 1.556 -0.141 L 1.533 -0.084 L 1.505 -0.034 L 1.475 0.010 L 1.442 0.047 L 1.408 0.077 L 1.372 0.102 L 1.336 0.120 L 1.300 0.134 L 1.264 0.142 L 1.229 0.146 L 1.196 0.145 L 1.164 0.141 L 1.134 0.133 L 1.107 0.123 L 1.081 0.110 L 1.059 0.095 L 1.039 0.078 L 1.022 0.061 L 1.008 0.043 L 0.996 0.025 L 0.988 0.007 L 0.981 -0.010 L 0.977 -0.026 L 0.976 -0.040 L 0.976 -0.052 L 0.978 -0.061 L 0.982 -0.069 L 0.986 -0.073 L 0.992 -0.074 L 0.998 -0.072 L 1.003 -0.066 L 1.009 -0.057 L 1.014 -0.044 L 1.018 -0.027 L 1.020 -0.007 L 1.021 0.017 L 1.020 0.045 L 1.016 0.076 L 1.010 0.110 L 1.001 0.148 L 0.989 0.188 L 0.974 0.232 L 0.955 0.278 L 0.932 0.326 L 0.906 0.377 L 0.875 0.429 L 0.841 0.483 L 0.803 0.538 L 0.761 0.594 L 0.715 0.651 L 0.665 0.709 L 0.612 0.766 L 0.555 0.824 L 0.494 0.881 L 0.429 0.938 L 0.361 0.995 L 0.290 1.050 L 0.216 1.104 L 0.140 1.156 L 0.060 1.207 L -0.021 1.257 L -0.105 1.304 L -0.191 1.349 L -0.278 1.393 L -0.367 1.433 L -0.457 1.471 L -0.548 1.507 L -0.639 1.539 L -0.730 1.569 L -0.821 1.596 L -0.912 1.619 L -1.002 1.640 L -1.091 1.657 L -1.178 1.670 L -1.263 1.680 L -1.345 1.687 L -1.425 1.690 L -1.502 1.689 L -1.576 1.685 L -1.645 1.677 L -1.710 1.665 L -1.770 1.649 L -1.826 1.630 L -1.876 1.607 L -1.920 1.581 L -1.958 1.551 L -1.989 1.517 L -2.015 1.481 L -2.033 1.441 L -2.045 1.398 L -2.050 1.352 L -2.048 1.303 L -2.039 1.252 L -2.024 1.198 L -2.002 1.142 L -1.974 1.085 L -1.941 1.025 L -1.902 0.965 L -1.859 0.903 L -1.812 0.840 L -1.761 0.777 L -1.707 0.712 L -1.651 0.648 L -1.593 0.583 L -1.534 0.518 L -1.474 0.453 L -1.415 0.388 L -1.357 0.323 L -1.300 0.258 L -1.244 0.194 L -1.191 0.129 L -1.140 0.065 L -1.091 -0.000 L -1.046 -0.065 L -1.003 -0.130 L -0.963 -0.195 L -0.926 -0.260 L -0.893 -0.326 L -0.862 -0.393 L -0.833 -0.460 L -0.807 -0.529 L -0.784 -0.598 L -0.762 -0.668 L -0.741 -0.739 L -0.722 -0.811 L -0.703 -0.884 L -0.684 -0.959 L -0.666 -1.034 L -0.647 -1.111 L -0.627 -1.188 L -0.606 -1.267 L -0.582 -1.346 L -0.557 -1.425 L -0.528 -1.506 L -0.497 -1.586 L -0.461 -1.666 L -0.422 -1.746 L -0.378 -1.825 L -0.330 -1.903 L -0.276 -1.980 L -0.217 -2.055 L -0.153 -2.127 L -0.082 -2.197 L -0.006 -2.263 L 0.077 -2.326 L 0.165 -2.384 L 0.260 -2.437 L 0.360 -2.484 L 0.466 -2.525 L 0.578 -2.559 L 0.695 -2.586 L 0.816 -2.604 L 0.941 -2.615 L 1.070 -2.617 L 1.202 -2.609 L 1.336 -2.592 L 1.471 -2.565 L 1.606 -2.529 L 1.740 -2.482 L 1.873 -2.425 L 2.004 -2.359 L 2.131 -2.283 L 2.254 -2.198 L 2.371 -2.104 L 2.482 -2.002 L 2.587 -1.893 L 2.683 -1.776 L 2.771 -1.653 L 2.850 -1.525 L 2.920 -1.393 L 2.980 -1.257 L 3.030 -1.118 L 3.070 -0.977 L 3.099 -0.835 L 3.118 -0.694 L 3.127 -0.553 L 3.126 -0.414 L 3.115 -0.276 L 3.095 -0.142 L 3.066 -0.012 L 3.029 0.114 L 2.984 0.235 L 2.931 0.351 L 2.871 0.461 L 2.805 0.565 L 2.734 0.663 L 2.657 0.753 L 2.576 0.837 L 2.491 0.914 L 2.403 0.984 L 2.312 1.047 L 2.219 1.102 L 2.125 1.150 L 2.029 1.191 L 1.933 1.225 L 1.838 1.252 L 1.742 1.272 L 1.648 1.286 L 1.555 1.293 L 1.464 1.294 L 1.374 1.290 L 1.288 1.280 L 1.203 1.265 L 1.122 1.245 L 1.044 1.221 L 0.969 1.193 L 0.898 1.161 L 0.830 1.127 L 0.766 1.089 L 0.705 1.050 L 0.647 1.008 L 0.593 0.966 L 0.542 0.922 L 0.493 0.878 L 0.448 0.834 L 0.405 0.791 L 0.365 0.748 L 0.326 0.706 L 0.290 0.665 L 0.254 0.626 L 0.220 0.590 L 0.186 0.555 L 0.152 0.522 L 0.119 0.492 L 0.085 0.465 L 0.050 0.440 L 0.015 0.417 L -0.022 0.397 L -0.060 0.380 L -0.100 0.365 L -0.143 0.353 L -0.187 0.343 L -0.234 0.335 L -0.283 0.328 L -0.335 0.324 L -0.389 0.321 L -0.447 0.320 L -0.507 0.319 L -0.569 0.320 L -0.635 0.321 L -0.704 0.323 L -0.775 0.325 L -0.848 0.328 L -0.924 0.330 L -1.003 0.332 L -1.084 0.333 L -1.167 0.334 L -1.251 0.334 L -1.338 0.333 L -1.426 0.331 L -1.515 0.327 L -1.605 0.322 L -1.697 0.316 L -1.788 0.308 L -1.880 0.298 L -1.972 0.286 L -2.063 0.273 L -2.154 0.258 L -2.243 0.240 L -2.331 0.221 L -2.417 0.199 L -2.501 0.176 L -2.581 0.151 L -2.659 0.123 L -2.733 0.094 L -2.802 0.064 L -2.867 0.031 L -2.926 -0.003 L -2.979 -0.038 L -3.026 -0.075 L -3.066 -0.112 L -3.098 -0.150 L -3.123 -0.189 L -3.139 -0.228 L -3.145 -0.266 L -3.143 -0.305 L -3.131 -0.342 L -3.108 -0.379 L -3.076 -0.414 L -3.033 -0.447 L -2.980 -0.479 L -2.917 -0.508 L -2.845 -0.534 L -2.762 -0.557 L -2.671 -0.578 L -2.572 -0.595 L -2.466 -0.609 L -2.352 -0.619 L -2.233 -0.626 L -2.110 -0.630 L -1.983 -0.631 L -1.854 -0.629 L -1.723 -0.624 L -1.592 -0.617 L -1.462 -0.608 L -1.334 -0.598 L -1.208 -0.586 L -1.086 -0.573 L -0.968 -0.561 L -0.856 -0.548 L -0.748 -0.536 L -0.646 -0.524 L -0.550 -0.515 L -0.460 -0.506 L -0.376 -0.500 L -0.298 -0.496 L -0.225 -0.494 L -0.158 -0.495 L -0.097 -0.499 L -0.039 -0.506 L 0.013 -0.515 L 0.062 -0.528 L 0.108 -0.543 L 0.150 -0.562 L 0.190 -0.583 L 0.229 -0.607 L 0.266 -0.633 L 0.302 -0.662 L 0.337 -0.692 L 0.373 -0.725 L 0.409 -0.759 L 0.446 -0.794 L 0.485 -0.830 L 0.525 -0.866 L 0.567 -0.903 L 0.611 -0.939 L 0.657 -0.975 L 0.706 -1.010 L 0.758 -1.043 L 0.812 -1.074 L 0.870 -1.103 L 0.929 -1.129 L 0.992 -1.152 L 1.057 -1.172 L 1.124 -1.187 L 1.193 -1.198 L 1.264 -1.204 L 1.337 -1.205 L 1.410 -1.201 L 1.485 -1.192 L 1.559 -1.176 L 1.633 -1.155 L 1.707 -1.128 L 1.779 -1.095 L 1.849 -1.055 L 1.917 -1.010 L 1.983 -0.958 L 2.045 -0.901 L 2.104 -0.838 L 2.158 -0.770 L 2.208 -0.697 L 2.253 -0.619 L 2.292 -0.536 L 2.326 -0.450 L 2.355 -0.360 L 2.377 -0.266 L 2.392 -0.170 L 2.402 -0.072 L 2.405 0.028 L 2.402 0.129 L 2.392 0.232 L 2.375 0.335 L 2.353 0.437 L 2.324 0.540 L 2.289 0.641 L 2.249 0.742 L 2.202 0.840 L 2.151 0.937 L 2.094 1.031 L 2.032 1.123 L 1.966 1.211 L 1.896 1.297 L 1.822 1.378 L 1.744 1.456 L 1.663 1.530 L 1.579 1.600 L 1.493 1.665 L 1.405 1.725 L 1.314 1.781 L 1.223 1.832 L 1.131 1.877 L 1.038 1.918 L 0.944 1.953 L 0.851 1.983 L 0.759 2.007 L 0.667 2.026 L 0.577 2.039 L 0.488 2.047 L 0.401 2.049 L 0.316 2.045 L 0.234 2.037 L 0.154 2.022 L 0.078 2.003 L 0.005 1.978 L -0.064 1.948 L -0.130 1.914 L -0.192 1.875 L -0.249 1.831 L -0.303 1.783 L -0.353 1.732 L -0.398 1.676 L -0.440 1.618 L -0.478 1.556 L -0.512 1.492 L -0.542 1.426 L -0.569 1.358 L -0.593 1.288 L -0.614 1.217 L -0.633 1.145 L -0.650 1.073 L -0.665 1.001 L -0.679 0.928 L -0.692 0.856 L -0.705 0.785 L -0.717 0.714 L -0.730 0.644 L -0.743 0.576 L -0.757 0.508 L -0.773 0.442 L -0.790 0.377 L -0.809 0.313 L -0.830 0.250 L -0.853 0.189 L -0.878 0.129 L -0.906 0.069 L -0.937 0.011 L -0.969 -0.047 L -1.005 -0.105 L -1.042 -0.162 L -1.082 -0.218 L -1.125 -0.275 L -1.169 -0.332 L -1.216 -0.390 L -1.264 -0.448 L -1.313 -0.506 L -1.364 -0.566 L -1.416 -0.626 L -1.468 -0.688 L -1.521 -0.750 L -1.574 -0.815 L -1.627 -0.880 L -1.679 -0.947 L -1.731 -1.016 L -1.780 -1.087 L -1.828 -1.158 L -1.874 -1.232 L -1.917 -1.307 L -1.957 -1.383 L -1.993 -1.461 L -2.025 -1.540 L -2.052 -1.620 L -2.074 -1.700 L -2.091 -1.781 L -2.101 -1.862 L -2.104 -1.943 L -2.100 -2.023 L -2.089 -2.102 L -2.069 -2.179 L -2.041 -2.254 L -2.004 -2.326 L -1.958 -2.395 L -1.901 -2.459 L -1.836 -2.518 L -1.760 -2.572 L -1.675 -2.619 L -1.580 -2.660 L -1.475 -2.692 L -1.362 -2.716 L -1.240 -2.731 L -1.110 -2.737" class="knot-stroke" stroke-width="0.55" fill="none" stroke-linecap="round" stroke-linejoin="round" />
  </g>
</svg>
