<svg viewBox="-4 -4 8 8" width="64" height="64" xmlns="http://www.w3.org/2000/svg">
  <style>
    .knot-stroke { stroke: black; }
    .knot-halo   { stroke: white; }
    @media (prefers-color-scheme: dark) {
      .knot-stroke { stroke: white; }
      .knot-halo   { stroke: black; }
    }
  </style>
  <g>
    <path d="M -0.285 -2.877 L -0.132 -2.843 L 0.023 -2.798 L 0.179 -2.742 L 0.335 -2.675 L 0.490 -2.597 L 0.641 -2.510 L 0.789 -2.413 L 0.931 -2.308 L 1.066 -2.196 L 1.194 -2.077 L 1.313 -1.953 L 1.423 -1.825 L 1.524 -1.694 L 1.613 -1.560 L 1.692 -1.427 L 1.760 -1.293 L 1.818 -1.161 L 1.864 -1.031 L 1.900 -0.905 L 1.926 -0.782 L 1.942 -0.665 L 1.949 -0.552 L 1.947 -0.446 L 1.937 -0.346 L 1.920 -0.253 L 1.896 -0.167 L 1.867 -0.088 L 1.832 -0.016 L 1.793 0.048 L 1.751 0.106 L 1.705 0.156 L 1.658 0.199 L 1.608 0.235 L 1.558 0.265 L 1.507 0.289 L 1.456 0.307 L 1.406 0.319 L 1.357 0.326 L 1.310 0.328 L 1.264 0.326 L 1.220 0.320 L 1.179 0.310 L 1.140 0.298 L 1.104 0.283 L 1.071 0.266 L 1.041 0.247 L 1.014 0.228 L 0.990 0.208 L 0.968 0.187 L 0.950 0.167 L 0.934 0.148 L 0.921 0.130 L 0.910 0.114 L 0.901 0.099 L 0.893 0.087 L 0.887 0.077 L 0.882 0.070 L 0.878 0.066 L 0.874 0.065 L 0.870 0.067 L 0.866 0.073 L 0.861 0.082 L 0.855 0.094 L 0.847 0.111 L 0.838 0.130 L 0.827 0.153 L 0.814 0.179 L 0.798 0.208 L 0.779 0.240 L 0.757 0.275 L 0.732 0.312 L 0.704 0.352 L 0.672 0.394 L 0.637 0.437 L 0.598 0.482 L 0.556 0.529 L 0.510 0.577 L 0.460 0.625 L 0.406 0.674 L 0.349 0.723 L 0.289 0.773 L 0.225 0.822 L 0.158 0.871 L 0.087 0.920 L 0.014 0.967 L -0.062 1.014 L -0.141 1.059 L -0.222 1.103 L -0.306 1.146 L -0.391 1.187 L -0.478 1.225 L -0.567 1.262 L -0.657 1.297 L -0.748 1.329 L -0.840 1.359 L -0.932 1.387 L -1.024 1.411 L -1.116 1.433 L -1.208 1.453 L -1.298 1.469 L -1.387 1.482 L -1.474 1.492 L -1.560 1.499 L -1.643 1.503 L -1.722 1.503 L -1.799 1.500 L -1.872 1.494 L -1.941 1.484 L -2.005 1.472 L -2.064 1.455 L -2.118 1.436 L -2.166 1.413 L -2.208 1.387 L -2.243 1.358 L -2.272 1.326 L -2.293 1.292 L -2.308 1.254 L -2.315 1.213 L -2.314 1.171 L -2.306 1.126 L -2.291 1.078 L -2.268 1.029 L -2.238 0.978 L -2.202 0.926 L -2.159 0.872 L -2.111 0.817 L -2.057 0.762 L -1.998 0.705 L -1.936 0.648 L -1.869 0.591 L -1.800 0.534 L -1.729 0.476 L -1.657 0.418 L -1.584 0.361 L -1.511 0.303 L -1.439 0.246 L -1.368 0.189 L -1.299 0.131 L -1.231 0.074 L -1.167 0.017 L -1.105 -0.041 L -1.046 -0.098 L -0.991 -0.156 L -0.938 -0.215 L -0.889 -0.274 L -0.844 -0.333 L -0.801 -0.394 L -0.761 -0.455 L -0.724 -0.518 L -0.689 -0.581 L -0.657 -0.645 L -0.626 -0.711 L -0.597 -0.778 L -0.569 -0.846 L -0.541 -0.915 L -0.513 -0.985 L -0.485 -1.057 L -0.456 -1.129 L -0.426 -1.202 L -0.395 -1.276 L -0.361 -1.350 L -0.325 -1.425 L -0.286 -1.500 L -0.243 -1.574 L -0.197 -1.648 L -0.147 -1.721 L -0.092 -1.793 L -0.033 -1.863 L 0.032 -1.931 L 0.101 -1.996 L 0.176 -2.059 L 0.256 -2.118 L 0.341 -2.173 L 0.432 -2.223 L 0.528 -2.268 L 0.629 -2.307 L 0.735 -2.340 L 0.845 -2.367 L 0.959 -2.386 L 1.078 -2.397 L 1.199 -2.401 L 1.322 -2.395 L 1.448 -2.381 L 1.574 -2.358 L 1.701 -2.326 L 1.827 -2.285 L 1.952 -2.234 L 2.075 -2.174 L 2.194 -2.105 L 2.310 -2.027 L 2.420 -1.941 L 2.525 -1.847 L 2.624 -1.745 L 2.716 -1.637 L 2.800 -1.522 L 2.875 -1.402 L 2.943 -1.278 L 3.001 -1.149 L 3.049 -1.017 L 3.088 -0.882 L 3.118 -0.746 L 3.138 -0.610 L 3.148 -0.473 L 3.148 -0.337 L 3.140 -0.203 L 3.122 -0.070 L 3.096 0.059 L 3.061 0.185 L 3.018 0.307 L 2.968 0.425 L 2.911 0.537 L 2.848 0.644 L 2.779 0.746 L 2.704 0.841 L 2.625 0.931 L 2.541 1.013 L 2.454 1.089 L 2.363 1.158 L 2.270 1.221 L 2.175 1.276 L 2.079 1.324 L 1.981 1.366 L 1.883 1.400 L 1.785 1.428 L 1.687 1.449 L 1.590 1.463 L 1.495 1.471 L 1.401 1.473 L 1.309 1.469 L 1.219 1.459 L 1.132 1.444 L 1.048 1.424 L 0.967 1.399 L 0.889 1.370 L 0.814 1.337 L 0.743 1.300 L 0.676 1.261 L 0.611 1.218 L 0.551 1.173 L 0.493 1.127 L 0.439 1.079 L 0.388 1.030 L 0.340 0.980 L 0.295 0.930 L 0.252 0.881 L 0.212 0.832 L 0.173 0.784 L 0.135 0.737 L 0.099 0.692 L 0.064 0.648 L 0.029 0.607 L -0.005 0.567 L -0.040 0.530 L -0.075 0.495 L -0.111 0.463 L -0.148 0.433 L -0.186 0.405 L -0.227 0.380 L -0.269 0.357 L -0.313 0.336 L -0.359 0.317 L -0.407 0.300 L -0.459 0.285 L -0.512 0.272 L -0.569 0.259 L -0.628 0.248 L -0.689 0.238 L -0.754 0.229 L -0.821 0.220 L -0.891 0.212 L -0.963 0.204 L -1.038 0.195 L -1.114 0.187 L -1.194 0.178 L -1.275 0.168 L -1.357 0.158 L -1.442 0.146 L -1.528 0.134 L -1.615 0.120 L -1.703 0.105 L -1.792 0.088 L -1.881 0.070 L -1.970 0.050 L -2.059 0.028 L -2.147 0.005 L -2.234 -0.021 L -2.320 -0.048 L -2.405 -0.077 L -2.487 -0.108 L -2.567 -0.141 L -2.643 -0.176 L -2.716 -0.212 L -2.785 -0.250 L -2.850 -0.290 L -2.909 -0.331 L -2.963 -0.373 L -3.011 -0.416 L -3.051 -0.460 L -3.085 -0.504 L -3.110 -0.548 L -3.128 -0.593 L -3.136 -0.636 L -3.135 -0.679 L -3.124 -0.721 L -3.103 -0.761 L -3.072 -0.799 L -3.030 -0.834 L -2.978 -0.867 L -2.915 -0.896 L -2.843 -0.922 L -2.760 -0.944 L -2.667 -0.961 L -2.566 -0.974 L -2.456 -0.983 L -2.339 -0.987 L -2.216 -0.987 L -2.087 -0.981 L -1.954 -0.972 L -1.818 -0.958 L -1.680 -0.940 L -1.542 -0.919 L -1.403 -0.895 L -1.267 -0.868 L -1.133 -0.839 L -1.002 -0.808 L -0.876 -0.776 L -0.755 -0.744 L -0.639 -0.712 L -0.530 -0.681 L -0.427 -0.650 L -0.331 -0.622 L -0.241 -0.595 L -0.158 -0.571 L -0.082 -0.549 L -0.012 -0.531 L 0.052 -0.515 L 0.110 -0.503 L 0.163 -0.495 L 0.211 -0.490 L 0.255 -0.489 L 0.295 -0.491 L 0.331 -0.497 L 0.366 -0.506 L 0.398 -0.518 L 0.428 -0.534 L 0.457 -0.552 L 0.486 -0.573 L 0.514 -0.596 L 0.543 -0.621 L 0.573 -0.648 L 0.603 -0.676 L 0.636 -0.706 L 0.669 -0.735 L 0.705 -0.765 L 0.743 -0.795 L 0.783 -0.824 L 0.826 -0.852 L 0.871 -0.879 L 0.919 -0.903 L 0.969 -0.925 L 1.021 -0.944 L 1.076 -0.961 L 1.133 -0.973 L 1.191 -0.982 L 1.252 -0.986 L 1.313 -0.986 L 1.375 -0.981 L 1.438 -0.971 L 1.501 -0.956 L 1.563 -0.935 L 1.625 -0.909 L 1.685 -0.877 L 1.744 -0.840 L 1.800 -0.797 L 1.854 -0.749 L 1.905 -0.695 L 1.952 -0.637 L 1.995 -0.573 L 2.034 -0.505 L 2.069 -0.432 L 2.098 -0.356 L 2.123 -0.276 L 2.142 -0.192 L 2.155 -0.105 L 2.162 -0.016 L 2.164 0.075 L 2.160 0.168 L 2.150 0.262 L 2.134 0.357 L 2.112 0.452 L 2.084 0.548 L 2.051 0.643 L 2.012 0.738 L 1.968 0.831 L 1.918 0.923 L 1.864 1.013 L 1.805 1.101 L 1.742 1.187 L 1.674 1.270 L 1.603 1.351 L 1.528 1.428 L 1.450 1.501 L 1.369 1.571 L 1.285 1.637 L 1.199 1.700 L 1.112 1.757 L 1.022 1.811 L 0.932 1.860 L 0.841 1.904 L 0.749 1.943 L 0.657 1.978 L 0.566 2.008 L 0.475 2.032 L 0.385 2.051 L 0.296 2.065 L 0.209 2.074 L 0.124 2.078 L 0.042 2.076 L -0.038 2.069 L -0.115 2.056 L -0.189 2.039 L -0.259 2.017 L -0.326 1.989 L -0.388 1.957 L -0.447 1.920 L -0.501 1.878 L -0.551 1.832 L -0.596 1.783 L -0.638 1.729 L -0.674 1.672 L -0.707 1.611 L -0.735 1.548 L -0.760 1.482 L -0.781 1.414 L -0.798 1.344 L -0.812 1.272 L -0.824 1.199 L -0.833 1.125 L -0.840 1.051 L -0.845 0.976 L -0.849 0.901 L -0.853 0.827 L -0.855 0.753 L -0.859 0.679 L -0.862 0.606 L -0.866 0.534 L -0.872 0.463 L -0.878 0.393 L -0.887 0.324 L -0.897 0.256 L -0.910 0.189 L -0.925 0.123 L -0.942 0.058 L -0.962 -0.007 L -0.984 -0.071 L -1.009 -0.135 L -1.036 -0.199 L -1.066 -0.262 L -1.098 -0.325 L -1.131 -0.389 L -1.167 -0.453 L -1.204 -0.518 L -1.243 -0.584 L -1.283 -0.650 L -1.324 -0.717 L -1.366 -0.786 L -1.407 -0.855 L -1.449 -0.926 L -1.490 -0.999 L -1.531 -1.073 L -1.570 -1.148 L -1.607 -1.225 L -1.643 -1.303 L -1.675 -1.383 L -1.705 -1.464 L -1.731 -1.547 L -1.754 -1.630 L -1.772 -1.714 L -1.785 -1.799 L -1.792 -1.885 L -1.794 -1.970 L -1.789 -2.055 L -1.777 -2.140 L -1.758 -2.223 L -1.730 -2.304 L -1.695 -2.384 L -1.651 -2.460 L -1.599 -2.533 L -1.537 -2.601 L -1.466 -2.665 L -1.385 -2.723 L -1.296 -2.775 L -1.197 -2.820 L -1.089 -2.856 L -0.973 -2.885 L -0.848 -2.904 L -0.716 -2.913 L -0.578 -2.912 L -0.434 -2.900 L -0.285 -2.877" class="knot-stroke" stroke-width="0.55" fill="none" stroke-linecap="round" stroke-linejoin="round" />
  </g>
</svg>
