<svg viewBox="-4 -4 8 8" width="64" height="64" xmlns="http://www.w3.org/2000/svg">
  <style>
    .knot-stroke { stroke: black; }
    .knot-halo   { stroke: white; }
    @media (prefers-color-scheme: dark) {
      .knot-stroke { stroke: white; }
      .knot-halo   { stroke: black; }
    }
  </style>
  <g>
    <path d="M 0.000 -2.887 L 0.155 -2.842 L 0.311 -2.787 L 0.466 -2.720 L 0.621 -2.643 L 0.772 -2.556 L 0.919 -2.459 L 1.060 -2.354 L 1.196 -2.241 L 1.323 -2.121 L 1.442 -1.995 L 1.551 -1.865 L 1.651 -1.732 L 1.740 -1.596 L 1.818 -1.460 L 1.886 -1.323 L 1.942 -1.187 L 1.987 -1.054 L 2.022 -0.923 L 2.046 -0.797 L 2.060 -0.675 L 2.065 -0.558 L 2.061 -0.447 L 2.049 -0.343 L 2.030 -0.245 L 2.003 -0.154 L 1.971 -0.070 L 1.933 0.007 L 1.891 0.076 L 1.845 0.137 L 1.795 0.192 L 1.743 0.239 L 1.690 0.279 L 1.635 0.313 L 1.580 0.340 L 1.524 0.361 L 1.469 0.376 L 1.415 0.385 L 1.362 0.390 L 1.311 0.390 L 1.263 0.385 L 1.216 0.377 L 1.172 0.366 L 1.131 0.351 L 1.093 0.335 L 1.057 0.316 L 1.025 0.297 L 0.996 0.276 L 0.970 0.255 L 0.946 0.233 L 0.926 0.213 L 0.908 0.193 L 0.892 0.174 L 0.879 0.157 L 0.867 0.142 L 0.857 0.129 L 0.849 0.119 L 0.841 0.112 L 0.834 0.108 L 0.827 0.106 L 0.820 0.108 L 0.813 0.114 L 0.804 0.122 L 0.795 0.135 L 0.784 0.150 L 0.771 0.169 L 0.756 0.191 L 0.739 0.216 L 0.719 0.244 L 0.696 0.275 L 0.670 0.309 L 0.642 0.345 L 0.609 0.383 L 0.574 0.423 L 0.535 0.465 L 0.492 0.508 L 0.446 0.552 L 0.396 0.597 L 0.342 0.643 L 0.285 0.690 L 0.225 0.736 L 0.161 0.783 L 0.094 0.829 L 0.024 0.875 L -0.049 0.921 L -0.125 0.965 L -0.204 1.008 L -0.285 1.050 L -0.368 1.091 L -0.453 1.130 L -0.541 1.167 L -0.629 1.202 L -0.719 1.236 L -0.810 1.267 L -0.902 1.295 L -0.995 1.322 L -1.087 1.345 L -1.179 1.366 L -1.271 1.385 L -1.362 1.400 L -1.452 1.413 L -1.540 1.423 L -1.626 1.429 L -1.710 1.433 L -1.791 1.433 L -1.869 1.431 L -1.943 1.425 L -2.013 1.416 L -2.078 1.403 L -2.139 1.388 L -2.194 1.369 L -2.243 1.347 L -2.286 1.322 L -2.323 1.294 L -2.353 1.264 L -2.376 1.230 L -2.391 1.194 L -2.399 1.155 L -2.400 1.114 L -2.392 1.071 L -2.377 1.025 L -2.354 0.978 L -2.325 0.930 L -2.288 0.879 L -2.244 0.828 L -2.194 0.776 L -2.138 0.722 L -2.077 0.669 L -2.012 0.614 L -1.943 0.560 L -1.871 0.505 L -1.796 0.450 L -1.720 0.395 L -1.642 0.341 L -1.565 0.286 L -1.488 0.232 L -1.412 0.177 L -1.337 0.123 L -1.265 0.069 L -1.195 0.014 L -1.128 -0.040 L -1.064 -0.095 L -1.003 -0.150 L -0.946 -0.205 L -0.892 -0.261 L -0.841 -0.318 L -0.794 -0.376 L -0.749 -0.434 L -0.708 -0.494 L -0.669 -0.554 L -0.633 -0.616 L -0.599 -0.679 L -0.566 -0.743 L -0.534 -0.809 L -0.504 -0.875 L -0.473 -0.943 L -0.443 -1.012 L -0.412 -1.082 L -0.380 -1.153 L -0.347 -1.224 L -0.312 -1.296 L -0.274 -1.369 L -0.234 -1.441 L -0.191 -1.514 L -0.144 -1.585 L -0.094 -1.657 L -0.039 -1.727 L 0.020 -1.795 L 0.084 -1.861 L 0.153 -1.925 L 0.226 -1.986 L 0.305 -2.044 L 0.389 -2.098 L 0.478 -2.147 L 0.573 -2.191 L 0.672 -2.230 L 0.775 -2.263 L 0.883 -2.289 L 0.995 -2.308 L 1.110 -2.320 L 1.229 -2.323 L 1.350 -2.319 L 1.472 -2.306 L 1.596 -2.284 L 1.719 -2.254 L 1.842 -2.214 L 1.964 -2.165 L 2.084 -2.107 L 2.201 -2.041 L 2.314 -1.965 L 2.422 -1.882 L 2.525 -1.790 L 2.621 -1.692 L 2.711 -1.586 L 2.794 -1.475 L 2.868 -1.357 L 2.934 -1.235 L 2.991 -1.109 L 3.040 -0.980 L 3.078 -0.848 L 3.108 -0.714 L 3.128 -0.579 L 3.138 -0.444 L 3.139 -0.310 L 3.132 -0.177 L 3.115 -0.046 L 3.089 0.083 L 3.056 0.208 L 3.014 0.330 L 2.965 0.448 L 2.909 0.561 L 2.847 0.669 L 2.779 0.771 L 2.705 0.868 L 2.627 0.958 L 2.544 1.042 L 2.457 1.120 L 2.367 1.191 L 2.275 1.256 L 2.180 1.313 L 2.083 1.364 L 1.986 1.408 L 1.887 1.444 L 1.789 1.475 L 1.691 1.498 L 1.593 1.515 L 1.497 1.525 L 1.402 1.529 L 1.309 1.528 L 1.218 1.520 L 1.129 1.507 L 1.044 1.488 L 0.961 1.465 L 0.881 1.437 L 0.805 1.405 L 0.732 1.369 L 0.662 1.329 L 0.596 1.287 L 0.534 1.242 L 0.475 1.195 L 0.419 1.146 L 0.367 1.096 L 0.317 1.045 L 0.271 0.993 L 0.227 0.942 L 0.185 0.890 L 0.145 0.840 L 0.107 0.790 L 0.070 0.742 L 0.035 0.695 L 0.000 0.650 L -0.035 0.607 L -0.069 0.566 L -0.104 0.527 L -0.139 0.490 L -0.176 0.456 L -0.213 0.424 L -0.253 0.395 L -0.293 0.368 L -0.336 0.342 L -0.381 0.320 L -0.429 0.298 L -0.478 0.279 L -0.531 0.262 L -0.585 0.245 L -0.643 0.230 L -0.703 0.216 L -0.766 0.203 L -0.832 0.191 L -0.900 0.179 L -0.970 0.167 L -1.043 0.155 L -1.119 0.143 L -1.196 0.131 L -1.276 0.118 L -1.357 0.104 L -1.440 0.090 L -1.525 0.074 L -1.610 0.057 L -1.697 0.039 L -1.784 0.019 L -1.872 -0.002 L -1.960 -0.025 L -2.048 -0.049 L -2.135 -0.076 L -2.221 -0.104 L -2.306 -0.134 L -2.390 -0.166 L -2.471 -0.199 L -2.550 -0.235 L -2.626 -0.273 L -2.699 -0.312 L -2.767 -0.352 L -2.831 -0.395 L -2.890 -0.438 L -2.944 -0.483 L -2.991 -0.528 L -3.032 -0.574 L -3.065 -0.621 L -3.091 -0.668 L -3.108 -0.714 L -3.116 -0.760 L -3.115 -0.805 L -3.105 -0.848 L -3.084 -0.890 L -3.053 -0.929 L -3.012 -0.965 L -2.959 -0.999 L -2.897 -1.029 L -2.824 -1.055 L -2.740 -1.077 L -2.648 -1.094 L -2.546 -1.107 L -2.435 -1.114 L -2.317 -1.116 L -2.193 -1.114 L -2.063 -1.106 L -1.928 -1.093 L -1.790 -1.076 L -1.650 -1.054 L -1.509 -1.029 L -1.369 -1.000 L -1.229 -0.967 L -1.093 -0.933 L -0.960 -0.896 L -0.831 -0.858 L -0.708 -0.819 L -0.590 -0.781 L -0.479 -0.742 L -0.374 -0.705 L -0.276 -0.669 L -0.185 -0.636 L -0.101 -0.604 L -0.024 -0.576 L 0.046 -0.550 L 0.110 -0.528 L 0.168 -0.510 L 0.221 -0.495 L 0.268 -0.484 L 0.311 -0.476 L 0.350 -0.473 L 0.385 -0.473 L 0.418 -0.477 L 0.448 -0.485 L 0.476 -0.495 L 0.502 -0.509 L 0.528 -0.526 L 0.554 -0.545 L 0.580 -0.567 L 0.606 -0.591 L 0.633 -0.616 L 0.661 -0.643 L 0.691 -0.670 L 0.723 -0.698 L 0.757 -0.726 L 0.793 -0.753 L 0.832 -0.780 L 0.873 -0.806 L 0.916 -0.830 L 0.962 -0.851 L 1.010 -0.871 L 1.060 -0.887 L 1.113 -0.900 L 1.167 -0.910 L 1.223 -0.915 L 1.280 -0.916 L 1.338 -0.913 L 1.397 -0.905 L 1.456 -0.891 L 1.515 -0.873 L 1.573 -0.849 L 1.630 -0.820 L 1.685 -0.785 L 1.739 -0.745 L 1.790 -0.700 L 1.838 -0.650 L 1.882 -0.594 L 1.923 -0.534 L 1.960 -0.469 L 1.993 -0.400 L 2.021 -0.327 L 2.044 -0.250 L 2.062 -0.169 L 2.074 -0.086 L 2.081 -0.000 L 2.082 0.088 L 2.077 0.178 L 2.067 0.269 L 2.051 0.361 L 2.029 0.454 L 2.001 0.547 L 1.968 0.640 L 1.930 0.733 L 1.886 0.824 L 1.838 0.915 L 1.784 1.003 L 1.726 1.090 L 1.663 1.175 L 1.596 1.257 L 1.526 1.337 L 1.452 1.413 L 1.375 1.486 L 1.294 1.556 L 1.212 1.622 L 1.127 1.685 L 1.040 1.743 L 0.951 1.797 L 0.861 1.847 L 0.770 1.892 L 0.679 1.933 L 0.588 1.968 L 0.497 1.999 L 0.406 2.025 L 0.316 2.047 L 0.227 2.062 L 0.140 2.073 L 0.055 2.079 L -0.027 2.079 L -0.107 2.075 L -0.185 2.065 L -0.259 2.050 L -0.329 2.030 L -0.396 2.004 L -0.459 1.974 L -0.518 1.940 L -0.572 1.901 L -0.623 1.857 L -0.668 1.809 L -0.709 1.757 L -0.746 1.702 L -0.778 1.643 L -0.806 1.581 L -0.830 1.517 L -0.850 1.450 L -0.866 1.380 L -0.879 1.309 L -0.888 1.237 L -0.895 1.163 L -0.900 1.089 L -0.903 1.013 L -0.904 0.938 L -0.904 0.863 L -0.904 0.788 L -0.903 0.713 L -0.903 0.639 L -0.904 0.566 L -0.905 0.494 L -0.907 0.422 L -0.912 0.351 L -0.918 0.282 L -0.926 0.213 L -0.936 0.145 L -0.949 0.077 L -0.964 0.011 L -0.982 -0.055 L -1.002 -0.121 L -1.024 -0.186 L -1.049 -0.251 L -1.076 -0.317 L -1.106 -0.382 L -1.137 -0.448 L -1.170 -0.515 L -1.205 -0.582 L -1.240 -0.650 L -1.277 -0.719 L -1.315 -0.788 L -1.352 -0.860 L -1.390 -0.932 L -1.427 -1.006 L -1.464 -1.081 L -1.499 -1.158 L -1.533 -1.236 L -1.565 -1.316 L -1.594 -1.397 L -1.621 -1.479 L -1.644 -1.563 L -1.663 -1.647 L -1.677 -1.733 L -1.687 -1.819 L -1.691 -1.905 L -1.690 -1.992 L -1.682 -2.078 L -1.668 -2.163 L -1.646 -2.247 L -1.616 -2.330 L -1.579 -2.410 L -1.533 -2.488 L -1.478 -2.561 L -1.414 -2.631 L -1.341 -2.696 L -1.259 -2.755 L -1.168 -2.808 L -1.068 -2.854 L -0.959 -2.892 L -0.842 -2.921 L -0.717 -2.942 L -0.585 -2.952 L -0.446 -2.952 L -0.302 -2.941 L -0.153 -2.920 L 0.000 -2.887" class="knot-stroke" stroke-width="0.55" fill="none" stroke-linecap="round" stroke-linejoin="round" />
  </g>
</svg>
