<svg viewBox="-4 -4 8 8" width="64" height="64" xmlns="http://www.w3.org/2000/svg">
  <style>
    .knot-stroke { stroke: black; }
    .knot-halo   { stroke: white; }
    @media (prefers-color-scheme: dark) {
      .knot-stroke { stroke: white; }
      .knot-halo   { stroke: black; }
    }
  </style>
  <g>
    <path d="M -2.051 -2.321 L -1.951 -2.347 L -1.842 -2.365 L -1.723 -2.375 L -1.597 -2.376 L -1.463 -2.367 L -1.323 -2.350 L -1.177 -2.322 L -1.027 -2.286 L -0.875 -2.240 L -0.720 -2.185 L -0.566 -2.122 L -0.413 -2.051 L -0.263 -1.972 L -0.116 -1.888 L 0.026 -1.797 L 0.161 -1.703 L 0.290 -1.604 L 0.411 -1.503 L 0.523 -1.401 L 0.627 -1.298 L 0.721 -1.196 L 0.805 -1.095 L 0.880 -0.996 L 0.946 -0.900 L 1.002 -0.808 L 1.049 -0.720 L 1.088 -0.637 L 1.119 -0.559 L 1.143 -0.487 L 1.159 -0.421 L 1.169 -0.360 L 1.174 -0.306 L 1.174 -0.258 L 1.170 -0.216 L 1.162 -0.180 L 1.151 -0.150 L 1.138 -0.126 L 1.124 -0.107 L 1.108 -0.093 L 1.092 -0.084 L 1.076 -0.080 L 1.060 -0.079 L 1.045 -0.083 L 1.032 -0.090 L 1.020 -0.099 L 1.010 -0.111 L 1.001 -0.125 L 0.996 -0.141 L 0.992 -0.158 L 0.991 -0.175 L 0.993 -0.192 L 0.997 -0.209 L 1.004 -0.226 L 1.013 -0.241 L 1.025 -0.254 L 1.038 -0.266 L 1.053 -0.275 L 1.070 -0.282 L 1.088 -0.285 L 1.108 -0.285 L 1.127 -0.282 L 1.148 -0.275 L 1.168 -0.265 L 1.187 -0.250 L 1.206 -0.231 L 1.224 -0.208 L 1.240 -0.182 L 1.254 -0.151 L 1.266 -0.116 L 1.276 -0.077 L 1.282 -0.035 L 1.286 0.011 L 1.286 0.060 L 1.282 0.113 L 1.275 0.168 L 1.263 0.226 L 1.247 0.286 L 1.228 0.348 L 1.203 0.412 L 1.175 0.477 L 1.142 0.544 L 1.105 0.611 L 1.063 0.679 L 1.017 0.747 L 0.967 0.815 L 0.913 0.883 L 0.855 0.950 L 0.793 1.017 L 0.728 1.083 L 0.659 1.147 L 0.587 1.209 L 0.512 1.270 L 0.434 1.329 L 0.354 1.386 L 0.272 1.441 L 0.187 1.493 L 0.101 1.543 L 0.013 1.589 L -0.076 1.633 L -0.165 1.673 L -0.256 1.711 L -0.346 1.745 L -0.437 1.775 L -0.526 1.802 L -0.615 1.825 L -0.703 1.845 L -0.790 1.860 L -0.874 1.872 L -0.956 1.880 L -1.036 1.883 L -1.112 1.882 L -1.185 1.878 L -1.254 1.869 L -1.320 1.855 L -1.380 1.838 L -1.436 1.816 L -1.487 1.791 L -1.532 1.761 L -1.572 1.727 L -1.606 1.690 L -1.635 1.648 L -1.657 1.603 L -1.673 1.555 L -1.683 1.503 L -1.687 1.449 L -1.685 1.391 L -1.678 1.332 L -1.665 1.269 L -1.648 1.205 L -1.625 1.139 L -1.599 1.072 L -1.568 1.003 L -1.535 0.933 L -1.499 0.862 L -1.461 0.791 L -1.421 0.720 L -1.380 0.648 L -1.339 0.576 L -1.298 0.504 L -1.257 0.433 L -1.218 0.361 L -1.180 0.290 L -1.144 0.219 L -1.110 0.148 L -1.078 0.078 L -1.049 0.008 L -1.022 -0.063 L -0.998 -0.133 L -0.977 -0.203 L -0.959 -0.274 L -0.943 -0.345 L -0.930 -0.416 L -0.919 -0.489 L -0.910 -0.561 L -0.902 -0.635 L -0.897 -0.709 L -0.892 -0.785 L -0.888 -0.861 L -0.884 -0.939 L -0.881 -1.017 L -0.877 -1.097 L -0.872 -1.178 L -0.866 -1.260 L -0.858 -1.343 L -0.847 -1.427 L -0.835 -1.511 L -0.819 -1.597 L -0.799 -1.682 L -0.776 -1.768 L -0.748 -1.854 L -0.715 -1.939 L -0.677 -2.023 L -0.633 -2.107 L -0.584 -2.188 L -0.528 -2.268 L -0.465 -2.345 L -0.396 -2.419 L -0.320 -2.489 L -0.237 -2.555 L -0.146 -2.616 L -0.049 -2.671 L 0.055 -2.720 L 0.165 -2.763 L 0.282 -2.797 L 0.405 -2.824 L 0.533 -2.842 L 0.666 -2.851 L 0.803 -2.850 L 0.943 -2.839 L 1.086 -2.818 L 1.230 -2.786 L 1.375 -2.743 L 1.519 -2.690 L 1.661 -2.626 L 1.800 -2.551 L 1.936 -2.467 L 2.067 -2.373 L 2.192 -2.270 L 2.310 -2.158 L 2.420 -2.039 L 2.522 -1.914 L 2.614 -1.782 L 2.697 -1.646 L 2.769 -1.505 L 2.831 -1.362 L 2.882 -1.217 L 2.922 -1.071 L 2.951 -0.925 L 2.969 -0.780 L 2.977 -0.637 L 2.975 -0.497 L 2.962 -0.361 L 2.940 -0.228 L 2.910 -0.100 L 2.870 0.022 L 2.824 0.138 L 2.769 0.248 L 2.709 0.352 L 2.643 0.448 L 2.571 0.537 L 2.495 0.619 L 2.415 0.694 L 2.332 0.761 L 2.247 0.820 L 2.159 0.872 L 2.071 0.917 L 1.981 0.954 L 1.891 0.985 L 1.802 1.008 L 1.714 1.025 L 1.626 1.036 L 1.540 1.040 L 1.457 1.039 L 1.375 1.033 L 1.296 1.021 L 1.220 1.006 L 1.148 0.986 L 1.078 0.962 L 1.012 0.935 L 0.949 0.906 L 0.889 0.874 L 0.833 0.840 L 0.780 0.805 L 0.731 0.769 L 0.685 0.733 L 0.641 0.696 L 0.601 0.660 L 0.563 0.625 L 0.527 0.591 L 0.493 0.558 L 0.461 0.527 L 0.430 0.498 L 0.399 0.471 L 0.370 0.447 L 0.341 0.425 L 0.311 0.406 L 0.281 0.389 L 0.251 0.376 L 0.219 0.365 L 0.186 0.357 L 0.151 0.352 L 0.115 0.349 L 0.076 0.349 L 0.035 0.352 L -0.008 0.357 L -0.054 0.363 L -0.103 0.372 L -0.155 0.382 L -0.209 0.394 L -0.267 0.407 L -0.327 0.421 L -0.391 0.435 L -0.457 0.451 L -0.526 0.467 L -0.598 0.482 L -0.673 0.498 L -0.750 0.514 L -0.830 0.529 L -0.912 0.544 L -0.996 0.557 L -1.082 0.570 L -1.170 0.582 L -1.260 0.592 L -1.351 0.601 L -1.443 0.609 L -1.535 0.614 L -1.629 0.618 L -1.722 0.621 L -1.816 0.621 L -1.909 0.619 L -2.001 0.615 L -2.093 0.609 L -2.183 0.601 L -2.271 0.590 L -2.357 0.578 L -2.440 0.563 L -2.520 0.546 L -2.596 0.527 L -2.668 0.506 L -2.735 0.482 L -2.798 0.457 L -2.854 0.430 L -2.905 0.401 L -2.948 0.371 L -2.985 0.339 L -3.013 0.306 L -3.034 0.273 L -3.046 0.238 L -3.049 0.203 L -3.042 0.167 L -3.027 0.131 L -3.001 0.096 L -2.966 0.061 L -2.922 0.027 L -2.868 -0.006 L -2.804 -0.039 L -2.732 -0.069 L -2.652 -0.099 L -2.564 -0.126 L -2.469 -0.152 L -2.368 -0.176 L -2.261 -0.198 L -2.151 -0.218 L -2.036 -0.236 L -1.920 -0.253 L -1.802 -0.268 L -1.684 -0.282 L -1.566 -0.295 L -1.450 -0.306 L -1.336 -0.318 L -1.225 -0.328 L -1.117 -0.339 L -1.014 -0.350 L -0.915 -0.362 L -0.820 -0.374 L -0.731 -0.388 L -0.647 -0.402 L -0.568 -0.419 L -0.494 -0.437 L -0.425 -0.457 L -0.360 -0.479 L -0.300 -0.503 L -0.244 -0.529 L -0.191 -0.557 L -0.141 -0.588 L -0.094 -0.621 L -0.049 -0.656 L -0.006 -0.694 L 0.036 -0.733 L 0.077 -0.774 L 0.117 -0.816 L 0.158 -0.860 L 0.199 -0.905 L 0.242 -0.951 L 0.286 -0.998 L 0.331 -1.045 L 0.379 -1.092 L 0.429 -1.138 L 0.482 -1.183 L 0.538 -1.228 L 0.596 -1.271 L 0.658 -1.311 L 0.723 -1.350 L 0.792 -1.385 L 0.863 -1.417 L 0.938 -1.445 L 1.015 -1.469 L 1.095 -1.488 L 1.178 -1.502 L 1.263 -1.511 L 1.349 -1.514 L 1.437 -1.512 L 1.526 -1.502 L 1.616 -1.487 L 1.705 -1.464 L 1.794 -1.435 L 1.881 -1.399 L 1.967 -1.356 L 2.050 -1.306 L 2.131 -1.250 L 2.208 -1.187 L 2.281 -1.118 L 2.349 -1.043 L 2.413 -0.962 L 2.471 -0.876 L 2.523 -0.785 L 2.569 -0.689 L 2.608 -0.590 L 2.640 -0.487 L 2.666 -0.381 L 2.684 -0.273 L 2.695 -0.163 L 2.699 -0.051 L 2.696 0.061 L 2.685 0.173 L 2.668 0.286 L 2.643 0.397 L 2.612 0.508 L 2.574 0.616 L 2.530 0.723 L 2.480 0.827 L 2.424 0.928 L 2.363 1.026 L 2.297 1.120 L 2.227 1.211 L 2.152 1.297 L 2.073 1.379 L 1.991 1.456 L 1.905 1.528 L 1.817 1.595 L 1.727 1.657 L 1.635 1.713 L 1.542 1.764 L 1.447 1.809 L 1.352 1.848 L 1.256 1.882 L 1.161 1.909 L 1.066 1.931 L 0.972 1.947 L 0.880 1.957 L 0.788 1.961 L 0.699 1.959 L 0.613 1.951 L 0.528 1.938 L 0.447 1.920 L 0.368 1.896 L 0.293 1.867 L 0.221 1.833 L 0.153 1.795 L 0.089 1.752 L 0.028 1.705 L -0.029 1.655 L -0.082 1.601 L -0.132 1.544 L -0.178 1.484 L -0.220 1.422 L -0.259 1.359 L -0.295 1.293 L -0.328 1.227 L -0.359 1.159 L -0.387 1.091 L -0.414 1.023 L -0.439 0.956 L -0.463 0.888 L -0.486 0.822 L -0.508 0.756 L -0.531 0.692 L -0.554 0.629 L -0.577 0.567 L -0.602 0.507 L -0.628 0.449 L -0.655 0.392 L -0.684 0.337 L -0.715 0.283 L -0.749 0.230 L -0.784 0.179 L -0.822 0.130 L -0.862 0.081 L -0.905 0.033 L -0.951 -0.014 L -0.999 -0.060 L -1.049 -0.106 L -1.102 -0.152 L -1.156 -0.198 L -1.214 -0.244 L -1.273 -0.290 L -1.333 -0.337 L -1.396 -0.384 L -1.459 -0.432 L -1.524 -0.482 L -1.590 -0.532 L -1.656 -0.584 L -1.722 -0.638 L -1.788 -0.692 L -1.854 -0.749 L -1.919 -0.807 L -1.983 -0.867 L -2.045 -0.928 L -2.106 -0.991 L -2.163 -1.056 L -2.218 -1.122 L -2.270 -1.190 L -2.318 -1.259 L -2.361 -1.330 L -2.399 -1.401 L -2.432 -1.473 L -2.459 -1.546 L -2.480 -1.618 L -2.493 -1.691 L -2.499 -1.762 L -2.497 -1.833 L -2.486 -1.902 L -2.467 -1.969 L -2.438 -2.033 L -2.399 -2.093 L -2.350 -2.149 L -2.290 -2.201 L -2.221 -2.247 L -2.141 -2.287 L -2.051 -2.321" class="knot-stroke" stroke-width="0.55" fill="none" stroke-linecap="round" stroke-linejoin="round" />
  </g>
</svg>
