<svg viewBox="-4 -4 8 8" width="64" height="64" xmlns="http://www.w3.org/2000/svg">
  <style>
    .knot-stroke { stroke: black; }
    .knot-halo   { stroke: white; }
    @media (prefers-color-scheme: dark) {
      .knot-stroke { stroke: white; }
      .knot-halo   { stroke: black; }
    }
  </style>
  <g>
    <path d="M -3.051 -1.052 L -3.040 -1.100 L -3.019 -1.145 L -2.988 -1.188 L -2.947 -1.227 L -2.894 -1.263 L -2.831 -1.295 L -2.758 -1.323 L -2.674 -1.345 L -2.580 -1.363 L -2.477 -1.375 L -2.365 -1.381 L -2.245 -1.381 L -2.118 -1.375 L -1.986 -1.362 L -1.848 -1.345 L -1.707 -1.321 L -1.563 -1.292 L -1.419 -1.258 L -1.274 -1.220 L -1.131 -1.177 L -0.990 -1.132 L -0.853 -1.084 L -0.720 -1.033 L -0.592 -0.982 L -0.471 -0.930 L -0.356 -0.878 L -0.248 -0.826 L -0.148 -0.776 L -0.055 -0.728 L 0.031 -0.682 L 0.109 -0.640 L 0.180 -0.600 L 0.244 -0.564 L 0.301 -0.532 L 0.352 -0.504 L 0.398 -0.480 L 0.438 -0.460 L 0.474 -0.445 L 0.505 -0.434 L 0.533 -0.427 L 0.559 -0.424 L 0.582 -0.425 L 0.603 -0.430 L 0.623 -0.438 L 0.642 -0.449 L 0.661 -0.464 L 0.680 -0.481 L 0.699 -0.500 L 0.720 -0.521 L 0.742 -0.543 L 0.765 -0.567 L 0.791 -0.591 L 0.818 -0.615 L 0.848 -0.640 L 0.880 -0.663 L 0.915 -0.686 L 0.951 -0.707 L 0.991 -0.726 L 1.032 -0.743 L 1.076 -0.757 L 1.121 -0.768 L 1.168 -0.776 L 1.217 -0.779 L 1.267 -0.779 L 1.317 -0.774 L 1.368 -0.765 L 1.419 -0.751 L 1.470 -0.732 L 1.520 -0.708 L 1.569 -0.679 L 1.616 -0.645 L 1.661 -0.605 L 1.703 -0.561 L 1.743 -0.512 L 1.779 -0.458 L 1.812 -0.400 L 1.841 -0.338 L 1.866 -0.271 L 1.886 -0.201 L 1.901 -0.127 L 1.911 -0.051 L 1.916 0.029 L 1.916 0.111 L 1.911 0.195 L 1.900 0.280 L 1.883 0.367 L 1.861 0.454 L 1.834 0.542 L 1.801 0.631 L 1.764 0.719 L 1.721 0.806 L 1.673 0.893 L 1.621 0.978 L 1.564 1.062 L 1.503 1.144 L 1.437 1.224 L 1.368 1.301 L 1.296 1.376 L 1.220 1.449 L 1.141 1.518 L 1.060 1.583 L 0.976 1.646 L 0.890 1.705 L 0.803 1.759 L 0.714 1.810 L 0.624 1.857 L 0.534 1.899 L 0.443 1.938 L 0.352 1.971 L 0.262 2.000 L 0.172 2.024 L 0.084 2.044 L -0.003 2.058 L -0.088 2.068 L -0.172 2.072 L -0.252 2.072 L -0.330 2.066 L -0.405 2.056 L -0.476 2.040 L -0.544 2.020 L -0.608 1.995 L -0.667 1.965 L -0.722 1.930 L -0.773 1.891 L -0.819 1.848 L -0.860 1.800 L -0.897 1.749 L -0.929 1.694 L -0.956 1.635 L -0.978 1.574 L -0.996 1.509 L -1.010 1.443 L -1.020 1.373 L -1.027 1.302 L -1.030 1.230 L -1.030 1.156 L -1.028 1.081 L -1.024 1.006 L -1.018 0.930 L -1.011 0.854 L -1.004 0.778 L -0.996 0.703 L -0.988 0.628 L -0.981 0.553 L -0.975 0.479 L -0.970 0.406 L -0.967 0.334 L -0.966 0.262 L -0.967 0.191 L -0.970 0.121 L -0.975 0.051 L -0.983 -0.018 L -0.994 -0.086 L -1.007 -0.155 L -1.022 -0.223 L -1.040 -0.291 L -1.060 -0.360 L -1.082 -0.428 L -1.106 -0.498 L -1.132 -0.567 L -1.159 -0.638 L -1.187 -0.710 L -1.216 -0.782 L -1.246 -0.856 L -1.275 -0.930 L -1.305 -1.006 L -1.333 -1.084 L -1.361 -1.163 L -1.387 -1.243 L -1.412 -1.324 L -1.434 -1.407 L -1.453 -1.491 L -1.469 -1.576 L -1.482 -1.663 L -1.490 -1.750 L -1.493 -1.837 L -1.492 -1.925 L -1.484 -2.013 L -1.471 -2.101 L -1.451 -2.188 L -1.424 -2.273 L -1.390 -2.357 L -1.347 -2.439 L -1.297 -2.518 L -1.238 -2.593 L -1.171 -2.665 L -1.095 -2.731 L -1.010 -2.792 L -0.917 -2.847 L -0.815 -2.894 L -0.704 -2.934 L -0.586 -2.966 L -0.460 -2.988 L -0.327 -3.001 L -0.188 -3.003 L -0.044 -2.995 L 0.105 -2.975 L 0.257 -2.945 L 0.411 -2.902 L 0.566 -2.849 L 0.721 -2.784 L 0.874 -2.708 L 1.024 -2.622 L 1.170 -2.526 L 1.310 -2.421 L 1.444 -2.307 L 1.571 -2.187 L 1.688 -2.060 L 1.797 -1.927 L 1.895 -1.791 L 1.983 -1.652 L 2.060 -1.511 L 2.126 -1.370 L 2.180 -1.229 L 2.223 -1.089 L 2.256 -0.952 L 2.278 -0.818 L 2.289 -0.689 L 2.291 -0.564 L 2.283 -0.445 L 2.267 -0.332 L 2.243 -0.225 L 2.212 -0.126 L 2.175 -0.033 L 2.131 0.052 L 2.083 0.130 L 2.030 0.200 L 1.974 0.263 L 1.914 0.318 L 1.853 0.366 L 1.790 0.407 L 1.726 0.441 L 1.662 0.468 L 1.598 0.489 L 1.534 0.504 L 1.472 0.513 L 1.411 0.517 L 1.353 0.516 L 1.296 0.511 L 1.242 0.502 L 1.191 0.490 L 1.142 0.474 L 1.097 0.456 L 1.054 0.436 L 1.015 0.414 L 0.979 0.391 L 0.946 0.368 L 0.917 0.344 L 0.890 0.321 L 0.865 0.298 L 0.843 0.277 L 0.824 0.257 L 0.806 0.238 L 0.790 0.222 L 0.776 0.209 L 0.762 0.197 L 0.749 0.189 L 0.737 0.184 L 0.724 0.182 L 0.711 0.183 L 0.697 0.187 L 0.682 0.194 L 0.666 0.205 L 0.648 0.219 L 0.628 0.236 L 0.606 0.257 L 0.581 0.280 L 0.554 0.305 L 0.524 0.333 L 0.491 0.364 L 0.454 0.396 L 0.415 0.431 L 0.371 0.467 L 0.325 0.504 L 0.275 0.543 L 0.222 0.583 L 0.165 0.623 L 0.105 0.664 L 0.042 0.704 L -0.025 0.745 L -0.095 0.786 L -0.167 0.826 L -0.243 0.866 L -0.321 0.904 L -0.402 0.942 L -0.485 0.978 L -0.570 1.013 L -0.657 1.047 L -0.745 1.079 L -0.835 1.109 L -0.927 1.137 L -1.019 1.163 L -1.111 1.186 L -1.204 1.208 L -1.297 1.226 L -1.390 1.243 L -1.482 1.257 L -1.573 1.268 L -1.662 1.276 L -1.750 1.282 L -1.836 1.284 L -1.919 1.284 L -1.998 1.281 L -2.075 1.275 L -2.147 1.266 L -2.215 1.254 L -2.279 1.239 L -2.337 1.221 L -2.389 1.200 L -2.435 1.177 L -2.474 1.150 L -2.507 1.122 L -2.533 1.090 L -2.550 1.056 L -2.561 1.020 L -2.563 0.982 L -2.557 0.942 L -2.543 0.901 L -2.521 0.857 L -2.491 0.812 L -2.453 0.767 L -2.408 0.720 L -2.356 0.672 L -2.297 0.624 L -2.233 0.575 L -2.163 0.526 L -2.088 0.477 L -2.010 0.428 L -1.929 0.380 L -1.845 0.331 L -1.759 0.282 L -1.673 0.234 L -1.587 0.186 L -1.501 0.139 L -1.417 0.091 L -1.334 0.043 L -1.254 -0.004 L -1.176 -0.052 L -1.102 -0.100 L -1.031 -0.148 L -0.963 -0.197 L -0.900 -0.246 L -0.839 -0.296 L -0.783 -0.347 L -0.730 -0.399 L -0.680 -0.452 L -0.634 -0.507 L -0.590 -0.562 L -0.548 -0.619 L -0.509 -0.677 L -0.472 -0.737 L -0.436 -0.798 L -0.400 -0.860 L -0.365 -0.923 L -0.330 -0.988 L -0.295 -1.053 L -0.259 -1.120 L -0.221 -1.187 L -0.182 -1.254 L -0.140 -1.322 L -0.096 -1.390 L -0.049 -1.458 L 0.002 -1.525 L 0.056 -1.591 L 0.114 -1.655 L 0.177 -1.718 L 0.244 -1.779 L 0.315 -1.837 L 0.391 -1.892 L 0.472 -1.943 L 0.557 -1.991 L 0.647 -2.033 L 0.742 -2.071 L 0.840 -2.102 L 0.943 -2.128 L 1.050 -2.147 L 1.159 -2.160 L 1.272 -2.164 L 1.386 -2.162 L 1.502 -2.151 L 1.620 -2.131 L 1.737 -2.104 L 1.854 -2.067 L 1.970 -2.022 L 2.083 -1.969 L 2.194 -1.907 L 2.302 -1.837 L 2.405 -1.759 L 2.503 -1.673 L 2.595 -1.580 L 2.681 -1.480 L 2.761 -1.374 L 2.832 -1.263 L 2.896 -1.147 L 2.951 -1.027 L 2.998 -0.903 L 3.037 -0.776 L 3.066 -0.647 L 3.086 -0.517 L 3.097 -0.386 L 3.099 -0.255 L 3.093 -0.125 L 3.077 0.003 L 3.054 0.130 L 3.022 0.254 L 2.983 0.374 L 2.936 0.492 L 2.883 0.605 L 2.823 0.713 L 2.757 0.817 L 2.686 0.915 L 2.610 1.008 L 2.529 1.094 L 2.444 1.175 L 2.356 1.250 L 2.264 1.318 L 2.171 1.379 L 2.075 1.434 L 1.978 1.483 L 1.880 1.524 L 1.781 1.559 L 1.683 1.587 L 1.585 1.609 L 1.487 1.624 L 1.391 1.633 L 1.296 1.636 L 1.203 1.633 L 1.113 1.624 L 1.024 1.609 L 0.939 1.589 L 0.857 1.564 L 0.777 1.535 L 0.701 1.501 L 0.629 1.463 L 0.560 1.422 L 0.494 1.377 L 0.432 1.330 L 0.374 1.280 L 0.319 1.228 L 0.267 1.175 L 0.218 1.121 L 0.172 1.066 L 0.128 1.010 L 0.087 0.955 L 0.048 0.901 L 0.011 0.847 L -0.025 0.794 L -0.060 0.742 L -0.094 0.692 L -0.128 0.644 L -0.162 0.598 L -0.196 0.553 L -0.231 0.511 L -0.266 0.471 L -0.303 0.434 L -0.342 0.398 L -0.382 0.365 L -0.424 0.334 L -0.468 0.304 L -0.514 0.277 L -0.563 0.251 L -0.615 0.227 L -0.669 0.204 L -0.725 0.182 L -0.785 0.162 L -0.846 0.142 L -0.911 0.122 L -0.978 0.103 L -1.047 0.084 L -1.119 0.065 L -1.193 0.046 L -1.269 0.026 L -1.347 0.006 L -1.426 -0.015 L -1.508 -0.037 L -1.590 -0.060 L -1.673 -0.084 L -1.758 -0.110 L -1.842 -0.137 L -1.927 -0.166 L -2.012 -0.196 L -2.097 -0.228 L -2.181 -0.262 L -2.263 -0.298 L -2.344 -0.336 L -2.423 -0.375 L -2.500 -0.416 L -2.574 -0.459 L -2.645 -0.504 L -2.712 -0.550 L -2.774 -0.598 L -2.832 -0.646 L -2.884 -0.696 L -2.930 -0.747 L -2.970 -0.798 L -3.002 -0.850 L -3.027 -0.902 L -3.044 -0.953 L -3.052 -1.003 L -3.051 -1.052" class="knot-stroke" stroke-width="0.55" fill="none" stroke-linecap="round" stroke-linejoin="round" />
  </g>
</svg>
