<svg viewBox="-4 -4 8 8" width="64" height="64" xmlns="http://www.w3.org/2000/svg">
  <style>
    .knot-stroke { stroke: black; }
    .knot-halo   { stroke: white; }
    @media (prefers-color-scheme: dark) {
      .knot-stroke { stroke: white; }
      .knot-halo   { stroke: black; }
    }
  </style>
  <g>
    <path d="M -1.610 -2.557 L -1.490 -2.570 L -1.362 -2.573 L -1.226 -2.566 L -1.085 -2.549 L -0.938 -2.523 L -0.787 -2.486 L -0.633 -2.439 L -0.477 -2.382 L -0.322 -2.316 L -0.168 -2.241 L -0.017 -2.158 L 0.131 -2.068 L 0.273 -1.972 L 0.409 -1.870 L 0.538 -1.763 L 0.659 -1.653 L 0.771 -1.541 L 0.874 -1.428 L 0.967 -1.315 L 1.050 -1.202 L 1.123 -1.091 L 1.186 -0.983 L 1.240 -0.879 L 1.283 -0.778 L 1.318 -0.682 L 1.345 -0.592 L 1.363 -0.507 L 1.374 -0.428 L 1.378 -0.356 L 1.376 -0.290 L 1.369 -0.230 L 1.357 -0.177 L 1.341 -0.131 L 1.322 -0.091 L 1.301 -0.057 L 1.277 -0.029 L 1.252 -0.007 L 1.226 0.010 L 1.200 0.022 L 1.174 0.028 L 1.148 0.031 L 1.124 0.029 L 1.101 0.024 L 1.081 0.015 L 1.062 0.004 L 1.045 -0.009 L 1.031 -0.024 L 1.019 -0.040 L 1.010 -0.057 L 1.004 -0.075 L 1.000 -0.092 L 0.999 -0.109 L 1.000 -0.124 L 1.004 -0.139 L 1.010 -0.151 L 1.018 -0.161 L 1.027 -0.169 L 1.038 -0.174 L 1.049 -0.176 L 1.062 -0.175 L 1.075 -0.170 L 1.088 -0.162 L 1.100 -0.150 L 1.112 -0.134 L 1.122 -0.114 L 1.132 -0.090 L 1.139 -0.062 L 1.144 -0.031 L 1.147 0.004 L 1.147 0.043 L 1.144 0.085 L 1.138 0.130 L 1.128 0.178 L 1.114 0.229 L 1.097 0.282 L 1.076 0.337 L 1.051 0.395 L 1.021 0.454 L 0.988 0.514 L 0.950 0.575 L 0.909 0.637 L 0.863 0.700 L 0.813 0.763 L 0.759 0.826 L 0.701 0.889 L 0.640 0.951 L 0.575 1.012 L 0.507 1.073 L 0.436 1.132 L 0.361 1.190 L 0.284 1.246 L 0.204 1.300 L 0.122 1.352 L 0.038 1.402 L -0.048 1.450 L -0.136 1.495 L -0.224 1.538 L -0.314 1.577 L -0.404 1.614 L -0.495 1.648 L -0.586 1.678 L -0.677 1.705 L -0.766 1.729 L -0.855 1.749 L -0.943 1.766 L -1.028 1.779 L -1.112 1.788 L -1.193 1.793 L -1.271 1.795 L -1.346 1.792 L -1.417 1.786 L -1.484 1.776 L -1.547 1.762 L -1.605 1.743 L -1.658 1.721 L -1.706 1.695 L -1.747 1.665 L -1.783 1.632 L -1.813 1.595 L -1.837 1.554 L -1.854 1.510 L -1.864 1.463 L -1.868 1.412 L -1.866 1.359 L -1.858 1.304 L -1.843 1.246 L -1.823 1.186 L -1.798 1.124 L -1.768 1.060 L -1.733 0.995 L -1.694 0.929 L -1.652 0.862 L -1.607 0.794 L -1.560 0.726 L -1.511 0.657 L -1.461 0.589 L -1.411 0.520 L -1.361 0.451 L -1.312 0.382 L -1.263 0.314 L -1.216 0.245 L -1.172 0.177 L -1.129 0.109 L -1.089 0.041 L -1.051 -0.027 L -1.017 -0.095 L -0.985 -0.163 L -0.956 -0.232 L -0.930 -0.301 L -0.906 -0.370 L -0.885 -0.440 L -0.866 -0.510 L -0.850 -0.582 L -0.835 -0.654 L -0.821 -0.727 L -0.809 -0.802 L -0.797 -0.877 L -0.786 -0.953 L -0.775 -1.031 L -0.763 -1.110 L -0.750 -1.189 L -0.736 -1.270 L -0.720 -1.351 L -0.702 -1.433 L -0.681 -1.516 L -0.657 -1.600 L -0.629 -1.683 L -0.597 -1.766 L -0.561 -1.849 L -0.519 -1.931 L -0.473 -2.012 L -0.421 -2.092 L -0.363 -2.169 L -0.299 -2.244 L -0.229 -2.316 L -0.152 -2.384 L -0.069 -2.449 L 0.021 -2.508 L 0.117 -2.563 L 0.219 -2.611 L 0.328 -2.653 L 0.443 -2.687 L 0.563 -2.714 L 0.688 -2.733 L 0.818 -2.743 L 0.951 -2.743 L 1.087 -2.734 L 1.226 -2.715 L 1.365 -2.685 L 1.506 -2.646 L 1.645 -2.596 L 1.783 -2.535 L 1.918 -2.465 L 2.050 -2.384 L 2.177 -2.295 L 2.298 -2.196 L 2.413 -2.089 L 2.521 -1.975 L 2.620 -1.853 L 2.710 -1.726 L 2.791 -1.593 L 2.863 -1.456 L 2.923 -1.316 L 2.974 -1.174 L 3.014 -1.030 L 3.043 -0.885 L 3.062 -0.742 L 3.070 -0.599 L 3.068 -0.459 L 3.056 -0.321 L 3.035 -0.187 L 3.005 -0.058 L 2.966 0.067 L 2.920 0.186 L 2.866 0.300 L 2.805 0.407 L 2.739 0.508 L 2.667 0.602 L 2.590 0.688 L 2.509 0.768 L 2.424 0.840 L 2.337 0.905 L 2.247 0.963 L 2.155 1.013 L 2.063 1.056 L 1.970 1.091 L 1.876 1.120 L 1.783 1.142 L 1.691 1.157 L 1.601 1.166 L 1.512 1.169 L 1.425 1.167 L 1.340 1.158 L 1.258 1.145 L 1.179 1.127 L 1.103 1.105 L 1.030 1.080 L 0.961 1.050 L 0.895 1.018 L 0.833 0.984 L 0.774 0.947 L 0.718 0.909 L 0.666 0.869 L 0.617 0.829 L 0.571 0.789 L 0.527 0.749 L 0.487 0.709 L 0.448 0.671 L 0.411 0.633 L 0.376 0.598 L 0.343 0.564 L 0.310 0.532 L 0.278 0.502 L 0.246 0.475 L 0.214 0.451 L 0.182 0.429 L 0.149 0.409 L 0.115 0.393 L 0.080 0.379 L 0.043 0.368 L 0.004 0.359 L -0.036 0.353 L -0.079 0.349 L -0.125 0.348 L -0.173 0.348 L -0.223 0.350 L -0.277 0.354 L -0.333 0.359 L -0.392 0.365 L -0.454 0.373 L -0.519 0.381 L -0.586 0.390 L -0.657 0.399 L -0.730 0.408 L -0.805 0.417 L -0.884 0.426 L -0.964 0.434 L -1.047 0.442 L -1.132 0.449 L -1.218 0.455 L -1.306 0.460 L -1.396 0.463 L -1.487 0.466 L -1.579 0.466 L -1.671 0.465 L -1.764 0.462 L -1.857 0.458 L -1.950 0.451 L -2.042 0.443 L -2.133 0.432 L -2.223 0.420 L -2.311 0.405 L -2.398 0.388 L -2.481 0.370 L -2.562 0.349 L -2.639 0.326 L -2.712 0.301 L -2.781 0.274 L -2.845 0.246 L -2.903 0.216 L -2.955 0.184 L -3.001 0.151 L -3.039 0.117 L -3.070 0.082 L -3.093 0.046 L -3.107 0.010 L -3.112 -0.027 L -3.108 -0.063 L -3.094 -0.099 L -3.070 -0.134 L -3.036 -0.169 L -2.993 -0.202 L -2.939 -0.234 L -2.876 -0.264 L -2.804 -0.292 L -2.722 -0.318 L -2.632 -0.342 L -2.535 -0.363 L -2.431 -0.381 L -2.321 -0.397 L -2.205 -0.410 L -2.086 -0.421 L -1.964 -0.430 L -1.840 -0.436 L -1.715 -0.441 L -1.590 -0.444 L -1.467 -0.445 L -1.345 -0.445 L -1.227 -0.445 L -1.112 -0.444 L -1.001 -0.444 L -0.894 -0.444 L -0.793 -0.444 L -0.697 -0.446 L -0.607 -0.448 L -0.522 -0.453 L -0.442 -0.459 L -0.368 -0.468 L -0.299 -0.478 L -0.235 -0.491 L -0.176 -0.507 L -0.120 -0.525 L -0.069 -0.545 L -0.021 -0.569 L 0.025 -0.594 L 0.068 -0.623 L 0.110 -0.653 L 0.150 -0.686 L 0.189 -0.721 L 0.228 -0.757 L 0.267 -0.795 L 0.306 -0.835 L 0.346 -0.875 L 0.388 -0.916 L 0.432 -0.958 L 0.477 -1.000 L 0.525 -1.041 L 0.575 -1.081 L 0.628 -1.121 L 0.683 -1.158 L 0.742 -1.194 L 0.804 -1.228 L 0.868 -1.258 L 0.936 -1.285 L 1.006 -1.309 L 1.079 -1.328 L 1.154 -1.343 L 1.231 -1.353 L 1.310 -1.357 L 1.390 -1.357 L 1.472 -1.350 L 1.553 -1.337 L 1.635 -1.318 L 1.717 -1.293 L 1.797 -1.262 L 1.876 -1.223 L 1.953 -1.179 L 2.028 -1.128 L 2.099 -1.071 L 2.167 -1.008 L 2.230 -0.939 L 2.289 -0.864 L 2.343 -0.784 L 2.392 -0.700 L 2.435 -0.611 L 2.471 -0.518 L 2.502 -0.421 L 2.526 -0.322 L 2.543 -0.220 L 2.554 -0.115 L 2.557 -0.009 L 2.554 0.098 L 2.544 0.205 L 2.527 0.313 L 2.504 0.420 L 2.474 0.527 L 2.438 0.632 L 2.396 0.736 L 2.347 0.837 L 2.294 0.936 L 2.235 1.033 L 2.171 1.126 L 2.103 1.216 L 2.031 1.302 L 1.954 1.384 L 1.874 1.462 L 1.791 1.535 L 1.705 1.604 L 1.617 1.667 L 1.527 1.726 L 1.435 1.780 L 1.342 1.828 L 1.248 1.870 L 1.154 1.908 L 1.060 1.939 L 0.966 1.965 L 0.873 1.985 L 0.780 2.000 L 0.690 2.009 L 0.601 2.012 L 0.514 2.009 L 0.429 2.001 L 0.347 1.987 L 0.268 1.968 L 0.192 1.944 L 0.120 1.914 L 0.051 1.880 L -0.014 1.841 L -0.075 1.798 L -0.133 1.750 L -0.186 1.699 L -0.236 1.644 L -0.282 1.587 L -0.324 1.526 L -0.362 1.463 L -0.397 1.397 L -0.429 1.330 L -0.458 1.262 L -0.484 1.192 L -0.508 1.122 L -0.530 1.052 L -0.550 0.982 L -0.570 0.912 L -0.588 0.842 L -0.606 0.773 L -0.624 0.706 L -0.642 0.639 L -0.661 0.573 L -0.681 0.509 L -0.702 0.447 L -0.724 0.385 L -0.749 0.326 L -0.775 0.267 L -0.804 0.210 L -0.834 0.154 L -0.868 0.099 L -0.903 0.045 L -0.942 -0.008 L -0.982 -0.060 L -1.025 -0.112 L -1.071 -0.164 L -1.119 -0.215 L -1.169 -0.267 L -1.221 -0.319 L -1.275 -0.371 L -1.330 -0.424 L -1.387 -0.478 L -1.445 -0.533 L -1.504 -0.588 L -1.564 -0.645 L -1.624 -0.704 L -1.684 -0.763 L -1.744 -0.825 L -1.802 -0.887 L -1.860 -0.952 L -1.917 -1.018 L -1.971 -1.086 L -2.023 -1.155 L -2.072 -1.226 L -2.118 -1.299 L -2.160 -1.373 L -2.198 -1.447 L -2.231 -1.523 L -2.259 -1.600 L -2.281 -1.677 L -2.297 -1.754 L -2.305 -1.831 L -2.307 -1.907 L -2.300 -1.982 L -2.285 -2.056 L -2.261 -2.127 L -2.228 -2.195 L -2.186 -2.260 L -2.134 -2.320 L -2.071 -2.376 L -1.999 -2.426 L -1.916 -2.470 L -1.824 -2.507 L -1.722 -2.536 L -1.610 -2.557" class="knot-stroke" stroke-width="0.55" fill="none" stroke-linecap="round" stroke-linejoin="round" />
  </g>
</svg>
