<svg viewBox="-4 -4 8 8" width="64" height="64" xmlns="http://www.w3.org/2000/svg">
  <style>
    .knot-stroke { stroke: black; }
    .knot-halo   { stroke: white; }
    @media (prefers-color-scheme: dark) {
      .knot-stroke { stroke: white; }
      .knot-halo   { stroke: black; }
    }
  </style>
  <g>
    <path d="M -2.575 -1.886 L -2.509 -1.926 L -2.433 -1.960 L -2.346 -1.989 L -2.249 -2.010 L -2.142 -2.025 L -2.026 -2.032 L -1.902 -2.030 L -1.771 -2.021 L -1.633 -2.003 L -1.490 -1.977 L -1.343 -1.943 L -1.193 -1.901 L -1.041 -1.852 L -0.889 -1.795 L -0.739 -1.732 L -0.591 -1.664 L -0.446 -1.590 L -0.306 -1.513 L -0.173 -1.432 L -0.045 -1.349 L 0.075 -1.264 L 0.186 -1.179 L 0.290 -1.095 L 0.385 -1.011 L 0.471 -0.930 L 0.548 -0.851 L 0.617 -0.775 L 0.677 -0.704 L 0.729 -0.636 L 0.774 -0.574 L 0.811 -0.516 L 0.842 -0.464 L 0.866 -0.416 L 0.886 -0.375 L 0.900 -0.339 L 0.910 -0.308 L 0.917 -0.283 L 0.921 -0.263 L 0.923 -0.247 L 0.923 -0.237 L 0.922 -0.231 L 0.920 -0.229 L 0.918 -0.232 L 0.917 -0.237 L 0.916 -0.246 L 0.916 -0.258 L 0.918 -0.272 L 0.922 -0.287 L 0.927 -0.304 L 0.935 -0.322 L 0.945 -0.341 L 0.957 -0.360 L 0.972 -0.378 L 0.990 -0.396 L 1.009 -0.412 L 1.031 -0.426 L 1.055 -0.439 L 1.081 -0.449 L 1.109 -0.456 L 1.138 -0.460 L 1.168 -0.461 L 1.199 -0.458 L 1.230 -0.451 L 1.262 -0.440 L 1.293 -0.424 L 1.324 -0.405 L 1.353 -0.381 L 1.381 -0.353 L 1.408 -0.320 L 1.432 -0.283 L 1.453 -0.241 L 1.472 -0.196 L 1.487 -0.147 L 1.499 -0.093 L 1.508 -0.037 L 1.512 0.023 L 1.512 0.086 L 1.507 0.151 L 1.498 0.219 L 1.485 0.289 L 1.467 0.361 L 1.444 0.434 L 1.416 0.509 L 1.383 0.584 L 1.346 0.659 L 1.305 0.735 L 1.259 0.811 L 1.208 0.886 L 1.153 0.961 L 1.094 1.034 L 1.032 1.107 L 0.965 1.178 L 0.895 1.247 L 0.822 1.314 L 0.746 1.379 L 0.668 1.441 L 0.586 1.501 L 0.503 1.558 L 0.418 1.613 L 0.331 1.664 L 0.242 1.712 L 0.153 1.756 L 0.063 1.797 L -0.027 1.834 L -0.117 1.867 L -0.207 1.897 L -0.296 1.922 L -0.384 1.943 L -0.470 1.960 L -0.555 1.973 L -0.638 1.981 L -0.718 1.985 L -0.796 1.984 L -0.870 1.979 L -0.940 1.969 L -1.007 1.955 L -1.070 1.936 L -1.128 1.913 L -1.181 1.885 L -1.229 1.853 L -1.272 1.817 L -1.310 1.777 L -1.343 1.733 L -1.369 1.685 L -1.391 1.633 L -1.407 1.578 L -1.417 1.520 L -1.422 1.460 L -1.423 1.396 L -1.418 1.330 L -1.409 1.262 L -1.396 1.193 L -1.380 1.122 L -1.360 1.049 L -1.338 0.976 L -1.313 0.902 L -1.287 0.828 L -1.260 0.753 L -1.232 0.678 L -1.204 0.604 L -1.176 0.529 L -1.149 0.455 L -1.123 0.381 L -1.099 0.308 L -1.077 0.235 L -1.057 0.162 L -1.039 0.090 L -1.023 0.018 L -1.010 -0.053 L -1.000 -0.125 L -0.992 -0.196 L -0.987 -0.268 L -0.985 -0.340 L -0.984 -0.412 L -0.986 -0.485 L -0.990 -0.558 L -0.995 -0.632 L -1.002 -0.707 L -1.009 -0.783 L -1.018 -0.860 L -1.026 -0.938 L -1.035 -1.017 L -1.043 -1.097 L -1.050 -1.179 L -1.056 -1.261 L -1.060 -1.345 L -1.062 -1.430 L -1.062 -1.516 L -1.058 -1.603 L -1.050 -1.690 L -1.039 -1.778 L -1.023 -1.866 L -1.002 -1.954 L -0.975 -2.041 L -0.943 -2.128 L -0.905 -2.214 L -0.860 -2.298 L -0.808 -2.379 L -0.749 -2.458 L -0.682 -2.534 L -0.608 -2.606 L -0.527 -2.673 L -0.437 -2.735 L -0.340 -2.792 L -0.235 -2.841 L -0.123 -2.884 L -0.005 -2.918 L 0.121 -2.944 L 0.252 -2.961 L 0.389 -2.968 L 0.530 -2.964 L 0.675 -2.950 L 0.822 -2.926 L 0.972 -2.890 L 1.121 -2.843 L 1.271 -2.784 L 1.418 -2.715 L 1.563 -2.635 L 1.704 -2.545 L 1.839 -2.446 L 1.968 -2.337 L 2.090 -2.220 L 2.204 -2.096 L 2.308 -1.965 L 2.403 -1.830 L 2.488 -1.690 L 2.562 -1.546 L 2.625 -1.401 L 2.677 -1.254 L 2.718 -1.107 L 2.747 -0.962 L 2.766 -0.818 L 2.774 -0.677 L 2.771 -0.540 L 2.759 -0.407 L 2.738 -0.279 L 2.707 -0.157 L 2.669 -0.040 L 2.623 0.069 L 2.571 0.172 L 2.513 0.268 L 2.449 0.356 L 2.381 0.437 L 2.308 0.510 L 2.233 0.575 L 2.155 0.633 L 2.075 0.684 L 1.994 0.727 L 1.912 0.763 L 1.829 0.792 L 1.748 0.814 L 1.667 0.830 L 1.587 0.840 L 1.509 0.844 L 1.433 0.842 L 1.359 0.836 L 1.289 0.825 L 1.221 0.810 L 1.156 0.792 L 1.094 0.770 L 1.035 0.746 L 0.980 0.719 L 0.929 0.690 L 0.880 0.660 L 0.835 0.630 L 0.793 0.598 L 0.754 0.567 L 0.718 0.537 L 0.685 0.507 L 0.653 0.478 L 0.624 0.451 L 0.596 0.426 L 0.570 0.403 L 0.544 0.382 L 0.520 0.364 L 0.496 0.349 L 0.471 0.336 L 0.447 0.326 L 0.421 0.320 L 0.395 0.316 L 0.367 0.315 L 0.338 0.317 L 0.307 0.322 L 0.273 0.330 L 0.238 0.340 L 0.200 0.353 L 0.159 0.368 L 0.115 0.385 L 0.069 0.404 L 0.019 0.424 L -0.034 0.446 L -0.089 0.469 L -0.148 0.493 L -0.210 0.518 L -0.275 0.543 L -0.343 0.569 L -0.414 0.594 L -0.488 0.620 L -0.564 0.645 L -0.643 0.670 L -0.725 0.694 L -0.808 0.717 L -0.894 0.739 L -0.982 0.760 L -1.071 0.779 L -1.161 0.797 L -1.253 0.813 L -1.346 0.828 L -1.440 0.840 L -1.533 0.851 L -1.627 0.859 L -1.721 0.866 L -1.814 0.870 L -1.906 0.872 L -1.997 0.872 L -2.085 0.869 L -2.172 0.863 L -2.257 0.856 L -2.338 0.846 L -2.416 0.833 L -2.489 0.818 L -2.559 0.801 L -2.623 0.781 L -2.682 0.759 L -2.735 0.735 L -2.782 0.709 L -2.822 0.681 L -2.855 0.652 L -2.879 0.620 L -2.896 0.587 L -2.904 0.553 L -2.904 0.518 L -2.894 0.482 L -2.876 0.445 L -2.848 0.408 L -2.811 0.370 L -2.765 0.333 L -2.711 0.295 L -2.649 0.258 L -2.578 0.222 L -2.500 0.186 L -2.416 0.151 L -2.326 0.117 L -2.231 0.084 L -2.131 0.052 L -2.028 0.021 L -1.923 -0.009 L -1.817 -0.038 L -1.710 -0.066 L -1.603 -0.093 L -1.497 -0.120 L -1.393 -0.147 L -1.291 -0.173 L -1.193 -0.199 L -1.098 -0.226 L -1.007 -0.253 L -0.920 -0.281 L -0.838 -0.309 L -0.760 -0.339 L -0.687 -0.370 L -0.618 -0.402 L -0.553 -0.435 L -0.492 -0.471 L -0.435 -0.508 L -0.382 -0.547 L -0.332 -0.587 L -0.284 -0.630 L -0.238 -0.674 L -0.195 -0.720 L -0.153 -0.767 L -0.111 -0.817 L -0.070 -0.867 L -0.029 -0.919 L 0.012 -0.972 L 0.055 -1.026 L 0.099 -1.081 L 0.144 -1.136 L 0.192 -1.191 L 0.242 -1.246 L 0.295 -1.300 L 0.351 -1.353 L 0.410 -1.404 L 0.473 -1.454 L 0.539 -1.502 L 0.609 -1.547 L 0.683 -1.588 L 0.760 -1.627 L 0.841 -1.661 L 0.926 -1.690 L 1.013 -1.715 L 1.104 -1.734 L 1.197 -1.748 L 1.293 -1.755 L 1.391 -1.756 L 1.490 -1.750 L 1.590 -1.737 L 1.690 -1.716 L 1.790 -1.689 L 1.889 -1.654 L 1.987 -1.611 L 2.083 -1.561 L 2.175 -1.504 L 2.265 -1.439 L 2.350 -1.368 L 2.431 -1.290 L 2.506 -1.205 L 2.576 -1.115 L 2.639 -1.019 L 2.696 -0.918 L 2.746 -0.813 L 2.789 -0.704 L 2.824 -0.592 L 2.851 -0.477 L 2.871 -0.360 L 2.883 -0.242 L 2.886 -0.123 L 2.882 -0.003 L 2.870 0.116 L 2.851 0.235 L 2.824 0.352 L 2.790 0.467 L 2.750 0.580 L 2.702 0.691 L 2.649 0.797 L 2.590 0.901 L 2.525 1.000 L 2.455 1.095 L 2.380 1.185 L 2.302 1.271 L 2.219 1.351 L 2.133 1.426 L 2.044 1.495 L 1.953 1.559 L 1.860 1.616 L 1.765 1.668 L 1.669 1.714 L 1.572 1.753 L 1.475 1.786 L 1.378 1.813 L 1.281 1.834 L 1.186 1.849 L 1.091 1.858 L 0.999 1.860 L 0.908 1.857 L 0.819 1.848 L 0.733 1.833 L 0.649 1.813 L 0.569 1.788 L 0.492 1.758 L 0.418 1.723 L 0.348 1.683 L 0.281 1.640 L 0.218 1.593 L 0.159 1.542 L 0.103 1.489 L 0.051 1.433 L 0.002 1.374 L -0.044 1.314 L -0.086 1.253 L -0.126 1.190 L -0.163 1.127 L -0.198 1.063 L -0.231 0.999 L -0.262 0.936 L -0.292 0.874 L -0.321 0.812 L -0.350 0.752 L -0.378 0.692 L -0.407 0.635 L -0.435 0.579 L -0.465 0.525 L -0.496 0.473 L -0.528 0.422 L -0.562 0.374 L -0.598 0.327 L -0.635 0.282 L -0.675 0.238 L -0.718 0.196 L -0.762 0.156 L -0.810 0.116 L -0.859 0.078 L -0.912 0.040 L -0.967 0.003 L -1.024 -0.033 L -1.084 -0.070 L -1.146 -0.106 L -1.210 -0.142 L -1.276 -0.179 L -1.344 -0.216 L -1.414 -0.254 L -1.485 -0.292 L -1.557 -0.332 L -1.631 -0.373 L -1.705 -0.415 L -1.779 -0.458 L -1.854 -0.504 L -1.929 -0.550 L -2.002 -0.599 L -2.075 -0.649 L -2.147 -0.700 L -2.217 -0.754 L -2.285 -0.809 L -2.350 -0.866 L -2.413 -0.925 L -2.471 -0.985 L -2.526 -1.046 L -2.576 -1.109 L -2.622 -1.173 L -2.661 -1.237 L -2.695 -1.302 L -2.721 -1.367 L -2.741 -1.432 L -2.752 -1.496 L -2.755 -1.559 L -2.750 -1.621 L -2.735 -1.680 L -2.710 -1.737 L -2.676 -1.791 L -2.631 -1.840 L -2.575 -1.886" class="knot-stroke" stroke-width="0.55" fill="none" stroke-linecap="round" stroke-linejoin="round" />
  </g>
</svg>
