<svg viewBox="-4 -4 8 8" width="64" height="64" xmlns="http://www.w3.org/2000/svg">
  <style>
    .knot-stroke { stroke: black; }
    .knot-halo   { stroke: white; }
    @media (prefers-color-scheme: dark) {
      .knot-stroke { stroke: white; }
      .knot-halo   { stroke: black; }
    }
  </style>
  <g>
    <path d="M -2.920 -1.393 L -2.888 -1.440 L -2.846 -1.483 L -2.793 -1.522 L -2.729 -1.557 L -2.654 -1.587 L -2.570 -1.611 L -2.475 -1.630 L -2.370 -1.642 L -2.257 -1.647 L -2.135 -1.646 L -2.007 -1.638 L -1.872 -1.623 L -1.732 -1.601 L -1.588 -1.572 L -1.441 -1.537 L -1.293 -1.496 L -1.145 -1.449 L -0.999 -1.398 L -0.854 -1.342 L -0.714 -1.283 L -0.577 -1.221 L -0.447 -1.157 L -0.322 -1.092 L -0.205 -1.026 L -0.095 -0.961 L 0.007 -0.897 L 0.102 -0.834 L 0.188 -0.774 L 0.266 -0.717 L 0.337 -0.663 L 0.400 -0.612 L 0.455 -0.566 L 0.504 -0.524 L 0.547 -0.487 L 0.584 -0.455 L 0.616 -0.427 L 0.643 -0.404 L 0.666 -0.385 L 0.686 -0.372 L 0.703 -0.362 L 0.718 -0.358 L 0.731 -0.357 L 0.743 -0.360 L 0.754 -0.366 L 0.765 -0.376 L 0.777 -0.389 L 0.789 -0.404 L 0.802 -0.421 L 0.817 -0.440 L 0.833 -0.460 L 0.852 -0.482 L 0.872 -0.503 L 0.895 -0.525 L 0.920 -0.546 L 0.947 -0.566 L 0.977 -0.585 L 1.009 -0.602 L 1.043 -0.617 L 1.080 -0.630 L 1.118 -0.639 L 1.157 -0.645 L 1.199 -0.648 L 1.241 -0.647 L 1.284 -0.642 L 1.327 -0.632 L 1.370 -0.618 L 1.413 -0.599 L 1.455 -0.575 L 1.495 -0.547 L 1.534 -0.514 L 1.571 -0.476 L 1.606 -0.433 L 1.637 -0.386 L 1.666 -0.335 L 1.691 -0.279 L 1.712 -0.219 L 1.729 -0.156 L 1.741 -0.089 L 1.749 -0.019 L 1.752 0.054 L 1.751 0.130 L 1.744 0.207 L 1.732 0.287 L 1.715 0.368 L 1.693 0.450 L 1.666 0.532 L 1.633 0.616 L 1.596 0.699 L 1.554 0.782 L 1.507 0.864 L 1.455 0.946 L 1.400 1.026 L 1.339 1.105 L 1.275 1.183 L 1.208 1.258 L 1.136 1.331 L 1.062 1.401 L 0.984 1.469 L 0.904 1.534 L 0.821 1.596 L 0.737 1.654 L 0.650 1.709 L 0.562 1.761 L 0.473 1.808 L 0.384 1.852 L 0.293 1.892 L 0.203 1.927 L 0.113 1.958 L 0.023 1.985 L -0.066 2.007 L -0.153 2.025 L -0.239 2.038 L -0.322 2.046 L -0.404 2.049 L -0.482 2.048 L -0.558 2.042 L -0.630 2.031 L -0.699 2.015 L -0.764 1.995 L -0.824 1.969 L -0.880 1.939 L -0.932 1.905 L -0.978 1.866 L -1.020 1.823 L -1.057 1.776 L -1.089 1.725 L -1.115 1.671 L -1.137 1.613 L -1.154 1.552 L -1.166 1.488 L -1.174 1.422 L -1.177 1.353 L -1.177 1.283 L -1.173 1.211 L -1.166 1.137 L -1.157 1.063 L -1.145 0.988 L -1.132 0.912 L -1.117 0.836 L -1.102 0.760 L -1.087 0.684 L -1.071 0.609 L -1.056 0.534 L -1.042 0.459 L -1.030 0.385 L -1.019 0.312 L -1.010 0.239 L -1.003 0.167 L -0.998 0.096 L -0.996 0.025 L -0.997 -0.046 L -1.000 -0.117 L -1.005 -0.187 L -1.013 -0.257 L -1.023 -0.328 L -1.036 -0.398 L -1.050 -0.470 L -1.066 -0.541 L -1.084 -0.614 L -1.104 -0.687 L -1.124 -0.761 L -1.145 -0.836 L -1.166 -0.912 L -1.187 -0.990 L -1.208 -1.068 L -1.228 -1.149 L -1.247 -1.230 L -1.264 -1.312 L -1.279 -1.396 L -1.291 -1.481 L -1.300 -1.568 L -1.306 -1.655 L -1.308 -1.742 L -1.305 -1.831 L -1.297 -1.919 L -1.284 -2.008 L -1.265 -2.096 L -1.240 -2.183 L -1.208 -2.270 L -1.169 -2.354 L -1.123 -2.436 L -1.069 -2.516 L -1.007 -2.592 L -0.936 -2.664 L -0.857 -2.731 L -0.770 -2.793 L -0.675 -2.849 L -0.571 -2.898 L -0.460 -2.939 L -0.341 -2.972 L -0.214 -2.997 L -0.081 -3.011 L 0.057 -3.016 L 0.201 -3.009 L 0.348 -2.992 L 0.499 -2.964 L 0.652 -2.924 L 0.805 -2.873 L 0.958 -2.810 L 1.110 -2.737 L 1.258 -2.653 L 1.402 -2.558 L 1.541 -2.455 L 1.674 -2.342 L 1.798 -2.222 L 1.915 -2.095 L 2.022 -1.963 L 2.119 -1.825 L 2.205 -1.685 L 2.281 -1.541 L 2.346 -1.397 L 2.399 -1.252 L 2.441 -1.109 L 2.472 -0.967 L 2.492 -0.828 L 2.501 -0.692 L 2.501 -0.561 L 2.491 -0.436 L 2.472 -0.315 L 2.444 -0.202 L 2.409 -0.094 L 2.368 0.006 L 2.320 0.099 L 2.266 0.184 L 2.208 0.262 L 2.146 0.333 L 2.081 0.396 L 2.012 0.451 L 1.943 0.499 L 1.871 0.540 L 1.799 0.573 L 1.727 0.600 L 1.655 0.621 L 1.584 0.635 L 1.515 0.644 L 1.447 0.647 L 1.381 0.645 L 1.317 0.639 L 1.256 0.629 L 1.198 0.615 L 1.143 0.597 L 1.091 0.577 L 1.043 0.555 L 0.997 0.531 L 0.955 0.506 L 0.916 0.480 L 0.881 0.454 L 0.848 0.427 L 0.818 0.402 L 0.790 0.377 L 0.765 0.353 L 0.742 0.331 L 0.720 0.311 L 0.700 0.294 L 0.681 0.278 L 0.663 0.266 L 0.645 0.256 L 0.628 0.249 L 0.610 0.246 L 0.591 0.245 L 0.571 0.248 L 0.550 0.254 L 0.528 0.263 L 0.503 0.274 L 0.477 0.289 L 0.448 0.307 L 0.416 0.327 L 0.382 0.350 L 0.345 0.374 L 0.305 0.401 L 0.261 0.430 L 0.215 0.460 L 0.165 0.492 L 0.112 0.525 L 0.055 0.558 L -0.005 0.593 L -0.067 0.627 L -0.134 0.662 L -0.203 0.697 L -0.275 0.732 L -0.350 0.766 L -0.427 0.800 L -0.507 0.833 L -0.590 0.864 L -0.675 0.895 L -0.761 0.924 L -0.849 0.952 L -0.939 0.978 L -1.031 1.002 L -1.123 1.025 L -1.216 1.045 L -1.309 1.064 L -1.402 1.080 L -1.496 1.093 L -1.589 1.105 L -1.681 1.113 L -1.771 1.120 L -1.860 1.123 L -1.948 1.124 L -2.032 1.123 L -2.114 1.118 L -2.193 1.111 L -2.267 1.101 L -2.338 1.089 L -2.404 1.074 L -2.464 1.056 L -2.520 1.035 L -2.569 1.012 L -2.611 0.987 L -2.647 0.959 L -2.675 0.929 L -2.696 0.897 L -2.708 0.863 L -2.713 0.827 L -2.709 0.789 L -2.696 0.751 L -2.675 0.710 L -2.646 0.669 L -2.608 0.627 L -2.562 0.584 L -2.509 0.541 L -2.448 0.498 L -2.381 0.454 L -2.307 0.411 L -2.228 0.368 L -2.144 0.325 L -2.057 0.282 L -1.966 0.240 L -1.873 0.198 L -1.779 0.157 L -1.684 0.116 L -1.589 0.076 L -1.495 0.036 L -1.403 -0.004 L -1.313 -0.044 L -1.225 -0.084 L -1.141 -0.124 L -1.060 -0.164 L -0.983 -0.205 L -0.910 -0.246 L -0.840 -0.289 L -0.775 -0.332 L -0.713 -0.376 L -0.656 -0.422 L -0.601 -0.469 L -0.551 -0.517 L -0.503 -0.567 L -0.457 -0.618 L -0.414 -0.670 L -0.373 -0.725 L -0.333 -0.780 L -0.294 -0.837 L -0.256 -0.896 L -0.218 -0.955 L -0.179 -1.016 L -0.140 -1.077 L -0.099 -1.140 L -0.057 -1.202 L -0.012 -1.265 L 0.035 -1.328 L 0.085 -1.391 L 0.138 -1.452 L 0.195 -1.513 L 0.255 -1.572 L 0.319 -1.629 L 0.388 -1.684 L 0.460 -1.736 L 0.537 -1.785 L 0.618 -1.830 L 0.704 -1.871 L 0.793 -1.907 L 0.887 -1.938 L 0.984 -1.964 L 1.084 -1.983 L 1.187 -1.996 L 1.293 -2.001 L 1.401 -2.000 L 1.511 -1.991 L 1.622 -1.974 L 1.732 -1.949 L 1.843 -1.917 L 1.952 -1.876 L 2.059 -1.826 L 2.164 -1.769 L 2.266 -1.704 L 2.364 -1.632 L 2.457 -1.551 L 2.545 -1.464 L 2.627 -1.371 L 2.702 -1.271 L 2.771 -1.166 L 2.832 -1.056 L 2.886 -0.941 L 2.931 -0.823 L 2.968 -0.702 L 2.997 -0.579 L 3.017 -0.454 L 3.029 -0.327 L 3.032 -0.201 L 3.026 -0.075 L 3.013 0.051 L 2.991 0.174 L 2.961 0.296 L 2.924 0.415 L 2.880 0.531 L 2.829 0.643 L 2.772 0.752 L 2.708 0.856 L 2.640 0.955 L 2.566 1.049 L 2.487 1.138 L 2.405 1.221 L 2.319 1.298 L 2.229 1.369 L 2.137 1.435 L 2.043 1.493 L 1.947 1.546 L 1.850 1.592 L 1.752 1.631 L 1.654 1.664 L 1.556 1.691 L 1.458 1.711 L 1.361 1.724 L 1.266 1.732 L 1.172 1.733 L 1.080 1.729 L 0.990 1.718 L 0.903 1.702 L 0.818 1.681 L 0.737 1.655 L 0.659 1.624 L 0.584 1.589 L 0.513 1.549 L 0.445 1.506 L 0.380 1.460 L 0.320 1.410 L 0.262 1.358 L 0.209 1.304 L 0.158 1.248 L 0.110 1.191 L 0.066 1.133 L 0.024 1.074 L -0.016 1.015 L -0.053 0.957 L -0.089 0.899 L -0.124 0.842 L -0.157 0.786 L -0.190 0.731 L -0.222 0.678 L -0.254 0.626 L -0.287 0.577 L -0.320 0.530 L -0.354 0.484 L -0.389 0.441 L -0.426 0.400 L -0.465 0.360 L -0.505 0.323 L -0.548 0.287 L -0.593 0.254 L -0.640 0.222 L -0.690 0.191 L -0.742 0.161 L -0.797 0.133 L -0.855 0.106 L -0.915 0.079 L -0.977 0.052 L -1.043 0.026 L -1.110 0.000 L -1.180 -0.026 L -1.252 -0.052 L -1.325 -0.079 L -1.401 -0.106 L -1.478 -0.135 L -1.556 -0.164 L -1.636 -0.194 L -1.716 -0.226 L -1.797 -0.259 L -1.879 -0.294 L -1.960 -0.330 L -2.041 -0.368 L -2.121 -0.408 L -2.201 -0.450 L -2.279 -0.493 L -2.355 -0.538 L -2.429 -0.585 L -2.500 -0.634 L -2.568 -0.684 L -2.632 -0.736 L -2.692 -0.789 L -2.747 -0.843 L -2.797 -0.899 L -2.842 -0.955 L -2.879 -1.012 L -2.910 -1.069 L -2.934 -1.125 L -2.949 -1.182 L -2.956 -1.237 L -2.954 -1.291 L -2.942 -1.343 L -2.920 -1.393" class="knot-stroke" stroke-width="0.55" fill="none" stroke-linecap="round" stroke-linejoin="round" />
  </g>
</svg>
