<svg viewBox="-4 -4 8 8" width="64" height="64" xmlns="http://www.w3.org/2000/svg">
  <style>
    .knot-stroke { stroke: black; }
    .knot-halo   { stroke: white; }
    @media (prefers-color-scheme: dark) {
      .knot-stroke { stroke: white; }
      .knot-halo   { stroke: black; }
    }
  </style>
  <g>
    <path d="M -2.710 -1.726 L -2.656 -1.769 L -2.591 -1.807 L -2.515 -1.840 L -2.429 -1.867 L -2.333 -1.887 L -2.227 -1.901 L -2.112 -1.907 L -1.989 -1.905 L -1.858 -1.896 L -1.721 -1.879 L -1.579 -1.854 L -1.433 -1.821 L -1.284 -1.781 L -1.133 -1.734 L -0.983 -1.681 L -0.833 -1.621 L -0.686 -1.557 L -0.543 -1.488 L -0.404 -1.415 L -0.271 -1.340 L -0.145 -1.262 L -0.025 -1.184 L 0.086 -1.105 L 0.189 -1.027 L 0.284 -0.950 L 0.370 -0.876 L 0.448 -0.804 L 0.518 -0.736 L 0.579 -0.671 L 0.632 -0.611 L 0.679 -0.555 L 0.718 -0.504 L 0.751 -0.459 L 0.778 -0.418 L 0.800 -0.383 L 0.817 -0.352 L 0.831 -0.327 L 0.841 -0.308 L 0.849 -0.293 L 0.855 -0.282 L 0.859 -0.277 L 0.862 -0.275 L 0.865 -0.277 L 0.867 -0.283 L 0.871 -0.292 L 0.875 -0.304 L 0.880 -0.318 L 0.887 -0.334 L 0.895 -0.351 L 0.906 -0.370 L 0.919 -0.389 L 0.934 -0.409 L 0.952 -0.428 L 0.971 -0.447 L 0.994 -0.464 L 1.018 -0.480 L 1.045 -0.494 L 1.074 -0.505 L 1.104 -0.514 L 1.137 -0.520 L 1.170 -0.522 L 1.205 -0.521 L 1.240 -0.515 L 1.275 -0.506 L 1.310 -0.492 L 1.345 -0.474 L 1.379 -0.452 L 1.412 -0.425 L 1.443 -0.393 L 1.472 -0.357 L 1.499 -0.317 L 1.523 -0.272 L 1.544 -0.223 L 1.561 -0.170 L 1.575 -0.114 L 1.584 -0.054 L 1.590 0.010 L 1.591 0.076 L 1.587 0.145 L 1.579 0.216 L 1.566 0.289 L 1.549 0.364 L 1.526 0.440 L 1.498 0.518 L 1.466 0.595 L 1.429 0.674 L 1.387 0.752 L 1.341 0.830 L 1.290 0.908 L 1.235 0.984 L 1.176 1.060 L 1.113 1.134 L 1.046 1.206 L 0.976 1.277 L 0.902 1.345 L 0.826 1.411 L 0.746 1.474 L 0.665 1.535 L 0.581 1.593 L 0.495 1.648 L 0.408 1.699 L 0.320 1.747 L 0.230 1.791 L 0.140 1.832 L 0.050 1.869 L -0.040 1.901 L -0.130 1.930 L -0.219 1.954 L -0.306 1.974 L -0.393 1.990 L -0.477 2.002 L -0.559 2.008 L -0.639 2.011 L -0.716 2.008 L -0.789 2.001 L -0.859 1.990 L -0.925 1.973 L -0.987 1.953 L -1.044 1.927 L -1.097 1.897 L -1.145 1.863 L -1.187 1.825 L -1.224 1.782 L -1.256 1.736 L -1.283 1.686 L -1.304 1.632 L -1.320 1.575 L -1.331 1.515 L -1.337 1.452 L -1.338 1.387 L -1.335 1.319 L -1.328 1.250 L -1.317 1.179 L -1.303 1.106 L -1.286 1.033 L -1.266 0.958 L -1.245 0.883 L -1.222 0.808 L -1.199 0.733 L -1.175 0.658 L -1.151 0.583 L -1.128 0.508 L -1.106 0.433 L -1.085 0.360 L -1.066 0.286 L -1.049 0.213 L -1.034 0.141 L -1.021 0.069 L -1.011 -0.003 L -1.004 -0.075 L -0.999 -0.146 L -0.996 -0.217 L -0.997 -0.289 L -0.999 -0.361 L -1.004 -0.433 L -1.010 -0.505 L -1.019 -0.579 L -1.029 -0.653 L -1.040 -0.727 L -1.052 -0.803 L -1.065 -0.880 L -1.078 -0.958 L -1.090 -1.037 L -1.102 -1.118 L -1.113 -1.200 L -1.123 -1.282 L -1.131 -1.367 L -1.136 -1.452 L -1.139 -1.538 L -1.138 -1.625 L -1.134 -1.713 L -1.125 -1.801 L -1.112 -1.889 L -1.093 -1.978 L -1.069 -2.065 L -1.039 -2.153 L -1.003 -2.239 L -0.960 -2.323 L -0.910 -2.405 L -0.852 -2.484 L -0.787 -2.560 L -0.714 -2.633 L -0.633 -2.700 L -0.544 -2.762 L -0.447 -2.818 L -0.343 -2.868 L -0.231 -2.910 L -0.112 -2.944 L 0.014 -2.970 L 0.146 -2.986 L 0.284 -2.992 L 0.426 -2.988 L 0.572 -2.973 L 0.721 -2.947 L 0.871 -2.909 L 1.023 -2.861 L 1.173 -2.801 L 1.322 -2.730 L 1.468 -2.649 L 1.610 -2.557 L 1.747 -2.456 L 1.877 -2.346 L 2.000 -2.228 L 2.115 -2.103 L 2.220 -1.971 L 2.316 -1.834 L 2.402 -1.694 L 2.476 -1.550 L 2.540 -1.404 L 2.592 -1.258 L 2.633 -1.112 L 2.663 -0.967 L 2.682 -0.824 L 2.690 -0.685 L 2.688 -0.549 L 2.676 -0.418 L 2.655 -0.293 L 2.626 -0.173 L 2.588 -0.059 L 2.544 0.048 L 2.492 0.147 L 2.435 0.240 L 2.373 0.325 L 2.306 0.402 L 2.236 0.472 L 2.163 0.534 L 2.087 0.589 L 2.010 0.636 L 1.931 0.676 L 1.852 0.709 L 1.773 0.735 L 1.695 0.755 L 1.617 0.768 L 1.541 0.776 L 1.467 0.778 L 1.395 0.775 L 1.325 0.767 L 1.258 0.755 L 1.194 0.739 L 1.134 0.720 L 1.076 0.698 L 1.022 0.674 L 0.971 0.647 L 0.923 0.619 L 0.879 0.591 L 0.838 0.561 L 0.800 0.532 L 0.765 0.502 L 0.732 0.474 L 0.702 0.447 L 0.674 0.421 L 0.647 0.397 L 0.622 0.375 L 0.599 0.355 L 0.576 0.338 L 0.554 0.324 L 0.531 0.312 L 0.509 0.304 L 0.486 0.298 L 0.462 0.295 L 0.437 0.296 L 0.410 0.299 L 0.382 0.306 L 0.351 0.315 L 0.319 0.327 L 0.283 0.341 L 0.246 0.358 L 0.205 0.377 L 0.161 0.398 L 0.115 0.421 L 0.065 0.445 L 0.012 0.471 L -0.044 0.497 L -0.103 0.525 L -0.165 0.553 L -0.231 0.582 L -0.299 0.611 L -0.371 0.639 L -0.445 0.668 L -0.522 0.696 L -0.601 0.724 L -0.683 0.750 L -0.767 0.776 L -0.853 0.800 L -0.941 0.824 L -1.030 0.845 L -1.121 0.866 L -1.213 0.884 L -1.306 0.901 L -1.400 0.915 L -1.494 0.928 L -1.587 0.938 L -1.681 0.947 L -1.773 0.952 L -1.865 0.956 L -1.955 0.957 L -2.044 0.956 L -2.130 0.952 L -2.214 0.945 L -2.294 0.936 L -2.371 0.925 L -2.444 0.911 L -2.512 0.895 L -2.575 0.876 L -2.633 0.855 L -2.685 0.831 L -2.730 0.806 L -2.769 0.778 L -2.800 0.748 L -2.823 0.717 L -2.838 0.684 L -2.845 0.649 L -2.844 0.614 L -2.833 0.577 L -2.814 0.539 L -2.785 0.501 L -2.748 0.462 L -2.702 0.423 L -2.648 0.384 L -2.586 0.345 L -2.516 0.306 L -2.440 0.268 L -2.357 0.230 L -2.269 0.193 L -2.176 0.157 L -2.079 0.122 L -1.979 0.087 L -1.878 0.053 L -1.775 0.020 L -1.672 -0.012 L -1.569 -0.044 L -1.468 -0.075 L -1.368 -0.106 L -1.271 -0.137 L -1.177 -0.168 L -1.087 -0.200 L -1.000 -0.232 L -0.918 -0.264 L -0.840 -0.298 L -0.766 -0.332 L -0.696 -0.368 L -0.631 -0.405 L -0.570 -0.443 L -0.512 -0.483 L -0.458 -0.524 L -0.407 -0.568 L -0.359 -0.612 L -0.313 -0.659 L -0.270 -0.707 L -0.228 -0.757 L -0.186 -0.809 L -0.146 -0.861 L -0.106 -0.916 L -0.065 -0.971 L -0.024 -1.027 L 0.019 -1.084 L 0.063 -1.142 L 0.110 -1.199 L 0.158 -1.257 L 0.209 -1.314 L 0.264 -1.370 L 0.321 -1.426 L 0.382 -1.479 L 0.447 -1.531 L 0.516 -1.580 L 0.588 -1.626 L 0.664 -1.669 L 0.745 -1.708 L 0.829 -1.743 L 0.916 -1.773 L 1.007 -1.798 L 1.101 -1.817 L 1.198 -1.830 L 1.297 -1.837 L 1.398 -1.837 L 1.501 -1.830 L 1.605 -1.816 L 1.708 -1.794 L 1.812 -1.765 L 1.914 -1.728 L 2.015 -1.683 L 2.114 -1.630 L 2.210 -1.570 L 2.302 -1.503 L 2.390 -1.429 L 2.473 -1.348 L 2.551 -1.260 L 2.623 -1.167 L 2.688 -1.068 L 2.746 -0.964 L 2.797 -0.856 L 2.841 -0.744 L 2.877 -0.629 L 2.905 -0.511 L 2.925 -0.391 L 2.936 -0.270 L 2.940 -0.148 L 2.936 -0.026 L 2.923 0.095 L 2.903 0.216 L 2.875 0.335 L 2.841 0.451 L 2.799 0.565 L 2.750 0.676 L 2.696 0.784 L 2.635 0.888 L 2.569 0.987 L 2.498 1.082 L 2.422 1.172 L 2.342 1.257 L 2.258 1.336 L 2.171 1.410 L 2.081 1.478 L 1.989 1.540 L 1.894 1.596 L 1.799 1.646 L 1.702 1.690 L 1.604 1.727 L 1.507 1.758 L 1.409 1.783 L 1.313 1.801 L 1.217 1.814 L 1.123 1.820 L 1.030 1.820 L 0.939 1.814 L 0.851 1.803 L 0.765 1.786 L 0.682 1.764 L 0.603 1.737 L 0.526 1.704 L 0.453 1.668 L 0.383 1.627 L 0.317 1.582 L 0.255 1.534 L 0.196 1.483 L 0.141 1.429 L 0.089 1.373 L 0.040 1.314 L -0.005 1.254 L -0.047 1.194 L -0.087 1.132 L -0.125 1.070 L -0.160 1.008 L -0.193 0.946 L -0.225 0.885 L -0.256 0.825 L -0.287 0.766 L -0.316 0.708 L -0.346 0.652 L -0.376 0.598 L -0.407 0.545 L -0.439 0.495 L -0.472 0.446 L -0.506 0.399 L -0.543 0.354 L -0.581 0.311 L -0.621 0.269 L -0.664 0.230 L -0.709 0.191 L -0.756 0.154 L -0.806 0.118 L -0.858 0.084 L -0.914 0.049 L -0.971 0.016 L -1.031 -0.017 L -1.094 -0.050 L -1.159 -0.083 L -1.225 -0.116 L -1.294 -0.149 L -1.365 -0.183 L -1.437 -0.218 L -1.511 -0.253 L -1.586 -0.290 L -1.662 -0.328 L -1.739 -0.367 L -1.816 -0.408 L -1.893 -0.450 L -1.970 -0.494 L -2.046 -0.539 L -2.121 -0.586 L -2.195 -0.636 L -2.267 -0.686 L -2.337 -0.739 L -2.405 -0.793 L -2.469 -0.849 L -2.530 -0.906 L -2.587 -0.965 L -2.639 -1.025 L -2.686 -1.086 L -2.727 -1.148 L -2.762 -1.210 L -2.791 -1.272 L -2.812 -1.334 L -2.825 -1.396 L -2.829 -1.457 L -2.825 -1.515 L -2.811 -1.572 L -2.788 -1.627 L -2.754 -1.678 L -2.710 -1.726" class="knot-stroke" stroke-width="0.55" fill="none" stroke-linecap="round" stroke-linejoin="round" />
  </g>
</svg>
