<svg viewBox="-4 -4 8 8" width="64" height="64" xmlns="http://www.w3.org/2000/svg">
  <style>
    .knot-stroke { stroke: black; }
    .knot-halo   { stroke: white; }
    @media (prefers-color-scheme: dark) {
      .knot-stroke { stroke: white; }
      .knot-halo   { stroke: black; }
    }
  </style>
  <g>
    <path d="M -2.825 -1.561 L -2.782 -1.606 L -2.728 -1.647 L -2.664 -1.684 L -2.589 -1.715 L -2.504 -1.741 L -2.408 -1.760 L -2.303 -1.773 L -2.189 -1.778 L -2.067 -1.777 L -1.937 -1.768 L -1.801 -1.752 L -1.660 -1.728 L -1.515 -1.697 L -1.367 -1.660 L -1.217 -1.615 L -1.068 -1.565 L -0.920 -1.510 L -0.774 -1.449 L -0.632 -1.385 L -0.495 -1.317 L -0.363 -1.248 L -0.237 -1.176 L -0.119 -1.104 L -0.008 -1.032 L 0.095 -0.961 L 0.190 -0.891 L 0.276 -0.824 L 0.354 -0.759 L 0.424 -0.698 L 0.486 -0.641 L 0.541 -0.587 L 0.589 -0.539 L 0.630 -0.495 L 0.665 -0.456 L 0.694 -0.421 L 0.719 -0.392 L 0.740 -0.368 L 0.756 -0.349 L 0.770 -0.334 L 0.781 -0.324 L 0.791 -0.319 L 0.799 -0.317 L 0.806 -0.320 L 0.813 -0.326 L 0.820 -0.335 L 0.828 -0.347 L 0.837 -0.362 L 0.847 -0.378 L 0.859 -0.397 L 0.872 -0.416 L 0.888 -0.436 L 0.906 -0.457 L 0.926 -0.477 L 0.948 -0.497 L 0.973 -0.515 L 1.000 -0.533 L 1.030 -0.548 L 1.061 -0.561 L 1.095 -0.572 L 1.130 -0.579 L 1.167 -0.584 L 1.205 -0.584 L 1.243 -0.581 L 1.282 -0.573 L 1.322 -0.562 L 1.361 -0.546 L 1.399 -0.525 L 1.437 -0.499 L 1.473 -0.469 L 1.507 -0.434 L 1.538 -0.395 L 1.568 -0.351 L 1.594 -0.303 L 1.617 -0.251 L 1.636 -0.194 L 1.651 -0.134 L 1.662 -0.071 L 1.669 -0.004 L 1.671 0.065 L 1.669 0.138 L 1.661 0.212 L 1.649 0.288 L 1.632 0.366 L 1.609 0.445 L 1.582 0.525 L 1.550 0.606 L 1.512 0.687 L 1.470 0.768 L 1.424 0.848 L 1.373 0.927 L 1.317 1.006 L 1.258 1.083 L 1.194 1.159 L 1.127 1.233 L 1.056 1.305 L 0.982 1.374 L 0.905 1.441 L 0.825 1.505 L 0.743 1.567 L 0.659 1.625 L 0.573 1.680 L 0.485 1.731 L 0.397 1.779 L 0.307 1.823 L 0.217 1.863 L 0.127 1.900 L 0.037 1.932 L -0.053 1.959 L -0.142 1.983 L -0.229 2.002 L -0.315 2.016 L -0.399 2.026 L -0.481 2.031 L -0.560 2.032 L -0.636 2.028 L -0.709 2.019 L -0.779 2.005 L -0.844 1.987 L -0.905 1.964 L -0.962 1.936 L -1.014 1.904 L -1.061 1.867 L -1.103 1.827 L -1.140 1.782 L -1.172 1.733 L -1.198 1.681 L -1.220 1.625 L -1.236 1.566 L -1.248 1.504 L -1.254 1.439 L -1.257 1.372 L -1.255 1.303 L -1.249 1.232 L -1.240 1.160 L -1.228 1.086 L -1.214 1.012 L -1.197 0.937 L -1.180 0.861 L -1.161 0.786 L -1.141 0.710 L -1.121 0.634 L -1.102 0.559 L -1.084 0.484 L -1.066 0.410 L -1.050 0.336 L -1.036 0.263 L -1.024 0.191 L -1.015 0.118 L -1.007 0.047 L -1.002 -0.025 L -1.000 -0.096 L -1.000 -0.167 L -1.003 -0.238 L -1.008 -0.309 L -1.016 -0.380 L -1.026 -0.452 L -1.037 -0.524 L -1.050 -0.597 L -1.065 -0.671 L -1.081 -0.745 L -1.097 -0.821 L -1.114 -0.898 L -1.131 -0.976 L -1.148 -1.055 L -1.164 -1.135 L -1.179 -1.217 L -1.192 -1.300 L -1.204 -1.384 L -1.212 -1.469 L -1.218 -1.555 L -1.221 -1.642 L -1.219 -1.730 L -1.214 -1.818 L -1.203 -1.907 L -1.187 -1.996 L -1.166 -2.084 L -1.138 -2.171 L -1.104 -2.257 L -1.063 -2.342 L -1.015 -2.424 L -0.959 -2.504 L -0.895 -2.580 L -0.823 -2.652 L -0.743 -2.720 L -0.655 -2.782 L -0.559 -2.838 L -0.455 -2.887 L -0.343 -2.929 L -0.224 -2.963 L -0.098 -2.987 L 0.035 -3.003 L 0.173 -3.008 L 0.316 -3.003 L 0.463 -2.987 L 0.613 -2.960 L 0.765 -2.921 L 0.917 -2.871 L 1.069 -2.810 L 1.219 -2.738 L 1.367 -2.655 L 1.510 -2.562 L 1.648 -2.459 L 1.779 -2.348 L 1.903 -2.229 L 2.018 -2.102 L 2.125 -1.970 L 2.221 -1.833 L 2.307 -1.692 L 2.382 -1.548 L 2.446 -1.403 L 2.499 -1.257 L 2.540 -1.112 L 2.571 -0.969 L 2.590 -0.828 L 2.599 -0.690 L 2.597 -0.557 L 2.586 -0.428 L 2.566 -0.305 L 2.538 -0.188 L 2.501 -0.077 L 2.458 0.026 L 2.408 0.123 L 2.353 0.212 L 2.293 0.294 L 2.228 0.368 L 2.160 0.434 L 2.089 0.493 L 2.016 0.544 L 1.942 0.588 L 1.866 0.625 L 1.790 0.655 L 1.715 0.678 L 1.640 0.695 L 1.566 0.706 L 1.494 0.712 L 1.424 0.712 L 1.356 0.707 L 1.291 0.698 L 1.228 0.685 L 1.169 0.668 L 1.112 0.649 L 1.059 0.626 L 1.009 0.602 L 0.962 0.576 L 0.919 0.549 L 0.879 0.522 L 0.842 0.494 L 0.808 0.466 L 0.776 0.439 L 0.747 0.413 L 0.721 0.388 L 0.696 0.365 L 0.673 0.344 L 0.651 0.326 L 0.630 0.310 L 0.609 0.296 L 0.589 0.286 L 0.569 0.278 L 0.549 0.273 L 0.527 0.272 L 0.505 0.274 L 0.481 0.278 L 0.456 0.286 L 0.428 0.297 L 0.398 0.310 L 0.366 0.326 L 0.332 0.345 L 0.294 0.366 L 0.254 0.388 L 0.210 0.413 L 0.163 0.440 L 0.114 0.468 L 0.061 0.497 L 0.004 0.527 L -0.055 0.558 L -0.118 0.590 L -0.184 0.622 L -0.252 0.654 L -0.324 0.685 L -0.399 0.717 L -0.476 0.748 L -0.556 0.778 L -0.638 0.807 L -0.722 0.835 L -0.809 0.862 L -0.897 0.888 L -0.987 0.912 L -1.078 0.934 L -1.170 0.955 L -1.263 0.973 L -1.356 0.990 L -1.450 1.004 L -1.543 1.016 L -1.637 1.026 L -1.729 1.034 L -1.820 1.039 L -1.910 1.041 L -1.998 1.041 L -2.083 1.038 L -2.166 1.033 L -2.245 1.025 L -2.321 1.015 L -2.393 1.001 L -2.460 0.986 L -2.522 0.968 L -2.579 0.947 L -2.629 0.924 L -2.673 0.898 L -2.710 0.871 L -2.740 0.841 L -2.762 0.809 L -2.776 0.776 L -2.781 0.741 L -2.778 0.704 L -2.767 0.667 L -2.747 0.628 L -2.718 0.588 L -2.680 0.548 L -2.634 0.507 L -2.580 0.466 L -2.519 0.425 L -2.450 0.384 L -2.375 0.343 L -2.294 0.302 L -2.208 0.262 L -2.118 0.223 L -2.024 0.184 L -1.928 0.146 L -1.829 0.109 L -1.730 0.072 L -1.631 0.035 L -1.533 -0.001 L -1.436 -0.036 L -1.341 -0.072 L -1.249 -0.108 L -1.160 -0.143 L -1.074 -0.179 L -0.992 -0.216 L -0.914 -0.253 L -0.840 -0.291 L -0.771 -0.330 L -0.705 -0.370 L -0.644 -0.411 L -0.586 -0.454 L -0.531 -0.498 L -0.480 -0.544 L -0.432 -0.591 L -0.387 -0.640 L -0.343 -0.691 L -0.301 -0.743 L -0.261 -0.796 L -0.221 -0.851 L -0.181 -0.908 L -0.142 -0.965 L -0.102 -1.024 L -0.061 -1.083 L -0.018 -1.143 L 0.027 -1.203 L 0.073 -1.264 L 0.123 -1.324 L 0.175 -1.383 L 0.231 -1.442 L 0.290 -1.499 L 0.352 -1.554 L 0.419 -1.608 L 0.490 -1.658 L 0.564 -1.706 L 0.643 -1.750 L 0.726 -1.790 L 0.813 -1.825 L 0.903 -1.856 L 0.997 -1.881 L 1.095 -1.900 L 1.195 -1.913 L 1.297 -1.919 L 1.402 -1.919 L 1.508 -1.911 L 1.615 -1.895 L 1.723 -1.872 L 1.829 -1.841 L 1.935 -1.802 L 2.040 -1.755 L 2.142 -1.700 L 2.240 -1.637 L 2.335 -1.567 L 2.426 -1.490 L 2.511 -1.406 L 2.591 -1.316 L 2.665 -1.219 L 2.732 -1.117 L 2.792 -1.010 L 2.844 -0.899 L 2.889 -0.783 L 2.925 -0.665 L 2.954 -0.545 L 2.974 -0.422 L 2.985 -0.298 L 2.989 -0.174 L 2.984 -0.050 L 2.971 0.073 L 2.950 0.196 L 2.921 0.316 L 2.885 0.434 L 2.842 0.549 L 2.793 0.661 L 2.737 0.769 L 2.675 0.873 L 2.607 0.972 L 2.535 1.067 L 2.457 1.156 L 2.376 1.240 L 2.291 1.318 L 2.203 1.391 L 2.112 1.458 L 2.019 1.518 L 1.924 1.573 L 1.827 1.621 L 1.730 1.662 L 1.632 1.697 L 1.534 1.726 L 1.436 1.749 L 1.339 1.765 L 1.244 1.775 L 1.149 1.778 L 1.057 1.776 L 0.967 1.768 L 0.879 1.754 L 0.794 1.735 L 0.711 1.711 L 0.632 1.682 L 0.557 1.648 L 0.484 1.610 L 0.416 1.568 L 0.350 1.522 L 0.289 1.473 L 0.231 1.421 L 0.176 1.367 L 0.125 1.311 L 0.077 1.253 L 0.032 1.194 L -0.011 1.134 L -0.050 1.074 L -0.088 1.013 L -0.124 0.953 L -0.158 0.893 L -0.190 0.835 L -0.222 0.777 L -0.253 0.721 L -0.285 0.666 L -0.316 0.614 L -0.348 0.563 L -0.380 0.513 L -0.414 0.466 L -0.449 0.421 L -0.485 0.378 L -0.524 0.337 L -0.564 0.298 L -0.607 0.260 L -0.652 0.224 L -0.699 0.189 L -0.749 0.156 L -0.802 0.124 L -0.857 0.093 L -0.915 0.062 L -0.975 0.032 L -1.038 0.003 L -1.103 -0.027 L -1.170 -0.056 L -1.239 -0.086 L -1.311 -0.116 L -1.384 -0.147 L -1.459 -0.178 L -1.535 -0.211 L -1.612 -0.244 L -1.691 -0.279 L -1.770 -0.315 L -1.849 -0.353 L -1.928 -0.392 L -2.007 -0.433 L -2.086 -0.476 L -2.163 -0.520 L -2.239 -0.566 L -2.313 -0.614 L -2.385 -0.664 L -2.455 -0.715 L -2.521 -0.768 L -2.584 -0.823 L -2.642 -0.879 L -2.696 -0.936 L -2.745 -0.994 L -2.787 -1.053 L -2.824 -1.113 L -2.854 -1.173 L -2.876 -1.232 L -2.890 -1.291 L -2.896 -1.349 L -2.893 -1.405 L -2.880 -1.460 L -2.858 -1.512 L -2.825 -1.561" class="knot-stroke" stroke-width="0.55" fill="none" stroke-linecap="round" stroke-linejoin="round" />
  </g>
</svg>
